# ProBuilder 5.0.7
# https://unity3d.com/unity/features/worldbuilding/probuilder
# 2/27/2025 8:05:57 PM

mtllib ./AirConditionerBody.mtl
o AirConditionerBody

g AirConditionerBody
v 1.488896 2.077139 1.041219 0.8446 0.984 0.9717
v -1.488896 2.077139 1.041219 0.8446 0.984 0.9717
v 1.488896 2.077139 -1.041219 0.8446 0.984 0.9717
v -1.488896 2.077139 -1.041219 0.8446 0.984 0.9717
v 1.488896 0 -1.041219 1 1 1
v -1.488896 0 -1.041219 1 1 1
v 1.488896 0 1.041219 1 1 1
v -1.488896 0 1.041219 1 1 1
v -1.488896 2.077139 1.041219 0.8041647 0.867541 0.9372549
v 1.488896 2.077139 1.041219 0.8041647 0.867541 0.9372549
v -1.212533 1.884364 1.04122 0.8041647 0.867541 0.9372549
v 1.212533 1.884364 1.04122 0.8041647 0.867541 0.9372549
v 1.212533 0.1927748 1.04122 0.6666667 0.6666667 0.6666667
v -1.212533 0.1927748 1.04122 0.6666667 0.6666667 0.6666667
v 1.212533 0.1927748 0.7736607 0.6666667 0.6666667 0.6666667
v -1.212533 0.1927748 0.7736607 0.6666667 0.6666667 0.6666667
v -1.212533 1.884364 1.04122 0.5544157 0.6458353 0.7372549
v 1.212533 1.884364 1.04122 0.5544157 0.6458353 0.7372549
v -1.212533 1.884364 0.7736607 0.5544157 0.6458353 0.7372549
v 1.212533 1.884364 0.7736607 0.5544157 0.6458353 0.7372549
v -1.212533 0.1927748 0.7736607 1 1 1
v -1.212533 1.884364 0.7736607 1 1 1
v 1.212533 1.884364 0.7736607 1 1 1
v 1.212533 0.1927748 0.7736607 1 1 1
v -1.488896 0 1.041219 0.6666667 0.6666667 0.6666667
v -1.488896 0 -1.041219 0.6666667 0.6666667 0.6666667
v -1.488895 0.1929626 -1.04122 0.6666667 0.6666667 0.6666667
v -1.488895 0.1929626 1.04122 0.6666667 0.6666667 0.6666667
v -1.488895 0.1929626 -1.04122 0.8041647 0.867541 0.9372549
v -1.488896 2.077139 -1.041219 0.8041647 0.867541 0.9372549
v -1.488895 0.1929626 1.04122 0.8041647 0.867541 0.9372549
v -1.488896 0 -1.041219 0.2196078 0.2196078 0.2196078
v 1.488896 0 -1.041219 0.2196078 0.2196078 0.2196078
v 1.488895 0.1929626 -1.04122 0.2196078 0.2196078 0.2196078
v -1.488895 0.1929626 -1.04122 0.2196078 0.2196078 0.2196078
v 1.488895 0.1929626 -1.04122 0.5544157 0.6458353 0.7372549
v 1.488896 2.077139 -1.041219 0.5544157 0.6458353 0.7372549
v -1.488896 2.077139 -1.041219 0.5544157 0.6458353 0.7372549
v -1.488895 0.1929626 -1.04122 0.5544157 0.6458353 0.7372549
v 1.488896 0 -1.041219 0.6666667 0.6666667 0.6666667
v 1.488896 0 1.041219 0.6666667 0.6666667 0.6666667
v 1.488895 0.1929626 1.04122 0.6666667 0.6666667 0.6666667
v 1.488895 0.1929626 -1.04122 0.6666667 0.6666667 0.6666667
v 1.488895 0.1929626 1.04122 0.8041647 0.867541 0.9372549
v 1.488896 2.077139 -1.041219 0.8041647 0.867541 0.9372549
v 1.488895 0.1929626 -1.04122 0.8041647 0.867541 0.9372549
v 1.212533 0.1927748 1.04122 0.8041647 0.867541 0.9372549
v -1.212533 0.1927748 1.04122 0.8041647 0.867541 0.9372549
v 1.212533 0.1927748 1.04122 0.5544157 0.6458353 0.7372549
v 1.212533 0.1927748 0.7736607 0.5544157 0.6458353 0.7372549
v -1.212533 0.1927748 1.04122 0.5544157 0.6458353 0.7372549
v -1.212533 0.1927748 0.7736607 0.5544157 0.6458353 0.7372549

vt 22.67198 -0.8912587
vt 12.89474 -0.8912573
vt 22.67198 5.946194
vt 12.89474 5.946194
vt 1.488896 -1.041219
vt -1.488896 -1.041219
vt 1.488896 1.041219
vt -1.488896 1.041219
vt -18.69747 2.82462
vt -10.02146 2.82462
vt -17.89227 2.144896
vt -10.82666 2.144896
vt -1.212533 1.04122
vt 1.212533 1.04122
vt -1.212533 0.7736607
vt 1.212533 0.7736607
vt -1.212533 0.1927748
vt -1.212533 1.884364
vt 1.212533 1.884364
vt 1.212533 0.1927748
vt 1.041219 1.920072
vt -1.041219 1.920072
vt -1.04122 2.408892
vt 1.04122 2.408892
vt 6.708258 5.946194
vt 6.708258 -0.8912573
vt 1.960668 1.920076
vt -1.017123 1.920076
vt -1.017123 2.408897
vt 1.960668 2.408897
vt -1.488895 0.1929625
vt -1.488896 2.077139
vt 1.488896 2.077139
vt 1.488895 0.1929625
vt 28.85845 -0.8912601
vt 28.85846 5.946194
vt -13.16918 2.827082
vt -7.679491 2.827082
vt -7.678944 2.139937
vt -12.60752 2.139937
vt 1.017123 2.408897
vt 1.017123 1.920076
vt 0.7407608 2.408421
vt -1.960668 1.920076
vt -1.960668 2.408897
vt -1.684305 2.408421
vt -21.03944 2.827082
vt -15.54975 2.827082
vt -16.11142 2.139937
vt -21.03999 2.139937
vt 1.04122 1.884364
vt 1.04122 0.1927748
vt 0.7736607 0.1927748
vt 0.7736607 1.884364
vt -1.04122 0.1927748
vt -1.04122 1.884364
vt -0.7736607 1.884364
vt -0.7736607 0.1927748

vn 0.4082486 0.4082489 0.8164961
vn -0.4082486 0.4082489 0.8164961
vn 0.5773503 0.5773503 -0.5773503
vn -0.5773503 0.5773503 -0.5773503
vn 0.5773501 -0.5773506 -0.5773501
vn -0.5773502 -0.5773505 -0.5773502
vn 0.5773502 -0.5773505 0.5773502
vn -0.5773502 -0.5773505 0.5773502
vn 0.4082482 -0.4082477 0.816497
vn -0.4082482 -0.4082477 0.816497
vn -0.5773503 0.5773503 0.5773503
vn 0.5773503 0.5773503 0.5773503
vn -0.7071068 -1.960509E-07 -0.7071068
vn -0.7071068 -2.296041E-07 0.7071066
vn 0.7071068 -1.960508E-07 -0.7071068
vn 0.7071068 -2.296041E-07 0.7071066

usemtl WhiteSeam
f 28/45/14 25/44/8 14/46/1
f 42/41/16 13/43/2 41/42/7
f 13/43/2 25/44/8 41/42/7
f 13/43/2 14/46/1 25/44/8
f 4/4/4 2/2/2 1/1/1
f 1/1/1 3/3/3 4/4/4
f 8/8/8 6/6/6 5/5/5
f 5/5/5 7/7/7 8/8/8
f 12/12/10 10/10/1 9/9/2
f 9/9/2 11/11/9 12/12/10
f 16/16/12 14/14/1 13/13/2
f 13/13/2 15/15/11 16/16/12
f 20/16/8 18/14/10 17/13/9
f 17/13/9 19/15/7 20/16/8
f 27/23/13 26/22/6 25/21/8
f 25/21/8 28/24/14 27/23/13
f 30/4/4 29/25/13 31/26/14
f 31/26/14 9/2/2 30/4/4
f 35/30/13 34/29/15 33/28/5
f 33/28/5 32/27/6 35/30/13
f 38/33/4 37/32/3 36/31/15
f 36/31/15 39/34/13 38/33/4
f 43/24/15 42/23/16 41/22/7
f 41/22/7 40/21/5 43/24/15
f 45/3/3 10/1/1 44/35/16
f 44/35/16 46/36/15 45/3/3
f 12/40/10 47/39/2 44/38/16
f 44/38/16 10/37/1 12/40/10
f 31/47/14 48/50/1 11/49/9
f 11/49/9 9/48/2 31/47/14
f 20/54/8 50/53/11 49/52/2
f 49/52/2 18/51/10 20/54/8
f 19/57/7 17/56/9 51/55/1
f 51/55/1 52/58/12 19/57/7

usemtl Mat_BlackGrate
f 23/19/8 22/18/7 21/17/12 24/20/11

