ply
format ascii 1.0
comment Exported by [ProBuilder](http://www.procore3d.com/probuilder)
comment 7/10/2025 6:43:48 AM
element vertex 144
property float32 x
property float32 y
property float32 z
property float32 nx
property float32 ny
property float32 nz
property uint8 red
property uint8 green
property uint8 blue
property uint8 alpha
element face 40
property list uint8 int32 vertex_index
end_header
10.64616 -28.74218 -5.81431 0.9453812 0.3259699 1.251698E-06 205 221 239 255
10.64616 -28.74218 -5.897138 0.9453812 0.3259697 9.834766E-07 205 221 239 255
11.07949 -29.99892 -5.814312 0.9453812 0.3259697 9.834766E-07 205 221 239 255
11.07949 -29.99892 -5.897144 0.9453812 0.3259697 7.450581E-07 205 221 239 255
11.07948 -28.74218 -5.375255 1.000001 2.145767E-06 9.549694E-12 205 221 239 255
11.07948 -28.74218 -5.458082 1.000001 2.145767E-06 8.6402E-12 205 221 239 255
11.07949 -29.99892 -5.814312 1.000001 2.145767E-06 8.6402E-12 205 221 239 255
11.07949 -29.99892 -5.897144 1.000001 2.145767E-06 7.275958E-12 205 221 239 255
11.49947 -28.74218 -5.814313 0.9484423 -0.3169526 1.102686E-06 205 221 239 255
11.49947 -28.74218 -5.897142 0.9484423 -0.3169525 2.086163E-07 205 221 239 255
11.07949 -29.99892 -5.814312 0.9484423 -0.3169525 2.086163E-07 205 221 239 255
11.07949 -29.99892 -5.897144 0.9484424 -0.3169526 -7.152557E-07 205 221 239 255
11.07948 -28.74217 -6.247636 1.000001 2.145767E-06 1.000444E-11 205 221 239 255
11.07949 -28.74217 -6.330465 1.000001 2.145767E-06 8.185452E-12 205 221 239 255
11.07949 -29.99892 -5.814312 1.000001 2.145767E-06 8.185452E-12 205 221 239 255
11.07949 -29.99892 -5.897144 1.000001 2.145767E-06 7.275958E-12 205 221 239 255
10.68074 -28.74218 -5.81431 0.953173 0.3024286 -1.043081E-06 205 221 239 255
10.68074 -28.74218 -5.897138 0.953173 0.3024286 -1.788139E-07 205 221 239 255
11.07949 -29.99892 -5.814312 0.953173 0.3024286 -1.788139E-07 205 221 239 255
11.07949 -29.99892 -5.897144 0.953173 0.3024288 6.854534E-07 205 221 239 255
10.70449 -29.99892 -6.355724 0.2563071 3.814697E-06 -0.9665959 255 202 139 255
11.45449 -29.99892 -6.156856 0.2563071 3.874302E-06 -0.9665959 255 202 139 255
10.70449 -29.64537 -6.209274 0.2563054 0.6834891 -0.6834851 255 202 139 255
11.45449 -29.78599 -6.068653 0.2563053 0.683489 -0.6834852 255 202 139 255
10.70449 -29.64537 -6.209274 0.2563054 0.6834891 -0.6834851 255 202 139 255
11.45449 -29.78599 -6.068653 0.2563053 0.683489 -0.6834852 255 202 139 255
10.70449 -29.49892 -5.85572 0.2563047 0.9665967 2.145767E-06 255 202 139 255
11.45449 -29.69779 -5.855728 0.2563047 0.9665967 2.145767E-06 255 202 139 255
10.70449 -29.49892 -5.85572 0.2563047 0.9665967 2.145767E-06 255 202 139 255
11.45449 -29.69779 -5.855728 0.2563047 0.9665967 2.145767E-06 255 202 139 255
10.70448 -29.64537 -5.502174 0.2563053 0.6834852 0.683488 255 202 139 255
11.45449 -29.78599 -5.642795 0.2563054 0.683485 0.683488 255 202 139 255
10.70448 -29.64537 -5.502174 0.2563053 0.6834852 0.683488 255 202 139 255
11.45449 -29.78599 -5.642795 0.2563054 0.683485 0.683488 255 202 139 255
10.70449 -29.99892 -5.355728 0.2563072 -2.503395E-06 0.9665958 255 202 139 255
11.45449 -29.99892 -5.554599 0.2563071 -2.503395E-06 0.9665959 255 202 139 255
10.70449 -29.99892 -5.355728 0.2563072 -2.503395E-06 0.9665958 255 202 139 255
11.45449 -29.99892 -5.554599 0.2563071 -2.503395E-06 0.9665959 255 202 139 255
10.70449 -30.35248 -5.502174 0.2563088 -0.6834877 0.683485 255 202 139 255
11.45449 -30.21185 -5.642803 0.2563088 -0.6834875 0.6834851 255 202 139 255
10.70449 -30.35248 -5.502174 0.2563088 -0.6834877 0.683485 255 202 139 255
11.45449 -30.21185 -5.642803 0.2563088 -0.6834875 0.6834851 255 202 139 255
10.70449 -30.49892 -5.855728 0.2563096 -0.9665952 -2.086163E-06 255 202 139 255
11.45449 -30.30005 -5.855731 0.2563096 -0.9665952 -2.086163E-06 255 202 139 255
10.70449 -30.49892 -5.855728 0.2563096 -0.9665952 -2.086163E-06 255 202 139 255
11.45449 -30.30005 -5.855731 0.2563096 -0.9665952 -2.086163E-06 255 202 139 255
10.70449 -30.35247 -6.209278 0.2563088 -0.6834839 -0.683488 255 202 139 255
11.45449 -30.21185 -6.068656 0.2563089 -0.6834838 -0.6834881 255 202 139 255
10.70449 -30.35247 -6.209278 0.2563088 -0.6834839 -0.683488 255 202 139 255
11.45449 -30.21185 -6.068656 0.2563089 -0.6834838 -0.6834881 255 202 139 255
10.70449 -29.99892 -6.355724 0.2563071 3.814697E-06 -0.9665959 255 202 139 255
11.45449 -29.99892 -6.156856 0.2563071 3.874302E-06 -0.9665959 255 202 139 255
10.70449 -29.99892 -6.205467 -1.000001 -2.622604E-06 -8.6402E-12 255 202 139 255
10.70449 -29.99892 -5.855728 -1.000001 -2.622604E-06 -8.6402E-12 255 202 139 255
10.70449 -29.75162 -6.103027 -1.000001 -2.622604E-06 -8.6402E-12 255 202 139 255
11.45449 -29.99892 -6.156856 1.000001 2.622604E-06 8.6402E-12 184 149 121 255
11.45449 -29.99892 -5.855731 1.000001 2.622604E-06 8.6402E-12 184 149 121 255
11.45449 -29.78599 -6.068653 1.000001 2.622604E-06 8.6402E-12 184 149 121 255
10.70449 -29.75162 -6.103027 -1.000001 -2.622604E-06 -8.6402E-12 255 202 139 255
10.70449 -29.99892 -5.855728 -1.000001 -2.622604E-06 -8.6402E-12 255 202 139 255
10.70449 -29.64918 -5.855724 -1.000001 -2.622604E-06 -8.6402E-12 255 202 139 255
11.45449 -29.78599 -6.068653 1.000001 2.622604E-06 8.6402E-12 184 149 121 255
11.45449 -29.99892 -5.855731 1.000001 2.622604E-06 8.6402E-12 184 149 121 255
11.45449 -29.69779 -5.855728 1.000001 2.622604E-06 8.6402E-12 184 149 121 255
10.70449 -29.64918 -5.855724 -1.000001 -2.622604E-06 -8.6402E-12 255 202 139 255
10.70449 -29.99892 -5.855728 -1.000001 -2.622604E-06 -8.6402E-12 255 202 139 255
10.70449 -29.75162 -5.608421 -1.000001 -2.622604E-06 -8.6402E-12 255 202 139 255
11.45449 -29.69779 -5.855728 1.000001 2.622604E-06 8.6402E-12 184 149 121 255
11.45449 -29.99892 -5.855731 1.000001 2.622604E-06 8.6402E-12 184 149 121 255
11.45449 -29.78599 -5.642795 1.000001 2.622604E-06 8.6402E-12 184 149 121 255
10.70449 -29.75162 -5.608421 -1.000001 -2.622604E-06 -8.6402E-12 255 202 139 255
10.70449 -29.99892 -5.855728 -1.000001 -2.622604E-06 -8.6402E-12 255 202 139 255
10.70448 -29.99892 -5.505989 -1.000001 -2.622604E-06 -8.6402E-12 255 202 139 255
11.45449 -29.78599 -5.642795 1.000001 2.622604E-06 8.6402E-12 184 149 121 255
11.45449 -29.99892 -5.855731 1.000001 2.622604E-06 8.6402E-12 184 149 121 255
11.45449 -29.99892 -5.554599 1.000001 2.622604E-06 8.6402E-12 184 149 121 255
10.70448 -29.99892 -5.505989 -1.000001 -2.622604E-06 -8.6402E-12 255 202 139 255
10.70449 -29.99892 -5.855728 -1.000001 -2.622604E-06 -8.6402E-12 255 202 139 255
10.70449 -30.24623 -5.608425 -1.000001 -2.622604E-06 -8.6402E-12 255 202 139 255
11.45449 -29.99892 -5.554599 1.000001 2.622604E-06 8.6402E-12 184 149 121 255
11.45449 -29.99892 -5.855731 1.000001 2.622604E-06 8.6402E-12 184 149 121 255
11.45449 -30.21185 -5.642803 1.000001 2.622604E-06 8.6402E-12 184 149 121 255
10.70449 -30.24623 -5.608425 -1.000001 -2.622604E-06 -8.6402E-12 255 202 139 255
10.70449 -29.99892 -5.855728 -1.000001 -2.622604E-06 -8.6402E-12 255 202 139 255
10.70449 -30.34866 -5.855728 -1.000001 -2.622604E-06 -8.6402E-12 255 202 139 255
11.45449 -30.21185 -5.642803 1.000001 2.622604E-06 8.6402E-12 184 149 121 255
11.45449 -29.99892 -5.855731 1.000001 2.622604E-06 8.6402E-12 184 149 121 255
11.45449 -30.30005 -5.855731 1.000001 2.622604E-06 8.6402E-12 184 149 121 255
10.70449 -30.34866 -5.855728 -1.000001 -2.622604E-06 -8.6402E-12 255 202 139 255
10.70449 -29.99892 -5.855728 -1.000001 -2.622604E-06 -8.6402E-12 255 202 139 255
10.70449 -30.24622 -6.103027 -1.000001 -2.622604E-06 -8.6402E-12 255 202 139 255
11.45449 -30.30005 -5.855731 1.000001 2.622604E-06 8.6402E-12 184 149 121 255
11.45449 -29.99892 -5.855731 1.000001 2.622604E-06 8.6402E-12 184 149 121 255
11.45449 -30.21185 -6.068656 1.000001 2.622604E-06 8.6402E-12 184 149 121 255
10.70449 -30.24622 -6.103027 -1.000001 -2.622604E-06 -8.6402E-12 255 202 139 255
10.70449 -29.99892 -5.855728 -1.000001 -2.622604E-06 -8.6402E-12 255 202 139 255
10.70449 -29.99892 -6.205467 -1.000001 -2.622604E-06 -8.6402E-12 255 202 139 255
11.45449 -30.21185 -6.068656 1.000001 2.622604E-06 8.6402E-12 184 149 121 255
11.45449 -29.99892 -5.855731 1.000001 2.622604E-06 8.6402E-12 184 149 121 255
11.45449 -29.99892 -6.156856 1.000001 2.622604E-06 8.6402E-12 184 149 121 255
10.70449 -30.49892 -5.855728 -1.000001 -2.622604E-06 -8.6402E-12 255 202 139 255
10.70449 -30.35247 -6.209278 -1.000001 -2.622604E-06 -8.6402E-12 255 202 139 255
10.70449 -30.34866 -5.855728 -1.000001 -2.622604E-06 -8.6402E-12 255 202 139 255
10.70449 -30.24622 -6.103027 -1.000001 -2.622604E-06 -8.6402E-12 255 202 139 255
10.70449 -30.35248 -5.502174 -1.000001 -2.622604E-06 -8.6402E-12 255 202 139 255
10.70449 -30.49892 -5.855728 -1.000001 -2.622604E-06 -8.6402E-12 255 202 139 255
10.70449 -30.24623 -5.608425 -1.000001 -2.622604E-06 -8.6402E-12 255 202 139 255
10.70449 -30.34866 -5.855728 -1.000001 -2.622604E-06 -8.6402E-12 255 202 139 255
10.70449 -30.35247 -6.209278 -1.000001 -2.622604E-06 -8.6402E-12 255 202 139 255
10.70449 -29.99892 -6.355724 -1.000001 -2.622604E-06 -8.6402E-12 255 202 139 255
10.70449 -30.24622 -6.103027 -1.000001 -2.622604E-06 -8.6402E-12 255 202 139 255
10.70449 -29.99892 -6.205467 -1.000001 -2.622604E-06 -8.6402E-12 255 202 139 255
10.70449 -29.99892 -6.355724 -1.000001 -2.622604E-06 -8.6402E-12 255 202 139 255
10.70449 -29.64537 -6.209274 -1.000001 -2.622604E-06 -8.6402E-12 255 202 139 255
10.70449 -29.99892 -6.205467 -1.000001 -2.622604E-06 -8.6402E-12 255 202 139 255
10.70449 -29.75162 -6.103027 -1.000001 -2.622604E-06 -8.6402E-12 255 202 139 255
10.70449 -29.64537 -6.209274 -1.000001 -2.622604E-06 -8.6402E-12 255 202 139 255
10.70449 -29.49892 -5.85572 -1.000001 -2.622604E-06 -8.6402E-12 255 202 139 255
10.70449 -29.75162 -6.103027 -1.000001 -2.622604E-06 -8.6402E-12 255 202 139 255
10.70449 -29.64918 -5.855724 -1.000001 -2.622604E-06 -8.6402E-12 255 202 139 255
10.70449 -29.49892 -5.85572 -1.000001 -2.622604E-06 -8.6402E-12 255 202 139 255
10.70448 -29.64537 -5.502174 -1.000001 -2.622604E-06 -8.6402E-12 255 202 139 255
10.70449 -29.64918 -5.855724 -1.000001 -2.622604E-06 -8.6402E-12 255 202 139 255
10.70449 -29.75162 -5.608421 -1.000001 -2.622604E-06 -8.6402E-12 255 202 139 255
10.70448 -29.64537 -5.502174 -1.000001 -2.622604E-06 -8.6402E-12 255 202 139 255
10.70449 -29.99892 -5.355728 -1.000001 -2.622604E-06 -8.6402E-12 255 202 139 255
10.70449 -29.75162 -5.608421 -1.000001 -2.622604E-06 -8.6402E-12 255 202 139 255
10.70448 -29.99892 -5.505989 -1.000001 -2.622604E-06 -8.6402E-12 255 202 139 255
10.70449 -29.99892 -5.355728 -1.000001 -2.622604E-06 -8.6402E-12 255 202 139 255
10.70449 -30.35248 -5.502174 -1.000001 -2.622604E-06 -8.6402E-12 255 202 139 255
10.70448 -29.99892 -5.505989 -1.000001 -2.622604E-06 -8.6402E-12 255 202 139 255
10.70449 -30.24623 -5.608425 -1.000001 -2.622604E-06 -8.6402E-12 255 202 139 255
11.07948 -28.74218 -5.415567 1.000001 3.099442E-06 2.563008E-06 205 221 239 255
11.07948 -28.74218 -5.498395 1.000001 3.457069E-06 1.281509E-06 205 221 239 255
11.07949 -29.99892 -5.814312 1.000001 3.457069E-06 1.281509E-06 205 221 239 255
11.07949 -29.99892 -5.897144 1.000001 3.695488E-06 1.091394E-11 205 221 239 255
11.07948 -28.74217 -6.234296 1.000001 3.099442E-06 2.563008E-06 205 221 239 255
11.07949 -28.74217 -6.317125 1.000001 2.622604E-06 1.281508E-06 205 221 239 255
11.07949 -29.99892 -5.814312 1.000001 2.622604E-06 1.281508E-06 205 221 239 255
11.07949 -29.99892 -5.897144 1.000001 2.145767E-06 7.275958E-12 205 221 239 255
11.51854 -28.74218 -5.81431 0.9440485 -0.3298093 3.516674E-06 205 221 239 255
11.51854 -28.74217 -5.897138 0.9440485 -0.3298094 1.400709E-06 205 221 239 255
11.07949 -29.99892 -5.814312 0.9440485 -0.3298094 1.400709E-06 205 221 239 255
11.07949 -29.99892 -5.897144 0.9440485 -0.3298096 -7.450581E-07 205 221 239 255
4 2 3 1 0
4 6 7 5 4
4 10 11 9 8
4 14 15 13 12
4 18 19 17 16
4 22 23 21 20
4 26 27 25 24
4 30 31 29 28
4 34 35 33 32
4 38 39 37 36
4 42 43 41 40
4 46 47 45 44
4 50 51 49 48
3 52 53 54
3 58 59 60
3 64 65 66
3 70 71 72
3 76 77 78
3 82 83 84
3 88 89 90
3 94 95 96
3 57 56 55
3 63 62 61
3 69 68 67
3 75 74 73
3 81 80 79
3 87 86 85
3 93 92 91
3 99 98 97
4 102 103 101 100
4 106 107 105 104
4 110 111 109 108
4 114 115 113 112
4 118 119 117 116
4 122 123 121 120
4 126 127 125 124
4 130 131 129 128
4 134 135 133 132
4 138 139 137 136
4 142 143 141 140
