# ProBuilder 5.0.7
# https://unity3d.com/unity/features/worldbuilding/probuilder
# 2/27/2025 6:10:40 PM

mtllib ./Patio.mtl
o Patio

g Patio
v 5.709495 -0.9648967 5.433197 1 1 1
v -8.378204 -0.9648967 5.433197 1 1 1
v 5.709495 0.9648967 1.706863 1 1 1
v -8.378204 0.9648967 1.706864 1 1 1
v -8.378204 -0.9648967 -6.216461 1 1 1
v -8.378204 0.9648967 -6.216461 1 1 1
v 6.009495 -0.9648967 -3.994602 0.8041647 0.867541 0.9372549
v 6.009495 -0.9648967 5.133197 0.8041647 0.867541 0.9372549
v 6.009495 0.6648967 -3.994602 0.8041647 0.867541 0.9372549
v 6.009495 0.8187931 1.67337 0.8041647 0.867541 0.9372549
v 5.713009 0.9648967 -4.040388 1 1 1
v 5.709495 0.9648967 1.706863 0.8041647 0.867541 0.9372549
v 5.713009 0.9648967 -4.040388 0.8041647 0.867541 0.9372549
v 5.709495 -0.9648967 5.433197 0.8041647 0.867541 0.9372549
v 6.009495 -0.9648967 -3.994602 1 1 1
v 6.009495 0.6648967 -3.994602 1 1 1
v 6.009495 -0.9648967 5.133197 1 1 1

vt 24.27982 3.497981
vt 26.02083 3.497981
vt 24.27982 2.842295
vt 26.02083 2.842295
vt 5.433197 -0.9648967
vt -6.216461 -0.9648967
vt 1.706864 0.9648967
vt -6.216461 0.9648967
vt 3.994603 2.12973
vt -5.133196 2.12973
vt 3.994603 3.759524
vt -1.673369 3.91342
vt -5.709495 1.706863
vt 8.378204 1.706864
vt -5.713009 -4.040388
vt 8.378204 -6.216461
vt -16.22923 2.356838
vt -10.55956 2.356838
vt -16.26276 2.576551
vt -10.51726 2.576536
vt -14.96409 2.57645
vt -19.16021 2.576167
vt -14.99775 2.356838
vt -18.89008 2.356838
vt -5.329444 -0.9648967
vt -5.329444 0.6648967
vt -5.029444 0.9648967
vt 9.228803 0.9648967
vt 9.228803 -0.9648967
vt -8.378204 -6.216461
vt -8.378204 5.433197
vt 5.709495 5.433197
vt 6.009495 5.133197
vt 6.009495 -3.994602

vn 0 0.8879862 0.4598702
vn -1 0 0
vn 1 0 0
vn 0 1 0
vn 0.4355107 0.8998519 -0.02443272
vn 0.5733691 0.8014069 -0.01199888
vn 0.7112276 0.7029617 0.0004349556
vn 0.4355107 0.7993505 0.4139676
vn 0.4260445 0.8036941 0.415273
vn 0.4165783 0.8080378 0.4165783
vn 0.1526184 3.334711E-08 -0.9882852
vn 0 -1 0

usemtl PlasticPanels
f 5/29/11 6/28/11 11/27/11
f 15/25/11 5/29/11 11/27/11
f 11/27/11 16/26/11 15/25/11
f 15/34/12 17/33/12 1/32/12
f 1/32/12 2/31/12 15/34/12
f 5/30/12 15/34/12 2/31/12
f 6/8/2 5/6/2 2/5/2
f 2/5/2 4/7/2 6/8/2
f 6/16/4 4/14/4 3/13/4
f 3/13/4 11/15/4 6/16/4

usemtl Mat_Stairs
f 3/3/1 4/4/1 2/2/1 1/1/1

usemtl PlasticPanelsSeam
f 9/11/3 10/12/3 8/10/3 7/9/3
f 13/20/7 12/19/6 10/17/5 9/18/6
f 8/24/10 10/23/9 12/21/8 14/22/9

