# ProBuilder 5.0.7
# https://unity3d.com/unity/features/worldbuilding/probuilder
# 7/10/2025 6:55:10 AM

mtllib ./Potato_Leaves.mtl
o Potato_Leaves

g Quad (05)
v -11.75633 11.59451 -0.3090956
v -11.38894 11.8487 -0.2510301
v -11.43271 11.5935 -0.1586261
v -11.71256 11.84971 -0.4014996

vt 0.6487507 0.805779
vt 0.7625379 0.9195662
vt 0.7625379 0.805779
vt 0.6487507 0.9195662

vn -0.1157897 0.1102975 0.2497763

usemtl Mat_Flowers
f 4/4/1 1/1/1 3/3/1 2/2/1

g Quad (14)
v -11.08986 11.52379 -0.5372597
v -11.44019 11.79589 -0.6159279
v -11.36069 11.57786 -0.7633193
v -11.16936 11.74182 -0.3898684

vt 0.6487507 0.805779
vt 0.7625379 0.9195662
vt 0.7625379 0.805779
vt 0.6487507 0.9195662

vn 0.1730737 0.1749837 -0.1654908

usemtl Mat_Flowers
f 8/8/2 5/5/2 7/7/2 6/6/2

g Quad (07)
v -11.32968 11.46614 -0.09249307
v -11.22088 11.82194 -0.346515
v -11.06084 11.6089 -0.2788327
v -11.48972 11.67918 -0.1601754

vt 0.6487507 0.805779
vt 0.7625379 0.9195662
vt 0.7625379 0.805779
vt 0.6487507 0.9195662

vn 0.09079208 0.1451443 0.2421795

usemtl Mat_Flowers
f 12/12/3 9/9/3 11/11/3 10/10/3

g Quad (12)
v -11.2295 11.67383 -0.08638842
v -11.31873 11.86956 -0.4822179
v -11.15991 11.65004 -0.435622
v -11.38831 11.89335 -0.1329843

vt 0.6487507 0.805779
vt 0.7625379 0.9195662
vt 0.7625379 0.805779
vt 0.6487507 0.9195662

vn 0.2350808 0.1774552 0.03475162

usemtl Mat_Flowers
f 16/16/4 13/13/4 15/15/4 14/14/4

g Quad (09)
v -11.68456 11.32645 -0.2946002
v -11.33374 11.6034 -0.3509554
v -11.33779 11.36262 -0.2183411
v -11.68051 11.56723 -0.4272145

vt 0.6487507 0.805779
vt 0.7625379 0.9195662
vt 0.7625379 0.805779
vt 0.6487507 0.9195662

vn -0.07000314 0.1399396 0.2519473

usemtl Mat_Flowers
f 20/20/5 17/17/5 19/19/5 18/18/5

g Quad (03)
v -11.10217 11.68296 -0.6404035
v -11.44828 11.87984 -0.4296821
v -11.44726 11.63835 -0.5610645
v -11.10319 11.92445 -0.5090211

vt 0.6487507 0.805779
vt 0.7625379 0.9195662
vt 0.7625379 0.805779
vt 0.6487507 0.9195662

vn -0.07563256 0.1368054 -0.2520416

usemtl Mat_Flowers
f 24/24/6 21/21/6 23/23/6 22/22/6

g Quad (08)
v -11.5622 11.30738 -0.7745437
v -11.66089 11.60665 -0.2817691
v -11.79794 11.29081 -0.3759515
v -11.42515 11.62322 -0.6803613

vt 0.6487507 0.805779
vt 0.7625379 0.9195662
vt 0.7625379 0.805779
vt 0.6487507 0.9195662

vn -0.2967297 0.1788628 -0.1680582

usemtl Mat_Flowers
f 28/28/7 25/25/7 27/27/7 26/26/7

g Quad (16)
v -11.194 11.66819 -0.5785277
v -11.5458 11.68931 -0.2979228
v -11.50266 11.50741 -0.4994892
v -11.23713 11.85009 -0.3769612

vt 0.6487507 0.805779
vt 0.7625379 0.9195662
vt 0.7625379 0.805779
vt 0.6487507 0.9195662

vn -0.1414219 0.1777601 -0.1906887

usemtl Mat_Flowers
f 32/32/8 29/29/8 31/31/8 30/30/8

g Quad (10)
v -11.0714 11.4051 -0.2154917
v -11.38586 11.6249 -0.4516248
v -11.23987 11.40556 -0.5301175
v -11.21739 11.62443 -0.136999

vt 0.6487507 0.805779
vt 0.7625379 0.9195662
vt 0.7625379 0.805779
vt 0.6487507 0.9195662

vn 0.2087036 0.1788119 -0.1114904

usemtl Mat_Flowers
f 36/36/9 33/33/9 35/35/9 34/34/9

g Quad
v -11.09104 11.4841 -0.6547505
v -11.59773 11.73502 -0.5049773
v -11.5503 11.42949 -0.6833459
v -11.13847 11.78963 -0.476382

vt 0.6487507 0.805779
vt 0.7625379 0.9195662
vt 0.7625379 0.805779
vt 0.6487507 0.9195662

vn -0.002336659 0.1938721 -0.3327043

usemtl Mat_Flowers
f 40/40/10 37/37/10 39/39/10 38/38/10

g Quad (11)
v -11.17702 11.39934 -0.5172872
v -11.56328 11.60224 -0.629466
v -11.45184 11.37855 -0.7440299
v -11.28846 11.62303 -0.4027233

vt 0.6487507 0.805779
vt 0.7625379 0.9195662
vt 0.7625379 0.805779
vt 0.6487507 0.9195662

vn 0.1461131 0.1715529 -0.1928253

usemtl Mat_Flowers
f 44/44/11 41/41/11 43/43/11 42/42/11

g Quad (04)
v -11.41674 11.62943 -0.6170424
v -11.66279 11.83897 -0.3031909
v -11.70489 11.58932 -0.4103301
v -11.37464 11.87909 -0.5099032

vt 0.6487507 0.805779
vt 0.7625379 0.9195662
vt 0.7625379 0.805779
vt 0.6487507 0.9195662

vn -0.1689881 0.119628 -0.2123515

usemtl Mat_Flowers
f 48/48/12 45/45/12 47/47/12 46/46/12

g Quad (15)
v -11.12002 11.3545 -0.09459441
v -11.25442 11.68551 -0.5577395
v -11.00647 11.42954 -0.5375381
v -11.36797 11.61048 -0.1147958

vt 0.6487507 0.805779
vt 0.7625379 0.9195662
vt 0.7625379 0.805779
vt 0.6487507 0.9195662

vn 0.2604389 0.2610334 0.1109827

usemtl Mat_Flowers
f 52/52/13 49/49/13 51/51/13 50/50/13

g Quad (06)
v -11.67381 11.416 -0.2802953
v -11.41845 11.78456 -0.236648
v -11.39354 11.54628 -0.1018202
v -11.69871 11.65429 -0.4151232

vt 0.6487507 0.805779
vt 0.7625379 0.9195662
vt 0.7625379 0.805779
vt 0.6487507 0.9195662

vn -0.1816479 0.1007866 0.211677

usemtl Mat_Flowers
f 56/56/14 53/53/14 55/55/14 54/54/14

g Quad (13)
v -11.17762 11.49397 -0.1531938
v -11.28298 11.81565 -0.4504637
v -11.10363 11.60978 -0.4825673
v -11.35696 11.69984 -0.1210902

vt 0.6487507 0.805779
vt 0.7625379 0.9195662
vt 0.7625379 0.805779
vt 0.6487507 0.9195662

vn 0.2162133 0.1713785 0.108822

usemtl Mat_Flowers
f 60/60/15 57/57/15 59/59/15 58/58/15

g Quad (02)
v -11.53876 11.45025 -0.6998867
v -11.62774 11.68365 -0.324976
v -11.70417 11.42638 -0.3845459
v -11.46233 11.70753 -0.6403167

vt 0.6487507 0.805779
vt 0.7625379 0.9195662
vt 0.7625379 0.805779
vt 0.6487507 0.9195662

vn -0.2495328 0.1026391 -0.1231242

usemtl Mat_Flowers
f 64/64/16 61/61/16 63/63/16 62/62/16

g Quad (17)
v -11.53411 11.5948 -0.1599329
v -11.21186 11.75051 -0.4335453
v -11.19098 11.54957 -0.2470792
v -11.55498 11.79573 -0.346399

vt 0.6487507 0.805779
vt 0.7625379 0.9195662
vt 0.7625379 0.805779
vt 0.6487507 0.9195662

vn 0.07842237 0.1988968 0.2055504

usemtl Mat_Flowers
f 68/68/17 65/65/17 67/67/17 66/66/17

