# Export of City05-ApartmentLot
# from Aaro4130 OBJ Exporter v2.0
g Cube (05)
v -19.63714 13.59482 -18.9851
v -19.63714 87.30329 -18.9851
v -19.63714 13.59482 -9.905441
v -19.63714 87.30329 -9.905441
v -19.63714 87.30329 -18.9851
v 3.515913 87.30329 -18.9851
v -19.63714 87.30329 -9.905441
v 3.515913 87.30329 -9.905441
v 3.515913 87.30329 -18.9851
v 3.515913 13.59482 -18.9851
v 3.515913 87.30329 -9.905441
v 3.515913 13.59482 -9.905441
v 3.515913 13.59482 -18.9851
v -19.63714 13.59482 -18.9851
v 3.515913 13.59482 -9.905441
v -19.63714 13.59482 -9.905441
v -19.63714 13.59482 -9.905441
v -19.63714 87.30329 -9.905441
v 3.515913 13.59482 -9.905441
v 3.515913 87.30329 -9.905441
v 3.515913 13.59482 -18.9851
v 3.515913 87.30329 -18.9851
v -19.63714 13.59482 -18.9851
v -19.63714 87.30329 -18.9851
vn -0.5773503 0 0
vn -0.5773503 0 0
vn -0.5773503 0 0
vn -0.5773503 0 0
vn 0 0.5773503 0
vn 0 0.5773503 0
vn 0 0.5773503 0
vn 0 0.5773503 0
vn 0.5773503 0 0
vn 0.5773503 0 0
vn 0.5773503 0 0
vn 0.5773503 0 0
vn 0 -0.5773503 0
vn 0 -0.5773503 0
vn 0 -0.5773503 0
vn 0 -0.5773503 0
vn 0 0 0.5773503
vn 0 0 0.5773503
vn 0 0 0.5773503
vn 0 0 0.5773503
vn 0 0 -0.5773503
vn 0 0 -0.5773503
vn 0 0 -0.5773503
vn 0 0 -0.5773503
vt 6.142914 -4.539831
vt -67.56556 -4.539831
vt 6.142914 4.539831
vt -67.56556 4.539831
vt 11.83814 -4.539831
vt -11.31491 -4.539831
vt 11.83814 4.539831
vt -11.31491 4.539831
vt 67.56556 -4.539831
vt -6.142914 -4.539831
vt 67.56556 4.539831
vt -6.142914 4.539831
vt 11.31491 -4.539831
vt -11.83814 -4.539831
vt 11.31491 4.539831
vt -11.83814 4.539831
vt -6.142914 11.83814
vt 67.56556 11.83814
vt -6.142914 -11.31491
vt 67.56556 -11.31491
vt 6.142914 -11.31491
vt -67.56556 -11.31491
vt 6.142914 11.83814
vt -67.56556 11.83814
usemtl Mat_TestMaterial
f 3/3/3 2/2/2 1/1/1
f 3/3/3 4/4/4 2/2/2
f 7/7/7 6/6/6 5/5/5
f 7/7/7 8/8/8 6/6/6
f 11/11/11 10/10/10 9/9/9
f 11/11/11 12/12/12 10/10/10
f 15/15/15 14/14/14 13/13/13
f 15/15/15 16/16/16 14/14/14
f 19/19/19 18/18/18 17/17/17
f 19/19/19 20/20/20 18/18/18
f 23/23/23 22/22/22 21/21/21
f 23/23/23 24/24/24 22/22/22
g Cylinder (01)
v -16.71915 -9.536743E-07 -15.16
v -16.71915 13.62118 -15.16
v -16.15705 -9.536743E-07 -13.87725
v -16.15705 13.62118 -13.87725
v -16.15705 -9.536743E-07 -13.87725
v -16.15705 13.62118 -13.87725
v -14.8 -9.536743E-07 -13.34591
v -14.8 13.62118 -13.34591
v -14.8 -9.536743E-07 -13.34591
v -14.8 13.62118 -13.34591
v -13.44296 -9.536743E-07 -13.87725
v -13.44296 13.62118 -13.87725
v -13.44296 -9.536743E-07 -13.87725
v -13.44296 13.62118 -13.87725
v -12.88085 -9.536743E-07 -15.16
v -12.88085 13.62118 -15.16
v -12.88085 -9.536743E-07 -15.16
v -12.88085 13.62118 -15.16
v -13.44296 -9.536743E-07 -16.44275
v -13.44296 13.62118 -16.44275
v -13.44296 -9.536743E-07 -16.44275
v -13.44296 13.62118 -16.44275
v -14.8 -9.536743E-07 -16.97408
v -14.8 13.62118 -16.97408
v -14.8 -9.536743E-07 -16.97408
v -14.8 13.62118 -16.97408
v -16.15705 -9.536743E-07 -16.44275
v -16.15705 13.62118 -16.44275
v -16.15705 -9.536743E-07 -16.44275
v -16.15705 13.62118 -16.44275
v -16.71915 -9.536743E-07 -15.16
v -16.71915 13.62118 -15.16
v -16.15705 -9.536743E-07 -13.87725
v -14.8 -9.536743E-07 -15.16
v -16.71915 -9.536743E-07 -15.16
v -14.8 -9.536743E-07 -13.34591
v -13.44296 -9.536743E-07 -13.87725
v -12.88085 -9.536743E-07 -15.16
v -13.44296 -9.536743E-07 -16.44275
v -14.8 -9.536743E-07 -16.97408
v -16.15705 -9.536743E-07 -16.44275
v -16.71915 13.62118 -15.16
v -14.8 13.62118 -15.16
v -16.15705 13.62118 -13.87725
v -14.8 13.62118 -13.34591
v -13.44296 13.62118 -13.87725
v -12.88085 13.62118 -15.16
v -13.44296 13.62118 -16.44275
v -14.8 13.62118 -16.97408
v -16.15705 13.62118 -16.44275
vn -0.5773503 5.837845E-25 -2.817883E-08
vn -0.5773503 5.837845E-25 -2.817883E-08
vn -0.4000415 -8.624403E-18 0.4162933
vn -0.4000415 -8.624403E-18 0.4162933
vn -0.4000415 -8.624403E-18 0.4162933
vn -0.4000415 -8.624403E-18 0.4162933
vn 9.239125E-09 -1.196104E-17 0.5773503
vn 9.239125E-09 -1.196104E-17 0.5773503
vn 9.239125E-09 -1.196104E-17 0.5773503
vn 9.239125E-09 -1.196104E-17 0.5773503
vn 0.4000415 -8.624403E-18 0.4162933
vn 0.4000415 -8.624403E-18 0.4162933
vn 0.4000415 -8.624403E-18 0.4162933
vn 0.4000415 -8.624403E-18 0.4162933
vn 0.5773503 0 0
vn 0.5773503 0 0
vn 0.5773503 0 0
vn 0.5773503 0 0
vn 0.4000415 8.624403E-18 -0.4162933
vn 0.4000415 8.624403E-18 -0.4162933
vn 0.4000415 8.624403E-18 -0.4162933
vn 0.4000415 8.624403E-18 -0.4162933
vn 2.771738E-08 1.196104E-17 -0.5773503
vn 2.771738E-08 1.196104E-17 -0.5773503
vn 2.771738E-08 1.196104E-17 -0.5773503
vn 2.771738E-08 1.196104E-17 -0.5773503
vn -0.4000415 8.624404E-18 -0.4162934
vn -0.4000415 8.624404E-18 -0.4162934
vn -0.4000415 8.624404E-18 -0.4162934
vn -0.4000415 8.624404E-18 -0.4162934
vn -0.5773503 5.837845E-25 -2.817883E-08
vn -0.5773503 5.837845E-25 -2.817883E-08
vn 0 -0.5773503 -1.196104E-17
vn 0 -0.5773503 -1.196104E-17
vn 0 -0.5773503 -1.196104E-17
vn 0 -0.5773503 -1.196104E-17
vn 0 -0.5773503 -1.196104E-17
vn 0 -0.5773503 -1.196104E-17
vn 0 -0.5773503 -1.196104E-17
vn 0 -0.5773503 -1.196104E-17
vn 0 -0.5773503 -1.196104E-17
vn 0 0.5773503 1.196104E-17
vn 0 0.5773503 1.196104E-17
vn 0 0.5773503 1.196104E-17
vn 0 0.5773503 1.196104E-17
vn 0 0.5773503 1.196104E-17
vn 0 0.5773503 1.196104E-17
vn 0 0.5773503 1.196104E-17
vn 0 0.5773503 1.196104E-17
vn 0 0.5773503 1.196104E-17
vt -0.7702695 -6.810591
vt -0.7702695 6.810591
vt 0.630236 -6.810591
vt 0.630236 6.810591
vt -0.7959633 -6.810591
vt -0.7959633 6.810591
vt 0.6613923 -6.810591
vt 0.6613923 6.810591
vt -0.6613922 -6.810591
vt -0.6613922 6.810591
vt 0.7959632 -6.810591
vt 0.7959632 6.810591
vt -0.630236 -6.810591
vt -0.630236 6.810591
vt 0.7702697 -6.810591
vt 0.7702697 6.810591
vt -0.7702694 -6.810591
vt -0.7702694 6.810591
vt 0.6302359 -6.810591
vt 0.6302359 6.810591
vt -0.7959633 -6.810591
vt -0.7959633 6.810591
vt 0.6613923 -6.810591
vt 0.6613923 6.810591
vt -0.6613921 -6.810591
vt -0.6613921 6.810591
vt 0.795963 -6.810591
vt 0.795963 6.810591
vt -0.6302361 -6.810591
vt -0.6302361 6.810591
vt 0.7702697 -6.810591
vt 0.7702697 6.810591
vt -1.357045 1.282752
vt 0 0
vt -1.919151 0
vt 8.388875E-08 1.814085
vt 1.357045 1.282752
vt 1.919151 -1.585923E-07
vt 1.357045 -1.282752
vt -2.288565E-08 -1.814085
vt -1.357044 -1.282752
vt 1.919151 0
vt 0 0
vt 1.357045 1.282752
vt -8.388875E-08 1.814085
vt -1.357045 1.282752
vt -1.919151 -1.585923E-07
vt -1.357045 -1.282752
vt 2.288565E-08 -1.814085
vt 1.357044 -1.282752
usemtl Mat_TestMaterial
f 27/27/27 26/26/26 25/25/25
f 27/27/27 28/28/28 26/26/26
f 31/31/31 30/30/30 29/29/29
f 31/31/31 32/32/32 30/30/30
f 35/35/35 34/34/34 33/33/33
f 35/35/35 36/36/36 34/34/34
f 39/39/39 38/38/38 37/37/37
f 39/39/39 40/40/40 38/38/38
f 43/43/43 42/42/42 41/41/41
f 43/43/43 44/44/44 42/42/42
f 47/47/47 46/46/46 45/45/45
f 47/47/47 48/48/48 46/46/46
f 51/51/51 50/50/50 49/49/49
f 51/51/51 52/52/52 50/50/50
f 55/55/55 54/54/54 53/53/53
f 55/55/55 56/56/56 54/54/54
f 59/59/59 58/58/58 57/57/57
f 57/57/57 58/58/58 60/60/60
f 60/60/60 58/58/58 61/61/61
f 61/61/61 58/58/58 62/62/62
f 62/62/62 58/58/58 63/63/63
f 63/63/63 58/58/58 64/64/64
f 64/64/64 58/58/58 65/65/65
f 65/65/65 58/58/58 59/59/59
f 68/68/68 67/67/67 66/66/66
f 69/69/69 67/67/67 68/68/68
f 70/70/70 67/67/67 69/69/69
f 71/71/71 67/67/67 70/70/70
f 72/72/72 67/67/67 71/71/71
f 73/73/73 67/67/67 72/72/72
f 74/74/74 67/67/67 73/73/73
f 66/66/66 67/67/67 74/74/74
g Cube (02)
v 35.82726 87.06857 -18.9851
v -31.13142 87.06857 -18.9851
v 35.82726 87.06857 -68.57803
v -31.13142 87.06857 -68.57803
v -31.13142 4.84201 -18.9851
v -31.13142 4.84201 -68.57803
v -31.13142 87.06857 -18.9851
v -31.13142 87.06857 -68.57803
v -31.13142 87.06857 -68.57803
v 35.82726 4.84201 -68.57803
v 35.82726 87.06857 -68.57803
v -31.13142 4.84201 -68.57803
v 35.82726 87.06857 -18.9851
v 35.82726 87.06857 -68.57803
v 35.82726 4.84201 -68.57803
v 35.82726 4.84201 -18.9851
v -6.583609 3.814697E-06 -18.9851
v 35.82726 3.814697E-06 -18.9851
v 35.82726 3.814697E-06 -68.57803
v -31.13142 3.814697E-06 -68.57803
v -8.816608 3.814697E-06 -18.9851
v -31.13142 3.814697E-06 -18.9851
v 35.82726 87.06857 -18.9851
v 35.82726 4.84201 -18.9851
v -6.583609 4.84201 -18.9851
v -8.816608 4.84201 -18.9851
v -31.13142 4.84201 -18.9851
v -31.13142 87.06857 -18.9851
v -31.13142 1.666016 -18.9851
v -31.13142 3.814697E-06 -18.9851
v -31.13142 1.666016 -68.57803
v -31.13142 3.814697E-06 -68.57803
v -31.13142 1.666016 -68.57803
v 35.82726 3.814697E-06 -68.57803
v 35.82726 1.666016 -68.57803
v -31.13142 3.814697E-06 -68.57803
v 35.82726 1.666016 -68.57803
v 35.82726 3.814697E-06 -68.57803
v 35.82726 3.814697E-06 -18.9851
v 35.82726 1.666016 -18.9851
v -8.816608 3.814697E-06 -18.9851
v -31.13142 3.814697E-06 -18.9851
v -31.13142 1.666016 -18.9851
v -8.816608 1.666016 -18.9851
v 35.82726 3.814697E-06 -18.9851
v -6.583609 3.814697E-06 -18.9851
v -6.583609 1.666016 -18.9851
v 35.82726 1.666016 -18.9851
v -6.583609 1.666016 -18.9851
v -8.816608 1.666016 -18.9851
v -6.583609 1.666016 -20.58884
v -8.816608 1.666016 -20.58884
v -8.816608 1.666016 -18.9851
v -8.816608 4.84201 -18.9851
v -8.816608 1.666016 -20.58884
v -8.816608 4.84201 -20.58884
v -6.583609 4.84201 -18.9851
v -6.583609 1.666016 -18.9851
v -6.583609 4.84201 -20.58884
v -6.583609 1.666016 -20.58884
v -8.816608 4.84201 -18.9851
v -6.583609 4.84201 -18.9851
v -8.816608 4.84201 -20.58884
v -6.583609 4.84201 -20.58884
v -6.583609 1.666016 -20.58884
v -8.816608 1.666016 -20.58884
v -8.816608 4.84201 -20.58884
v -6.583609 4.84201 -20.58884
vn -9.196972E-26 0.5773503 1.196104E-17
vn -9.196972E-26 0.5773503 1.196104E-17
vn -9.196972E-26 0.5773503 1.196104E-17
vn -9.196972E-26 0.5773503 1.196104E-17
vn -0.5773503 -9.196972E-26 0
vn -0.5773503 -9.196972E-26 0
vn -0.5773503 -9.196972E-26 0
vn -0.5773503 -9.196972E-26 0
vn 4.266707E-33 -2.678473E-08 -0.5773503
vn 4.266707E-33 -2.678473E-08 -0.5773503
vn 4.266707E-33 -2.678473E-08 -0.5773503
vn 4.266707E-33 -2.678473E-08 -0.5773503
vn 0.5773503 9.196972E-26 0
vn 0.5773503 9.196972E-26 0
vn 0.5773503 9.196972E-26 0
vn 0.5773503 9.196972E-26 0
vn 9.196972E-26 -0.5773503 -1.196104E-17
vn 9.196972E-26 -0.5773503 -1.196104E-17
vn 9.196972E-26 -0.5773503 -1.196104E-17
vn 9.196972E-26 -0.5773503 -1.196104E-17
vn 9.196972E-26 -0.5773503 -1.196104E-17
vn 9.196972E-26 -0.5773503 -1.196104E-17
vn 1.905766E-42 -1.196104E-17 0.5773503
vn 1.905766E-42 -1.196104E-17 0.5773503
vn 1.905766E-42 -1.196104E-17 0.5773503
vn 1.905766E-42 -1.196104E-17 0.5773503
vn 1.905766E-42 -1.196104E-17 0.5773503
vn 1.905766E-42 -1.196104E-17 0.5773503
vn -0.5773503 -9.196972E-26 0
vn -0.5773503 -9.196972E-26 0
vn -0.5773503 -9.196972E-26 0
vn -0.5773503 -9.196972E-26 0
vn -2.105847E-31 1.321969E-06 -0.5773503
vn -2.105847E-31 1.321969E-06 -0.5773503
vn -2.105847E-31 1.321969E-06 -0.5773503
vn -2.105847E-31 1.321969E-06 -0.5773503
vn 0.5773503 9.196972E-26 0
vn 0.5773503 9.196972E-26 0
vn 0.5773503 9.196972E-26 0
vn 0.5773503 9.196972E-26 0
vn 1.905766E-42 -1.196104E-17 0.5773503
vn 1.905766E-42 -1.196104E-17 0.5773503
vn 1.905766E-42 -1.196104E-17 0.5773503
vn 1.905766E-42 -1.196104E-17 0.5773503
vn 1.905766E-42 -1.196104E-17 0.5773503
vn 1.905766E-42 -1.196104E-17 0.5773503
vn 1.905766E-42 -1.196104E-17 0.5773503
vn 1.905766E-42 -1.196104E-17 0.5773503
vn -9.196972E-26 0.5773503 1.196104E-17
vn -9.196972E-26 0.5773503 1.196104E-17
vn -9.196972E-26 0.5773503 1.196104E-17
vn -9.196972E-26 0.5773503 1.196104E-17
vn 0.5773503 9.196972E-26 0
vn 0.5773503 9.196972E-26 0
vn 0.5773503 9.196972E-26 0
vn 0.5773503 9.196972E-26 0
vn -0.5773503 -9.196972E-26 0
vn -0.5773503 -9.196972E-26 0
vn -0.5773503 -9.196972E-26 0
vn -0.5773503 -9.196972E-26 0
vn 9.196972E-26 -0.5773503 -1.196104E-17
vn 9.196972E-26 -0.5773503 -1.196104E-17
vn 9.196972E-26 -0.5773503 -1.196104E-17
vn 9.196972E-26 -0.5773503 -1.196104E-17
vn 1.905766E-42 -1.196104E-17 0.5773503
vn 1.905766E-42 -1.196104E-17 0.5773503
vn 1.905766E-42 -1.196104E-17 0.5773503
vn 1.905766E-42 -1.196104E-17 0.5773503
vt -12.47951 24.45782
vt 54.47917 24.45782
vt -12.47951 -25.13511
vt 54.47917 -25.13511
vt 24.45782 -4.468269
vt -25.13511 -4.468269
vt 24.45782 77.75829
vt -25.13511 77.75829
vt 54.47917 77.75827
vt -12.47951 -4.468288
vt -12.47951 77.75827
vt 54.47917 -4.468288
vt -24.45782 77.75829
vt 25.13511 77.75829
vt 25.13511 -4.468269
vt -24.45782 -4.468269
vt -29.93136 24.45782
vt 12.47951 24.45782
vt 12.47951 -25.13511
vt -54.47917 -25.13511
vt -32.16436 24.45782
vt -54.47917 24.45782
vt 12.47951 77.75829
vt 12.47951 -4.468269
vt -29.93136 -4.468269
vt -32.16436 -4.468269
vt -54.47917 -4.468269
vt -54.47917 77.75829
vt 24.45782 -7.644264
vt 24.45782 -9.310276
vt -25.13511 -7.644264
vt -25.13511 -9.310276
vt 54.47917 -7.644283
vt -12.47951 -9.310295
vt -12.47951 -7.644283
vt 54.47917 -9.310295
vt 25.13511 -7.644264
vt 25.13511 -9.310276
vt -24.45782 -9.310276
vt -24.45782 -7.644264
vt -32.16436 -9.310276
vt -54.47917 -9.310276
vt -54.47917 -7.644264
vt -32.16436 -7.644264
vt 12.47951 -9.310276
vt -29.93136 -9.310276
vt -29.93136 -7.644264
vt 12.47951 -7.644264
vt 29.93136 24.45782
vt 32.16436 24.45782
vt 29.93136 22.85408
vt 32.16436 22.85408
vt -24.45782 -7.644264
vt -24.45782 -4.468269
vt -22.85408 -7.644264
vt -22.85408 -4.468269
vt 24.45782 -4.468269
vt 24.45782 -7.644264
vt 22.85408 -4.468269
vt 22.85408 -7.644264
vt -32.16436 24.45782
vt -29.93136 24.45782
vt -32.16436 22.85408
vt -29.93136 22.85408
vt -29.93136 -7.644264
vt -32.16436 -7.644264
vt -32.16436 -4.468269
vt -29.93136 -4.468269
usemtl Mat_TestMaterial
f 77/77/77 76/76/76 75/75/75
f 77/77/77 78/78/78 76/76/76
f 81/81/81 80/80/80 79/79/79
f 81/81/81 82/82/82 80/80/80
f 85/85/85 84/84/84 83/83/83
f 84/84/84 86/86/86 83/83/83
f 89/89/89 88/88/88 87/87/87
f 90/90/90 89/89/89 87/87/87
f 93/93/93 92/92/92 91/91/91
f 93/93/93 91/91/91 94/94/94
f 94/94/94 91/91/91 95/95/95
f 96/96/96 94/94/94 95/95/95
f 99/99/99 98/98/98 97/97/97
f 102/102/102 101/101/101 100/100/100
f 102/102/102 100/100/100 99/99/99
f 97/97/97 102/102/102 99/99/99
f 105/105/105 104/104/104 103/103/103
f 105/105/105 106/106/106 104/104/104
f 80/80/80 103/103/103 79/79/79
f 80/80/80 105/105/105 103/103/103
f 109/109/109 108/108/108 107/107/107
f 108/108/108 110/110/110 107/107/107
f 84/84/84 109/109/109 86/86/86
f 109/109/109 107/107/107 86/86/86
f 113/113/113 112/112/112 111/111/111
f 114/114/114 113/113/113 111/111/111
f 114/114/114 111/111/111 89/89/89
f 90/90/90 114/114/114 89/89/89
f 117/117/117 116/116/116 115/115/115
f 117/117/117 115/115/115 118/118/118
f 101/101/101 117/117/117 118/118/118
f 101/101/101 118/118/118 100/100/100
f 121/121/121 120/120/120 119/119/119
f 121/121/121 119/119/119 122/122/122
f 99/99/99 121/121/121 122/122/122
f 99/99/99 122/122/122 98/98/98
f 118/118/118 115/115/115 120/120/120
f 118/118/118 120/120/120 121/121/121
f 125/125/125 124/124/124 123/123/123
f 125/125/125 126/126/126 124/124/124
f 129/129/129 128/128/128 127/127/127
f 129/129/129 130/130/130 128/128/128
f 133/133/133 132/132/132 131/131/131
f 133/133/133 134/134/134 132/132/132
f 137/137/137 136/136/136 135/135/135
f 137/137/137 138/138/138 136/136/136
usemtl Sprites-Mask
f 141/141/141 140/140/140 139/139/139
f 141/141/141 139/139/139 142/142/142
g Cube
v -1.487785 1.907349E-06 -8.317716
v -14.19012 1.907349E-06 -8.317716
v -1.487785 1.666429 -13.06747
v -14.19012 1.666429 -13.06747
v -14.19012 1.907349E-06 -8.317716
v -14.19012 1.907349E-06 -19.05853
v -14.19012 1.666429 -13.06747
v -14.19012 1.666429 -19.05853
v -14.19012 1.907349E-06 -19.05853
v -1.487785 1.907349E-06 -19.05853
v -14.19012 1.666429 -19.05853
v -1.487785 1.666429 -19.05853
v -1.487785 1.907349E-06 -19.05853
v -1.487785 1.907349E-06 -8.317716
v -1.487785 1.666429 -19.05853
v -1.487785 1.666429 -13.06747
v -1.487785 1.666429 -13.06747
v -14.19012 1.666429 -13.06747
v -1.487785 1.666429 -19.05853
v -14.19012 1.666429 -19.05853
v -1.487785 1.907349E-06 -19.05853
v -14.19012 1.907349E-06 -19.05853
v -1.487785 1.907349E-06 -8.317716
v -14.19012 1.907349E-06 -8.317716
vn 0 0.5447932 0.1911379
vn 0 0.5447932 0.1911379
vn 0 0.5447932 0.1911379
vn 0 0.5447932 0.1911379
vn -0.5773503 -7.305619E-08 -2.56314E-08
vn -0.5773503 -1.191306E-07 -1.28157E-08
vn -0.5773503 -1.191306E-07 -1.28157E-08
vn -0.5773503 -1.65205E-07 -3.668287E-24
vn 0 1.281975E-17 -0.5773503
vn 0 1.281975E-17 -0.5773503
vn 0 1.281975E-17 -0.5773503
vn 0 1.281975E-17 -0.5773503
vn 0.5773503 0 0
vn 0.5773503 0 0
vn 0.5773503 0 0
vn 0.5773503 0 0
vn 0 0.5773503 1.281975E-17
vn 0 0.5773503 1.281975E-17
vn 0 0.5773503 1.281975E-17
vn 0 0.5773503 1.281975E-17
vn 0 -0.5773503 -1.281975E-17
vn 0 -0.5773503 -1.281975E-17
vn 0 -0.5773503 -1.281975E-17
vn 0 -0.5773503 -1.281975E-17
vt -6.35117 8.074496
vt 6.35117 8.074496
vt -6.35117 3.040895
vt 6.35117 3.040895
vt 7.745285 -2.313692
vt -2.99553 -2.313692
vt 2.99553 -0.6472647
vt -2.99553 -0.6472647
vt 6.35117 -2.313693
vt -6.35117 -2.313693
vt 6.35117 -0.6472654
vt -6.35117 -0.6472654
vt 2.99553 -2.313693
vt -7.745284 -2.313693
vt 2.99553 -0.6472654
vt -2.99553 -0.6472654
vt -6.35117 2.99553
vt 6.35117 2.99553
vt -6.35117 -2.99553
vt 6.35117 -2.99553
vt 6.35117 -2.99553
vt -6.35117 -2.99553
vt 6.35117 7.745284
vt -6.35117 7.745284
usemtl Mat_TestMaterial
f 145/145/145 144/144/144 143/143/143
f 145/145/145 146/146/146 144/144/144
f 149/149/149 148/148/148 147/147/147
f 149/149/149 150/150/150 148/148/148
f 153/153/153 152/152/152 151/151/151
f 153/153/153 154/154/154 152/152/152
f 157/157/157 156/156/156 155/155/155
f 157/157/157 158/158/158 156/156/156
f 161/161/161 160/160/160 159/159/159
f 161/161/161 162/162/162 160/160/160
f 165/165/165 164/164/164 163/163/163
f 165/165/165 166/166/166 164/164/164
g Cylinder
v -3.235616 -9.536743E-07 -15.16
v -3.235616 13.62118 -15.16
v -2.67351 -9.536743E-07 -13.87725
v -2.67351 13.62118 -13.87725
v -2.67351 -9.536743E-07 -13.87725
v -2.67351 13.62118 -13.87725
v -1.316465 -9.536743E-07 -13.34591
v -1.316465 13.62118 -13.34591
v -1.316465 -9.536743E-07 -13.34591
v -1.316465 13.62118 -13.34591
v 0.04057968 -9.536743E-07 -13.87725
v 0.04057968 13.62118 -13.87725
v 0.04057968 -9.536743E-07 -13.87725
v 0.04057968 13.62118 -13.87725
v 0.6026859 -9.536743E-07 -15.16
v 0.6026859 13.62118 -15.16
v 0.6026859 -9.536743E-07 -15.16
v 0.6026859 13.62118 -15.16
v 0.0405798 -9.536743E-07 -16.44275
v 0.0405798 13.62118 -16.44275
v 0.0405798 -9.536743E-07 -16.44275
v 0.0405798 13.62118 -16.44275
v -1.316465 -9.536743E-07 -16.97408
v -1.316465 13.62118 -16.97408
v -1.316465 -9.536743E-07 -16.97408
v -1.316465 13.62118 -16.97408
v -2.673509 -9.536743E-07 -16.44275
v -2.673509 13.62118 -16.44275
v -2.673509 -9.536743E-07 -16.44275
v -2.673509 13.62118 -16.44275
v -3.235616 -9.536743E-07 -15.16
v -3.235616 13.62118 -15.16
v -2.67351 -9.536743E-07 -13.87725
v -1.316465 -9.536743E-07 -15.16
v -3.235616 -9.536743E-07 -15.16
v -1.316465 -9.536743E-07 -13.34591
v 0.04057968 -9.536743E-07 -13.87725
v 0.6026859 -9.536743E-07 -15.16
v 0.0405798 -9.536743E-07 -16.44275
v -1.316465 -9.536743E-07 -16.97408
v -2.673509 -9.536743E-07 -16.44275
v -3.235616 13.62118 -15.16
v -1.316465 13.62118 -15.16
v -2.67351 13.62118 -13.87725
v -1.316465 13.62118 -13.34591
v 0.04057968 13.62118 -13.87725
v 0.6026859 13.62118 -15.16
v 0.0405798 13.62118 -16.44275
v -1.316465 13.62118 -16.97408
v -2.673509 13.62118 -16.44275
vn -0.5773503 5.837845E-25 -2.817883E-08
vn -0.5773503 5.837845E-25 -2.817883E-08
vn -0.4000415 -8.624403E-18 0.4162933
vn -0.4000415 -8.624403E-18 0.4162933
vn -0.4000415 -8.624403E-18 0.4162933
vn -0.4000415 -8.624403E-18 0.4162933
vn 9.239125E-09 -1.196104E-17 0.5773503
vn 9.239125E-09 -1.196104E-17 0.5773503
vn 9.239125E-09 -1.196104E-17 0.5773503
vn 9.239125E-09 -1.196104E-17 0.5773503
vn 0.4000415 -8.624403E-18 0.4162933
vn 0.4000415 -8.624403E-18 0.4162933
vn 0.4000415 -8.624403E-18 0.4162933
vn 0.4000415 -8.624403E-18 0.4162933
vn 0.5773503 0 0
vn 0.5773503 0 0
vn 0.5773503 0 0
vn 0.5773503 0 0
vn 0.4000415 8.624403E-18 -0.4162933
vn 0.4000415 8.624403E-18 -0.4162933
vn 0.4000415 8.624403E-18 -0.4162933
vn 0.4000415 8.624403E-18 -0.4162933
vn 2.771738E-08 1.196104E-17 -0.5773503
vn 2.771738E-08 1.196104E-17 -0.5773503
vn 2.771738E-08 1.196104E-17 -0.5773503
vn 2.771738E-08 1.196104E-17 -0.5773503
vn -0.4000415 8.624404E-18 -0.4162934
vn -0.4000415 8.624404E-18 -0.4162934
vn -0.4000415 8.624404E-18 -0.4162934
vn -0.4000415 8.624404E-18 -0.4162934
vn -0.5773503 5.837845E-25 -2.817883E-08
vn -0.5773503 5.837845E-25 -2.817883E-08
vn 0 -0.5773503 -1.196104E-17
vn 0 -0.5773503 -1.196104E-17
vn 0 -0.5773503 -1.196104E-17
vn 0 -0.5773503 -1.196104E-17
vn 0 -0.5773503 -1.196104E-17
vn 0 -0.5773503 -1.196104E-17
vn 0 -0.5773503 -1.196104E-17
vn 0 -0.5773503 -1.196104E-17
vn 0 -0.5773503 -1.196104E-17
vn 0 0.5773503 1.196104E-17
vn 0 0.5773503 1.196104E-17
vn 0 0.5773503 1.196104E-17
vn 0 0.5773503 1.196104E-17
vn 0 0.5773503 1.196104E-17
vn 0 0.5773503 1.196104E-17
vn 0 0.5773503 1.196104E-17
vn 0 0.5773503 1.196104E-17
vn 0 0.5773503 1.196104E-17
vt -0.7702695 -6.810591
vt -0.7702695 6.810591
vt 0.630236 -6.810591
vt 0.630236 6.810591
vt -0.7959633 -6.810591
vt -0.7959633 6.810591
vt 0.6613923 -6.810591
vt 0.6613923 6.810591
vt -0.6613922 -6.810591
vt -0.6613922 6.810591
vt 0.7959632 -6.810591
vt 0.7959632 6.810591
vt -0.630236 -6.810591
vt -0.630236 6.810591
vt 0.7702697 -6.810591
vt 0.7702697 6.810591
vt -0.7702694 -6.810591
vt -0.7702694 6.810591
vt 0.6302359 -6.810591
vt 0.6302359 6.810591
vt -0.7959633 -6.810591
vt -0.7959633 6.810591
vt 0.6613923 -6.810591
vt 0.6613923 6.810591
vt -0.6613921 -6.810591
vt -0.6613921 6.810591
vt 0.795963 -6.810591
vt 0.795963 6.810591
vt -0.6302361 -6.810591
vt -0.6302361 6.810591
vt 0.7702697 -6.810591
vt 0.7702697 6.810591
vt -1.357045 1.282752
vt 0 0
vt -1.919151 0
vt 8.388875E-08 1.814085
vt 1.357045 1.282752
vt 1.919151 -1.585923E-07
vt 1.357045 -1.282752
vt -2.288565E-08 -1.814085
vt -1.357044 -1.282752
vt 1.919151 0
vt 0 0
vt 1.357045 1.282752
vt -8.388875E-08 1.814085
vt -1.357045 1.282752
vt -1.919151 -1.585923E-07
vt -1.357045 -1.282752
vt 2.288565E-08 -1.814085
vt 1.357044 -1.282752
usemtl Mat_TestMaterial
f 169/169/169 168/168/168 167/167/167
f 169/169/169 170/170/170 168/168/168
f 173/173/173 172/172/172 171/171/171
f 173/173/173 174/174/174 172/172/172
f 177/177/177 176/176/176 175/175/175
f 177/177/177 178/178/178 176/176/176
f 181/181/181 180/180/180 179/179/179
f 181/181/181 182/182/182 180/180/180
f 185/185/185 184/184/184 183/183/183
f 185/185/185 186/186/186 184/184/184
f 189/189/189 188/188/188 187/187/187
f 189/189/189 190/190/190 188/188/188
f 193/193/193 192/192/192 191/191/191
f 193/193/193 194/194/194 192/192/192
f 197/197/197 196/196/196 195/195/195
f 197/197/197 198/198/198 196/196/196
f 201/201/201 200/200/200 199/199/199
f 199/199/199 200/200/200 202/202/202
f 202/202/202 200/200/200 203/203/203
f 203/203/203 200/200/200 204/204/204
f 204/204/204 200/200/200 205/205/205
f 205/205/205 200/200/200 206/206/206
f 206/206/206 200/200/200 207/207/207
f 207/207/207 200/200/200 201/201/201
f 210/210/210 209/209/209 208/208/208
f 211/211/211 209/209/209 210/210/210
f 212/212/212 209/209/209 211/211/211
f 213/213/213 209/209/209 212/212/212
f 214/214/214 209/209/209 213/213/213
f 215/215/215 209/209/209 214/214/214
f 216/216/216 209/209/209 215/215/215
f 208/208/208 209/209/209 216/216/216
