# ProBuilder 5.0.7
# https://unity3d.com/unity/features/worldbuilding/probuilder
# 2/27/2025 7:01:55 PM

mtllib ./TelescopeTable.mtl
o TelescopeTable

g TelescopeTable
v 1.340864 2.11242 1.424587 0.8823529 0.8458824 0.6635294
v -1.340866 2.11242 1.424587 0.8823529 0.8458824 0.6635294
v 1.340864 2.11242 -1.424587 0.8823529 0.8458824 0.6635294
v -1.340866 2.11242 -1.424587 0.8823529 0.8458824 0.6635294
v 0.3698797 -1.192093E-07 -0.3929758 0.7780001 0.6752636 0.5850561
v -0.3698797 -1.192093E-07 -0.3929758 0.7780001 0.6752636 0.5850561
v 0.3698797 -1.192093E-07 0.3929758 0.7780001 0.6752636 0.5850561
v -0.3698797 -1.192093E-07 0.3929758 0.7780001 0.6752636 0.5850561
v 1.713217 1.765562 1.739731 0.7780001 0.6752636 0.5850561
v -1.713219 1.765562 1.739731 0.7780001 0.6752636 0.5850561
v 1.713217 2.112419 1.739731 0.7780001 0.6752636 0.5850561
v -1.713219 2.112419 1.739731 0.7780001 0.6752636 0.5850561
v 1.713217 1.765562 -1.739731 0.7780001 0.6752636 0.5850561
v 1.713217 2.112419 -1.739731 0.7780001 0.6752636 0.5850561
v -1.713219 1.765562 -1.739731 0.7780001 0.6752636 0.5850561
v -1.713219 2.112419 -1.739731 0.7780001 0.6752636 0.5850561
v -0.3698788 1.765562 0.3929749 0.7780001 0.6752636 0.5850561
v -0.3698788 1.765562 -0.3929749 0.7780001 0.6752636 0.5850561
v -1.713219 2.112419 1.739731 0.8823529 0.8458824 0.6635294
v 1.713217 2.112419 1.739731 0.8823529 0.8458824 0.6635294
v -1.713219 2.112419 -1.739731 0.8823529 0.8458824 0.6635294
v 0.3698788 1.765562 -0.3929749 0.7780001 0.6752636 0.5850561
v 1.713217 2.112419 -1.739731 0.8823529 0.8458824 0.6635294
v 0.3698788 1.765562 0.3929749 0.7780001 0.6752636 0.5850561
v 0.3698797 -1.192093E-07 0.3929758 0.8041647 0.867541 0.9372549
v -0.3698797 -1.192093E-07 0.3929758 0.8041647 0.867541 0.9372549
v -0.3698788 0.8070707 0.3929749 0.8041647 0.867541 0.9372549
v 0.3698788 0.8070707 0.3929749 0.8041647 0.867541 0.9372549
v -0.3698797 -1.192093E-07 -0.3929758 0.8041647 0.867541 0.9372549
v -0.3698788 0.8070707 -0.3929749 0.8041647 0.867541 0.9372549
v 0.3698797 -1.192093E-07 -0.3929758 0.8041647 0.867541 0.9372549
v 0.3698788 0.8070707 -0.3929749 0.8041647 0.867541 0.9372549
v -0.8065147 0.8070707 0.7903633 0.5544157 0.6458353 0.7372549
v -0.8065147 0.8070707 -0.7903633 0.5544157 0.6458353 0.7372549
v -0.8065147 1.765562 -0.7903633 0.5544157 0.6458353 0.7372549
v -0.8065147 1.765562 0.7903633 0.5544157 0.6458353 0.7372549
v 0.8065147 0.8070707 0.7903633 0.5544157 0.6458353 0.7372549
v 0.8065147 1.765562 0.7903633 0.5544157 0.6458353 0.7372549
v 0.8065147 1.765562 -0.7903633 0.5544157 0.6458353 0.7372549
v 0.8065147 0.8070707 -0.7903633 0.5544157 0.6458353 0.7372549

vt -1.340864 1.424587
vt 1.340866 1.424587
vt -1.340864 -1.424587
vt 1.340866 -1.424587
vt 0.3698797 -0.3929758
vt -0.3698797 -0.3929758
vt 0.3698797 0.3929758
vt -0.3698797 0.3929758
vt 1.713217 1.659651
vt -1.713219 1.659651
vt 1.713217 2.263941
vt -1.713219 2.263941
vt 1.739731 1.659651
vt -1.739731 1.659651
vt 1.739731 2.263941
vt -1.739731 2.263941
vt -1.713219 1.739731
vt -1.713219 -1.739731
vt 5.882647 2.273182
vt 8.564377 2.273181
vt 5.510294 1.958037
vt 8.936729 1.958036
vt 4.271891 2.296629
vt 7.121063 2.296628
vt 3.956747 1.924276
vt 7.436208 1.924276
vt 1.713217 -1.739731
vt 1.88735 2.260427
vt 4.569079 2.260426
vt 1.514995 1.945283
vt 4.941432 1.945283
vt 1.713217 1.739731
vt 7.325961 2.296628
vt 10.17513 2.296628
vt 7.010816 1.924276
vt 10.49028 1.924275
vt -2.694444 2.328599
vt -1.954685 2.328599
vt -1.954685 1.370107
vt -2.694444 1.370107
vt -2.71754 2.328599
vt -1.931589 2.328599
vt -1.931589 1.370107
vt -2.71754 1.370107
vt -8.012209 2.365852
vt -5.64112 2.365852
vt -5.64112 0.9281147
vt -8.012209 0.9281147
vt -8.036436 2.365852
vt -5.616892 2.365852
vt -8.036436 0.9281147
vt -5.616892 0.9281147

vn 0 1 0
vn 0 -1 0
vn 0 0 1
vn 1 0 0
vn -1 0 0
vn 0 0 -1

usemtl WhiteSeam
f 7/7/2 8/8/2 6/6/2 5/5/2
f 11/11/3 12/12/3 10/10/3 9/9/3
f 14/15/4 11/16/4 9/14/4 13/13/4
f 12/15/5 16/16/5 15/14/5 10/13/5
f 16/11/6 14/12/6 13/10/6 15/9/6
f 10/17/2 15/18/2 18/6/2 17/8/2
f 19/21/1 20/22/1 1/20/1 2/19/1
f 21/25/1 19/26/1 2/24/1 4/23/1
f 15/18/2 13/27/2 22/5/2 18/6/2
f 23/30/1 21/31/1 4/29/1 3/28/1
f 13/27/2 9/32/2 24/7/2 22/5/2
f 20/35/1 23/36/1 3/34/1 1/33/1
f 9/32/2 10/17/2 17/8/2 24/7/2
f 28/40/3 27/39/3 26/38/3 25/37/3
f 27/44/5 30/43/5 29/42/5 26/41/5
f 31/38/6 29/37/6 30/40/6 32/39/6
f 31/41/4 32/44/4 28/43/4 25/42/4

usemtl PlasticPlanks
f 3/3/1 4/4/1 2/2/1 1/1/1

usemtl Mat_Rivets
f 36/48/5 35/47/5 34/46/5 33/45/5
f 38/51/3 36/52/3 33/50/3 37/49/3
f 40/45/4 39/48/4 38/47/4 37/46/4
f 40/50/6 34/49/6 35/51/6 39/52/6

