# ProBuilder 5.0.7
# https://unity3d.com/unity/features/worldbuilding/probuilder
# 2/13/2025 7:53:27 PM

mtllib ./Pf_ConcreteSquare_(03).mtl
o Pf_ConcreteSquare (03)

g Pf_ConcreteSquare (03)
v 1.24302 1.163764E-10 -3.924341 0.816 0.476609 0.45696
v 1.24302 1.163766E-10 2.830599 0.816 0.476609 0.45696
v -7.750823 1.163764E-10 -3.924342 0.816 0.476609 0.45696
v -7.750823 1.163766E-10 2.830598 0.816 0.476609 0.45696
v 1.862777 1.163764E-10 -4.482213 0.816 0.476609 0.45696
v 1.862777 1.163766E-10 3.388472 0.816 0.476609 0.45696
v -8.370582 1.163764E-10 -4.482214 0.816 0.476609 0.45696
v -8.370581 1.163766E-10 3.388471 0.816 0.476609 0.45696
v -8.419976 1.163764E-10 -4.544199 0.816 0.476609 0.45696
v 1.912172 1.163764E-10 -4.544199 0.816 0.476609 0.45696
v -8.419975 1.163766E-10 3.450457 0.816 0.476609 0.45696
v 1.912172 1.163766E-10 3.450457 0.816 0.476609 0.45696

vt -0.07514668 -1.100149
vt -0.07514668 2.509474
vt 4.554194 -1.100149
vt 4.554194 2.509474
vt 1.924562 3.537249
vt 6.599817 3.537249
vt 2.482435 2.835694
vt 6.041944 2.835694
vt 4.039914 3.701147
vt 7.765469 3.701147
vt 4.484464 2.820754
vt 7.320919 2.820754
vt 4.039915 3.7028
vt 7.765469 3.7028
vt 4.484465 2.822407
vt 7.320919 2.822407
vt 5.205567 3.537249
vt 9.880821 3.537249
vt 5.76344 2.835694
vt 9.322948 2.835694
vt 8.370582 -4.482214
vt -1.862777 -4.482213
vt 8.419976 -4.544199
vt -1.912172 -4.544199
vt 8.370581 3.388471
vt 8.419975 3.450457
vt -1.862777 3.388472
vt -1.912172 3.450457

vn 2.287404E-24 1 -2.157188E-17

usemtl Mat_Concrete_Seam_1
f 3/3/1 4/4/1 2/2/1 1/1/1
f 1/7/1 2/8/1 6/6/1 5/5/1
f 3/11/1 1/12/1 5/10/1 7/9/1
f 2/15/1 4/16/1 8/14/1 6/13/1
f 4/19/1 3/20/1 7/18/1 8/17/1
f 10/24/1 9/23/1 7/21/1 5/22/1
f 9/23/1 11/26/1 8/25/1 7/21/1
f 11/26/1 12/28/1 6/27/1 8/25/1
f 12/28/1 10/24/1 5/22/1 6/27/1

