# ProBuilder 5.0.7
# https://unity3d.com/unity/features/worldbuilding/probuilder
# 2/13/2025 7:53:34 PM

mtllib ./Pf_ConcreteSquare_(04).mtl
o Pf_ConcreteSquare (04)

g Pf_ConcreteSquare (04)
v 5.874663 1.163767E-10 -3.924344 0.5544157 0.6458353 0.7372549
v 5.874664 1.163767E-10 -1.521591 0.5544157 0.6458353 0.7372549
v -7.547832 1.163767E-10 -3.924343 0.5544157 0.6458353 0.7372549
v -7.547834 1.163767E-10 -1.52159 0.5544157 0.6458353 0.7372549
v 6.697413 1.163767E-10 -4.482215 0.5544157 0.6458353 0.7372549
v 6.697413 1.163767E-10 -0.9637178 0.5544157 0.6458353 0.7372549
v -8.370582 1.163764E-10 -4.482214 0.5544157 0.6458353 0.7372549
v -8.370583 1.163767E-10 -0.9637172 0.5544157 0.6458353 0.7372549
v -8.419976 1.163764E-10 -4.544199 0.5544157 0.6458353 0.7372549
v 6.746808 1.163767E-10 -4.5442 0.5544157 0.6458353 0.7372549
v -8.419977 1.163767E-10 -0.9017311 0.5544157 0.6458353 0.7372549
v 6.746808 1.163767E-10 -0.9017321 0.5544157 0.6458353 0.7372549

vt -3.095068 -1.100149
vt -3.095068 2.509474
vt 7.574116 -1.100149
vt 7.574116 2.509474
vt 1.924562 3.537249
vt 6.599817 3.537249
vt 2.482435 2.835694
vt 6.041944 2.835694
vt 4.039914 3.701147
vt 7.765469 3.701147
vt 4.484464 2.820754
vt 7.320919 2.820754
vt 4.039915 3.7028
vt 7.765469 3.7028
vt 4.484465 2.822407
vt 7.320919 2.822407
vt 5.205567 3.537249
vt 9.880821 3.537249
vt 5.76344 2.835694
vt 9.322948 2.835694
vt 8.370582 -4.482214
vt -6.697413 -4.482215
vt 8.419976 -4.544199
vt -6.746808 -4.5442
vt 8.370583 -0.9637172
vt 8.419977 -0.9017311
vt -6.697413 -0.9637178
vt -6.746808 -0.9017321

vn 0 1 0

usemtl Mat_Concrete_Seam_1
f 3/3/1 4/4/1 2/2/1 1/1/1
f 1/7/1 2/8/1 6/6/1 5/5/1
f 3/11/1 1/12/1 5/10/1 7/9/1
f 2/15/1 4/16/1 8/14/1 6/13/1
f 4/19/1 3/20/1 7/18/1 8/17/1
f 10/24/1 9/23/1 7/21/1 5/22/1
f 9/23/1 11/26/1 8/25/1 7/21/1
f 11/26/1 12/28/1 6/27/1 8/25/1
f 12/28/1 10/24/1 5/22/1 6/27/1

