# ProBuilder 5.0.7
# https://unity3d.com/unity/features/worldbuilding/probuilder
# 2/13/2025 7:56:33 PM

mtllib ./Rugs.mtl
o Rugs

g Pf_ConcreteSquare (05)
v -4.14176 0.001 -0.7285497 0.239 0.6 0.439
v -5.870677 0.001 -0.7767496 0.239 0.6 0.439
v -4.111224 0.001 -1.82385 0.239 0.6 0.439
v -5.840141 0.001 -1.87205 0.239 0.6 0.439
v -3.876811 0.001 -0.5050696 0.239 0.6 0.439
v -6.147665 0.001 -0.5683781 0.239 0.6 0.439
v -3.834236 0.001 -2.032222 0.239 0.6 0.439
v -6.10509 0.001 -2.09553 0.239 0.6 0.439
v -3.80346 0.001 -2.055374 0.239 0.6 0.439
v -3.847373 0.001 -0.4802386 0.239 0.6 0.439
v -6.134528 0.001 -2.120362 0.239 0.6 0.439
v -6.178441 0.001 -0.5452259 0.239 0.6 0.439

vt -1.418227 -1.779755
vt -1.418227 1.779755
vt 0.8367881 -1.779755
vt 0.8367881 1.779755
vt 1.924562 3.537249
vt 6.599817 3.537249
vt 2.482435 2.835694
vt 6.041944 2.835694
vt 4.039914 3.701147
vt 7.765469 3.701147
vt 4.484464 2.820754
vt 7.320919 2.820754
vt 4.039915 3.7028
vt 7.765469 3.7028
vt 4.484465 2.822407
vt 7.320919 2.822407
vt 5.205567 3.537249
vt 9.880821 3.537249
vt 5.76344 2.835694
vt 9.322948 2.835694
vt 1.281337 -2.337628
vt -1.862777 -2.337627
vt 1.330733 -2.399613
vt -1.912171 -2.399612
vt 1.281337 2.337627
vt 1.330733 2.399612
vt -1.862777 2.337627
vt -1.912171 2.399612

vn -4.035166E-13 0.4859063 1.447399E-11

usemtl Mat_Concrete_Seam_1
f 3/3/1 4/4/1 2/2/1 1/1/1
f 1/7/1 2/8/1 6/6/1 5/5/1
f 3/11/1 1/12/1 5/10/1 7/9/1
f 2/15/1 4/16/1 8/14/1 6/13/1
f 4/19/1 3/20/1 7/18/1 8/17/1
f 10/24/1 9/23/1 7/21/1 5/22/1
f 9/23/1 11/26/1 8/25/1 7/21/1
f 11/26/1 12/28/1 6/27/1 8/25/1
f 12/28/1 10/24/1 5/22/1 6/27/1

g Pf_ConcreteSquare (02)
v 12.0736 0.001 3.379781 1 0.6509804 0.8313073
v 11.8756 0.001 5.097999 1 0.6509804 0.8313073
v 10.98507 0.001 3.254344 1 0.6509804 0.8313073
v 10.78707 0.001 4.972561 1 0.6509804 0.8313073
v 12.31922 0.001 3.135218 1 0.6509804 0.8313073
v 12.05915 0.001 5.392019 1 0.6509804 0.8313073
v 10.80152 0.001 2.960324 1 0.6509804 0.8313073
v 10.54145 0.001 5.217125 1 0.6509804 0.8313073
v 10.78112 0.001 2.927655 1 0.6509804 0.8313073
v 12.34651 0.001 3.108044 1 0.6509804 0.8313073
v 10.51416 0.001 5.244298 1 0.6509804 0.8313073
v 12.07955 0.001 5.424687 1 0.6509804 0.8313073

vt -1.418227 -1.779755
vt -1.418227 1.779755
vt 0.8367881 -1.779755
vt 0.8367881 1.779755
vt 1.924562 3.537249
vt 6.599817 3.537249
vt 2.482435 2.835694
vt 6.041944 2.835694
vt 4.039914 3.701147
vt 7.765469 3.701147
vt 4.484464 2.820754
vt 7.320919 2.820754
vt 4.039915 3.7028
vt 7.765469 3.7028
vt 4.484465 2.822407
vt 7.320919 2.822407
vt 5.205567 3.537249
vt 9.880821 3.537249
vt 5.76344 2.835694
vt 9.322948 2.835694
vt 1.281337 -2.337628
vt -1.862777 -2.337627
vt 1.330733 -2.399613
vt -1.912171 -2.399612
vt 1.281337 2.337627
vt 1.330733 2.399612
vt -1.862777 2.337627
vt -1.912171 2.399612

vn 1.438442E-11 0.4859063 1.657613E-12

usemtl Mat_Concrete_Seam_1
f 15/31/2 16/32/2 14/30/2 13/29/2
f 13/35/2 14/36/2 18/34/2 17/33/2
f 15/39/2 13/40/2 17/38/2 19/37/2
f 14/43/2 16/44/2 20/42/2 18/41/2
f 16/47/2 15/48/2 19/46/2 20/45/2
f 22/52/2 21/51/2 19/49/2 17/50/2
f 21/51/2 23/54/2 20/53/2 19/49/2
f 23/54/2 24/56/2 18/55/2 20/53/2
f 24/56/2 22/52/2 17/50/2 18/55/2

g Pf_ConcreteSquare (04)
v -0.1331368 0.001 5.494536 0.5544157 0.6458353 0.7372549
v -1.30065 0.001 5.494537 0.5544157 0.6458353 0.7372549
v -0.1331365 0.001 -1.027539 0.5544157 0.6458353 0.7372549
v -1.300649 0.001 -1.02754 0.5544157 0.6458353 0.7372549
v 0.1379365 0.001 5.894316 0.5544157 0.6458353 0.7372549
v -1.571724 0.001 5.894316 0.5544157 0.6458353 0.7372549
v 0.1379369 0.001 -1.427318 0.5544157 0.6458353 0.7372549
v -1.571723 0.001 -1.427319 0.5544157 0.6458353 0.7372549
v 0.1680558 0.001 -1.451319 0.5544157 0.6458353 0.7372549
v 0.1680554 0.001 5.918317 0.5544157 0.6458353 0.7372549
v -1.601843 0.001 -1.45132 0.5544157 0.6458353 0.7372549
v -1.601843 0.001 5.918317 0.5544157 0.6458353 0.7372549

vt -3.095068 -1.100149
vt -3.095068 2.509474
vt 7.574116 -1.100149
vt 7.574116 2.509474
vt 1.924562 3.537249
vt 6.599817 3.537249
vt 2.482435 2.835694
vt 6.041944 2.835694
vt 4.039914 3.701147
vt 7.765469 3.701147
vt 4.484464 2.820754
vt 7.320919 2.820754
vt 4.039915 3.7028
vt 7.765469 3.7028
vt 4.484465 2.822407
vt 7.320919 2.822407
vt 5.205567 3.537249
vt 9.880821 3.537249
vt 5.76344 2.835694
vt 9.322948 2.835694
vt 8.370582 -4.482214
vt -6.697413 -4.482215
vt 8.419976 -4.544199
vt -6.746808 -4.5442
vt 8.370583 -0.9637172
vt 8.419977 -0.9017311
vt -6.697413 -0.9637178
vt -6.746808 -0.9017321

vn 0 0.4859063 0

usemtl Mat_Concrete_Seam_1
f 27/59/3 28/60/3 26/58/3 25/57/3
f 25/63/3 26/64/3 30/62/3 29/61/3
f 27/67/3 25/68/3 29/66/3 31/65/3
f 26/71/3 28/72/3 32/70/3 30/69/3
f 28/75/3 27/76/3 31/74/3 32/73/3
f 34/80/3 33/79/3 31/77/3 29/78/3
f 33/79/3 35/82/3 32/81/3 31/77/3
f 35/82/3 36/84/3 30/83/3 32/81/3
f 36/84/3 34/80/3 29/78/3 30/83/3

g Pf_ConcreteSquare (03)
v 6.353991 0.001 -5.496862 0.816 0.476609 0.45696
v 6.353991 0.001 -2.214594 0.816 0.476609 0.45696
v 1.983827 0.001 -5.496862 0.816 0.476609 0.45696
v 1.983827 0.001 -2.214594 0.816 0.476609 0.45696
v 6.655135 0.001 -5.767936 0.816 0.476609 0.45696
v 6.655135 0.001 -1.94352 0.816 0.476609 0.45696
v 1.682682 0.001 -5.767936 0.816 0.476609 0.45696
v 1.682682 0.001 -1.943521 0.816 0.476609 0.45696
v 1.658681 0.001 -5.798055 0.816 0.476609 0.45696
v 6.679136 0.001 -5.798055 0.816 0.476609 0.45696
v 1.658681 0.001 -1.913401 0.816 0.476609 0.45696
v 6.679136 0.001 -1.913401 0.816 0.476609 0.45696

vt -0.07514668 -1.100149
vt -0.07514668 2.509474
vt 4.554194 -1.100149
vt 4.554194 2.509474
vt 1.924562 3.537249
vt 6.599817 3.537249
vt 2.482435 2.835694
vt 6.041944 2.835694
vt 4.039914 3.701147
vt 7.765469 3.701147
vt 4.484464 2.820754
vt 7.320919 2.820754
vt 4.039915 3.7028
vt 7.765469 3.7028
vt 4.484465 2.822407
vt 7.320919 2.822407
vt 5.205567 3.537249
vt 9.880821 3.537249
vt 5.76344 2.835694
vt 9.322948 2.835694
vt 8.370582 -4.482214
vt -1.862777 -4.482213
vt 8.419976 -4.544199
vt -1.912172 -4.544199
vt 8.370581 3.388471
vt 8.419975 3.450457
vt -1.862777 3.388472
vt -1.912172 3.450457

vn 1.111464E-24 0.4859063 3.073741E-19

usemtl Mat_Concrete_Seam_1
f 39/87/4 40/88/4 38/86/4 37/85/4
f 37/91/4 38/92/4 42/90/4 41/89/4
f 39/95/4 37/96/4 41/94/4 43/93/4
f 38/99/4 40/100/4 44/98/4 42/97/4
f 40/103/4 39/104/4 43/102/4 44/101/4
f 46/108/4 45/107/4 43/105/4 41/106/4
f 45/107/4 47/110/4 44/109/4 43/105/4
f 47/110/4 48/112/4 42/111/4 44/109/4
f 48/112/4 46/108/4 41/106/4 42/111/4

g Rug
v 10.37912 0.001 -4.410794 0.5544157 0.6458353 0.7372549
v 10.37912 0.001 -2.681206 0.5544157 0.6458353 0.7372549
v 9.283399 0.001 -4.410794 0.5544157 0.6458353 0.7372549
v 9.283399 0.001 -2.681206 0.5544157 0.6458353 0.7372549
v 10.59513 0.001 -4.681868 0.5544157 0.6458353 0.7372549
v 10.59513 0.001 -2.410132 0.5544157 0.6458353 0.7372549
v 9.067389 0.001 -4.681868 0.5544157 0.6458353 0.7372549
v 9.067389 0.001 -2.410132 0.5544157 0.6458353 0.7372549
v 9.043388 0.001 -4.711987 0.5544157 0.6458353 0.7372549
v 10.61914 0.001 -4.711987 0.5544157 0.6458353 0.7372549
v 9.043388 0.001 -2.380013 0.5544157 0.6458353 0.7372549
v 10.61914 0.001 -2.380013 0.5544157 0.6458353 0.7372549

vt -1.418227 -1.779755
vt -1.418227 1.779755
vt 0.8367881 -1.779755
vt 0.8367881 1.779755
vt 1.924562 3.537249
vt 6.599817 3.537249
vt 2.482435 2.835694
vt 6.041944 2.835694
vt 4.039914 3.701147
vt 7.765469 3.701147
vt 4.484464 2.820754
vt 7.320919 2.820754
vt 4.039915 3.7028
vt 7.765469 3.7028
vt 4.484465 2.822407
vt 7.320919 2.822407
vt 5.205567 3.537249
vt 9.880821 3.537249
vt 5.76344 2.835694
vt 9.322948 2.835694
vt 1.281337 -2.337628
vt -1.862777 -2.337627
vt 1.330733 -2.399613
vt -1.912171 -2.399612
vt 1.281337 2.337627
vt 1.330733 2.399612
vt -1.862777 2.337627
vt -1.912171 2.399612

vn 1.447961E-11 0.4859063 1.078929E-17

usemtl Mat_Concrete_Seam_1
f 51/115/5 52/116/5 50/114/5 49/113/5
f 49/119/5 50/120/5 54/118/5 53/117/5
f 51/123/5 49/124/5 53/122/5 55/121/5
f 50/127/5 52/128/5 56/126/5 54/125/5
f 52/131/5 51/132/5 55/130/5 56/129/5
f 58/136/5 57/135/5 55/133/5 53/134/5
f 57/135/5 59/138/5 56/137/5 55/133/5
f 59/138/5 60/140/5 54/139/5 56/137/5
f 60/140/5 58/136/5 53/134/5 54/139/5

