# Export of vs1
# from Aaro4130 OBJ Exporter v2.0
v -22.93599 -0.6212653 21.53317
v -22.93599 0.6212653 21.53317
v 18.6648 0.6212653 21.53318
v 18.6648 -0.6212653 21.53318
v -22.93599 0.6212653 21.53317
v -22.93599 0.6212653 0.1317919
v 18.6648 0.6212653 0.1317919
v 18.6648 0.6212653 21.53318
v -22.93599 0.6212653 0.1317919
v -22.93599 -0.6212653 0.1317919
v 18.6648 -0.6212653 0.1317919
v 18.6648 0.6212653 0.1317919
v -22.93599 -0.6212653 0.1317919
v -22.93599 -0.6212653 21.53317
v 18.6648 -0.6212653 21.53318
v 18.6648 -0.6212653 0.1317919
v 18.6648 -0.6212653 21.53318
v 18.6648 0.6212653 21.53318
v 18.6648 0.6212653 0.1317919
v 18.6648 -0.6212653 0.1317919
v -22.93599 -0.6212653 0.1317919
v -22.93599 0.6212653 0.1317919
v -22.93599 0.6212653 21.53317
v -22.93599 -0.6212653 21.53317
vn -2.87442E-07 0 0.6843265
vn -2.87442E-07 0 0.6843265
vn -2.87442E-07 0 0.6843265
vn -2.87442E-07 0 0.6843265
vn 0 0.01974388 0
vn 0 0.01974388 0
vn 0 0.01974388 0
vn 0 0.01974388 0
vn 0 0 -0.6843265
vn 0 0 -0.6843265
vn 0 0 -0.6843265
vn 0 0 -0.6843265
vn 0 -0.01974388 0
vn 0 -0.01974388 0
vn 0 -0.01974388 0
vn 0 -0.01974388 0
vn 0.7289084 0 0
vn 0.7289084 0 0
vn 0.7289084 0 0
vn 0.7289084 0 0
vn -0.7289084 0 -4.104022E-08
vn -0.7289084 0 -4.104022E-08
vn -0.7289084 0 -4.104022E-08
vn -0.7289084 0 -4.104022E-08
vt 0 0
vt 0 1
vt 1 1
vt 1 0
vt 0 0
vt 0 1
vt 1 1
vt 1 0
vt 0 0
vt 0 1
vt 1 1
vt 1 0
vt 0 0
vt 0 1
vt 1 1
vt 1 0
vt 0 0
vt 0 1
vt 1 1
vt 1 0
vt 0 0
vt 0 1
vt 1 1
vt 1 0
usemtl grass
f 3/3/3 2/2/2 1/1/1
f 4/4/4 3/3/3 1/1/1
f 7/7/7 6/6/6 5/5/5
f 8/8/8 7/7/7 5/5/5
f 11/11/11 10/10/10 9/9/9
f 12/12/12 11/11/11 9/9/9
f 15/15/15 14/14/14 13/13/13
f 16/16/16 15/15/15 13/13/13
f 19/19/19 18/18/18 17/17/17
f 20/20/20 19/19/19 17/17/17
f 23/23/23 22/22/22 21/21/21
f 24/24/24 23/23/23 21/21/21
