<?xml version="1.0" encoding="UTF-8" standalone="no"?>
<!-- Created with Inkscape (http://www.inkscape.org/) -->

<svg
   width="210mm"
   height="297mm"
   viewBox="0 0 210 297"
   version="1.1"
   id="svg1"
   xml:space="preserve"
   inkscape:version="1.3 (0e150ed6c4, 2023-07-21)"
   sodipodi:docname="chandroid cover line art 1.svg.2023_10_25_05_52_41.0.svg"
   xmlns:inkscape="http://www.inkscape.org/namespaces/inkscape"
   xmlns:sodipodi="http://sodipodi.sourceforge.net/DTD/sodipodi-0.dtd"
   xmlns:xlink="http://www.w3.org/1999/xlink"
   xmlns="http://www.w3.org/2000/svg"
   xmlns:svg="http://www.w3.org/2000/svg"><sodipodi:namedview
     id="namedview1"
     pagecolor="#ffffff"
     bordercolor="#000000"
     borderopacity="0.25"
     inkscape:showpageshadow="2"
     inkscape:pageopacity="0.0"
     inkscape:pagecheckerboard="0"
     inkscape:deskcolor="#d1d1d1"
     inkscape:document-units="mm"
     inkscape:zoom="0.52347032"
     inkscape:cx="576.91906"
     inkscape:cy="493.81979"
     inkscape:window-width="1920"
     inkscape:window-height="1017"
     inkscape:window-x="-8"
     inkscape:window-y="-8"
     inkscape:window-maximized="1"
     inkscape:current-layer="layer2" /><defs
     id="defs1"><inkscape:path-effect
       effect="powerstroke"
       id="path-effect11"
       is_visible="true"
       lpeversion="1.3"
       scale_width="1"
       interpolator_type="CentripetalCatmullRom"
       interpolator_beta="0.2"
       start_linecap_type="zerowidth"
       end_linecap_type="zerowidth"
       offset_points="0.24864001,0.26635613 | 0.5,0.3999995 | 0.71630196,0.25883297"
       linejoin_type="round"
       miter_limit="4"
       not_jump="false"
       sort_points="true"
       message="&lt;b&gt;Ctrl + click&lt;/b&gt; on existing node and move it" /><inkscape:path-effect
       effect="powerstroke"
       id="path-effect10"
       is_visible="true"
       lpeversion="1.3"
       scale_width="1"
       interpolator_type="CentripetalCatmullRom"
       interpolator_beta="0.2"
       start_linecap_type="zerowidth"
       end_linecap_type="zerowidth"
       offset_points="0.39390507,0.29883761 | 0.5,0.3999995 | 0.77217411,0.30867821"
       linejoin_type="round"
       miter_limit="4"
       not_jump="false"
       sort_points="true"
       message="&lt;b&gt;Ctrl + click&lt;/b&gt; on existing node and move it" /><inkscape:path-effect
       effect="powerstroke"
       id="path-effect9"
       is_visible="true"
       lpeversion="1.3"
       scale_width="1"
       interpolator_type="CentripetalCatmullRom"
       interpolator_beta="0.2"
       start_linecap_type="square"
       end_linecap_type="zerowidth"
       offset_points="0.62434013,0.19054552 | 0.4008068,0.2"
       linejoin_type="round"
       miter_limit="4"
       not_jump="false"
       sort_points="true"
       message="&lt;b&gt;Ctrl + click&lt;/b&gt; on existing node and move it" /><inkscape:path-effect
       effect="powerstroke"
       id="path-effect4"
       is_visible="true"
       lpeversion="1.3"
       scale_width="1"
       interpolator_type="CentripetalCatmullRom"
       interpolator_beta="0.2"
       start_linecap_type="zerowidth"
       end_linecap_type="zerowidth"
       offset_points="0.2,0.3999995 | 2,0.3999995 | 3.8,0.3999995"
       linejoin_type="round"
       miter_limit="4"
       not_jump="false"
       sort_points="true"
       message="&lt;b&gt;Ctrl + click&lt;/b&gt; on existing node and move it" /></defs><g
     inkscape:label="Layer 1"
     inkscape:groupmode="layer"
     id="layer1"><path
       id="path3"
       style="fill:none;stroke:#000000;stroke-width:0.799999"
       d="m 174.50349,105.73193 c 0,3.33232 -2.67589,5.52826 -6.44438,6.28642 -3.69446,0.74326 -7.05038,-2.35548 -6.25483,-5.59144 0.69498,-2.82688 2.51388,-5.33817 6.19165,-6.16006 3.95803,-0.884524 6.50756,2.13276 6.50756,5.46508 z"
       sodipodi:nodetypes="sssss" /><path
       style="fill:none;stroke:#000000;stroke-width:0.799999"
       d="m 141.0812,111.76563 c 0.37366,-7.48466 7.44432,-18.616039 6.25725,-29.474114 -2.33316,-21.341247 -16.26426,-20.278407 -31.71932,-16.708483 -9.80397,2.264593 -14.96189,-1.424024 -18.942235,-4.64621 -1.191442,16.564482 -15.94933,16.637495 -14.858641,28.210324 0.977091,10.367491 10.458581,8.926622 11.435601,22.302583 1.179618,16.14965 36.573035,17.79457 47.827345,0.3159 z"
       id="path1"
       sodipodi:nodetypes="csscssc" /><path
       style="fill:none;stroke:#000000;stroke-width:0.799999"
       d="m 141.04961,111.81301 c 0.67013,4.73556 4.31435,10.42654 9.82451,11.70412 6.8673,1.59224 12.93077,-0.4126 18.25906,-3.34855 7.05818,-3.88914 13.55534,-12.98083 12.13058,-20.912615 -1.51553,-8.437127 -20.24064,-16.497676 -20.24064,-16.497676"
       id="path2"
       sodipodi:nodetypes="csssc" /><path
       style="fill:#000000;fill-rule:nonzero;stroke:none;stroke-width:0.799999"
       d="m 158.96118,98.055543 c 0.5179,-2.15334 2.11182,-8.592949 2.477,-17.48455 0.058,-1.411486 0.0904,-2.988915 0.0751,-4.70038 -0.0543,-6.097545 -0.72519,-14.699502 -3.42957,-23.378148 -2.10201,-6.745563 -5.52683,-13.816905 -11.076,-19.447939 -2.52675,-2.564022 -5.50194,-4.836562 -8.99989,-6.631986 -3.36398,-1.726655 -7.20611,-3.009246 -11.5881,-3.686467 -7.45926,-1.151641 -13.3474,-1.253337 -17.97632,-0.691076 -4.55895,0.553762 -7.78341,1.737918 -10.057937,3.076159 -2.323198,1.366879 -3.637121,2.883806 -4.368511,4.020005 -0.517152,0.803386 -0.759827,1.420211 -0.868023,1.760874 -2.472872,0.174869 -4.807347,0.689297 -7.002232,1.527752 -2.167942,0.828162 -4.167127,1.960039 -6.004477,3.3508 -3.522932,2.666643 -6.338167,6.199933 -8.556728,10.061032 -2.155126,3.750699 -3.681054,7.696091 -4.720435,11.179599 -0.520317,1.743855 -0.915705,3.361923 -1.206103,4.769367 -0.294833,1.428943 -0.482454,2.645341 -0.584215,3.570411 -0.242851,2.268259 -0.196956,4.743359 0.06527,7.305414 0.272856,2.665867 0.78041,5.43179 1.446277,8.179251 1.470232,6.066383 3.695347,11.99856 5.993925,16.982352 2.977123,6.455017 6.062061,11.300137 8.464567,14.409237 0.657265,0.85057 1.267257,1.57977 1.823245,2.20265 1.008764,1.13012 1.932865,2.01086 2.758215,2.69847 0.867241,0.7225 1.629081,1.23488 2.275053,1.60493 0.961089,0.55056 1.706349,0.80799 2.176356,0.95258 -0.455425,-0.1996 -1.134784,-0.56567 -2.004037,-1.21539 -0.582257,-0.4352 -1.267702,-1.01078 -2.054666,-1.77813 -0.749067,-0.73039 -1.598666,-1.6429 -2.544518,-2.78426 -0.521673,-0.62951 -1.099174,-1.36189 -1.725632,-2.2122 -2.290273,-3.10867 -5.292896,-7.91698 -8.216463,-14.314989 -2.258701,-4.943005 -4.455054,-10.810988 -5.913056,-16.79623 -0.660122,-2.709871 -1.163572,-5.427119 -1.437768,-8.03628 -0.263687,-2.50917 -0.31429,-4.909681 -0.09024,-7.090733 0.08863,-0.889344 0.260536,-2.075301 0.539251,-3.480457 0.274271,-1.382755 0.651686,-2.976015 1.152459,-4.695348 1.000969,-3.436687 2.478905,-7.32253 4.572276,-11.010611 2.155009,-3.796674 4.884291,-7.247104 8.287241,-9.842164 1.773803,-1.352687 3.702456,-2.451597 5.793157,-3.255157 2.198305,-0.844916 4.547456,-1.352449 7.048496,-1.502083 a 0.3999995,0.3999995 4.4376797 0 0 0.366972,-0.31427 c -0.0078,0.03598 0.122243,-0.660275 0.85864,-1.774847 0.678666,-1.027193 1.913496,-2.432234 4.121958,-3.705634 2.164553,-1.248079 5.272483,-2.374471 9.724633,-2.891801 4.52414,-0.525696 10.31805,-0.408714 17.70617,0.750725 4.27528,0.670329 8.00807,1.927595 11.26631,3.607622 3.38822,1.747047 6.27026,3.954807 8.72136,6.446689 5.38697,5.4766 8.74496,12.37603 10.83371,19.015163 2.68462,8.533091 3.4071,17.035573 3.54747,23.07926 0.0394,1.695355 0.0345,3.261168 0.007,4.661972 -0.17085,8.741155 -1.27757,15.396705 -1.67737,17.508816 z"
       id="path4"
       sodipodi:nodetypes="cscsc"
       inkscape:path-effect="#path-effect4"
       inkscape:original-d="M 158.96118,98.055543 C 164.67959,71.429189 160.44319,28.539219 126.34115,23.231047 96.228886,18.543906 93.460288,31.272562 93.460288,31.272562 72.552346,32.523465 66.354287,58.054731 65.583033,65.404332 63.743969,82.929538 79.18594,115.63895 90.077682,119.68588" /><path
       style="fill:none;stroke:#000000;stroke-width:0.799999"
       d="m 104.49991,123.01169 c -5.49667,14.21553 -13.120911,15.00465 -22.871198,10.04564 -5.537222,-2.81624 -8.023874,-9.60338 1.516324,-18.57496"
       id="path5"
       sodipodi:nodetypes="csc" /><path
       id="path6"
       style="fill:none;stroke:#000000;stroke-width:0.799999"
       d="m 86.714342,128.23984 c 3e-6,1.88752 -1.97688,3.06025 -3.864395,3.06025 -1.887515,0 -3.585662,-1.8261 -3.90907,-3.6857 -0.312724,-1.79816 2.145663,-3.86753 3.99842,-3.50699 2.066211,0.40208 3.775042,2.24493 3.775045,4.13244 z"
       sodipodi:nodetypes="sssss" /><path
       style="fill:none;stroke:#000000;stroke-width:0.799999"
       d="m 135.45487,118.03159 c 10.172,15.47913 21.67163,16.61408 23.76715,27.51985 2.99558,15.59 -19.84485,53.88887 -31.00451,76.12636 0.7727,5.07426 -1.13097,8.63657 -2.41246,12.77707 -1.57722,5.09598 -1.30561,13.18229 -6.43321,14.65343 -3.61961,1.03849 -6.18939,-0.0493 -7.09567,-6.38087 -0.67257,-4.69878 -0.71938,-6.12709 -0.76715,-11.22111 -1.64083,1.58212 -5.32058,3.84609 -7.41606,2.3231 -1.78578,-1.2979 4.65175,-8.94339 7.95216,-12.68773 1.95932,-2.22286 5.31416,-3.11346 6.87997,-5.62906 3.24101,-13.52194 16.84469,-57.25197 24.6787,-72.36934"
       id="path7"
       sodipodi:nodetypes="cscssscsscc" /><path
       style="fill:none;stroke:#000000;stroke-width:0.799999"
       d="m 102.2166,156.36281 c -5.558261,18.12172 12.38049,27.13817 29.35693,17.33763 m 7.27665,-19.92878 c -15.20019,-17.72694 -28.60629,-8.46937 -31.62996,-7.14801 -21.229398,-28.94886 -33.183275,23.19244 -5.58439,18.54015"
       id="path8"
       sodipodi:nodetypes="ccccc" /><path
       style="fill:none;fill-rule:nonzero;stroke:#000000;stroke-width:0.39054552"
       d="m 138.68036,154.13107 c 0,0 0.2062,-5.44208 -1.89354,-7.22908"
       id="path9"
       sodipodi:nodetypes="cc"
       inkscape:original-d="m 138.68036,154.13107 c 0,0 0.2062,-5.44208 -1.89354,-7.22908" /><path
       style="fill:#000000;fill-rule:nonzero;stroke:none;stroke-width:0.799999"
       d="m 134.91877,136.43772 c 0.008,-0.0242 -0.11088,-0.12216 -0.93721,-0.42036 -0.87532,-0.31589 -1.89453,-0.62056 -2.77734,-0.86603 -0.68728,-0.1911 -1.17297,-0.3475 -1.88615,-0.49181 -1.29915,-0.26287 -3.19357,-0.5194 -4.9436,-0.50797 -0.14853,9.7e-4 -0.29268,0.004 -0.43238,0.008 -0.62636,0.0208 -1.28265,0.0887 -1.90549,0.21078 -0.98694,0.19343 -1.59721,0.46359 -1.94996,0.63733 0.38039,-0.10802 1.02115,-0.23424 1.99262,-0.26594 0.6228,-0.0203 1.24171,0.001 1.85639,0.0352 0.1353,0.007 0.27462,0.0162 0.41844,0.0263 1.81159,0.12733 3.41422,0.40533 4.81791,0.64241 0.81291,0.1373 1.11601,0.1523 1.90082,0.28831 0.75583,0.13098 2.04342,0.39062 2.83345,0.55121 0.85673,0.17414 1.00217,0.18484 1.0125,0.15213 z"
       id="path10"
       sodipodi:nodetypes="cc"
       inkscape:path-effect="#path-effect10"
       inkscape:original-d="m 134.91877,136.43772 c 0,0 -10.18592,-3.2166 -14.83213,-1.4296" /><path
       style="fill:#000000;fill-rule:nonzero;stroke:none;stroke-width:0.799999"
       d="m 112.31318,132.86372 c -0.10279,-0.19041 -0.29341,-0.5078 -0.67483,-0.88153 -0.29506,-0.28912 -0.63679,-0.54523 -0.97633,-0.75371 0,0 -0.0121,-0.007 -0.0121,-0.007 -0.74969,-0.4586 -1.63085,-0.83724 -2.49269,-1.06645 -0.76904,-0.20453 -1.5119,-0.27729 -2.22315,-0.33665 -0.0999,-0.008 -0.2052,-0.0159 -0.31418,-0.0225 -0.36568,-0.022 -0.72091,-0.0292 -1.03448,-0.0227 -0.40446,0.008 -0.64222,0.037 -0.7605,0.053 0.10865,0.0276 0.36051,0.091 0.73489,0.18218 0.32947,0.0803 0.61287,0.1495 0.98969,0.24463 0.0291,0.007 0.27029,0.0686 0.29936,0.076 0.69634,0.17724 1.34163,0.3876 2.09851,0.59803 0.83429,0.23194 1.68319,0.45142 2.45927,0.77082 -1e-5,0 0.0123,0.005 0.0123,0.005 0.34964,0.14454 0.70493,0.30604 1.04435,0.50634 0.43495,0.25668 0.69957,0.4945 0.84988,0.65487 z"
       id="path11"
       sodipodi:nodetypes="cc"
       inkscape:path-effect="#path-effect11"
       inkscape:original-d="m 112.31318,132.86372 c -1.6083,-2.23375 -6.92464,-2.94856 -8.48827,-3.03791" /></g><g
     inkscape:groupmode="layer"
     id="layer2"
     inkscape:label="Layer 2"><image
       width="480.48334"
       height="271.99167"
       preserveAspectRatio="none"
       xlink:href="chandroid%20cover%20screenshot%201.png"
       id="image1"
       x="-135.16586"
       y="12.504166"
       inkscape:label="image1"
       style="display:inline;opacity:0.415"
       sodipodi:insensitive="true" /></g></svg>
