# ProBuilder 5.0.7
# https://unity3d.com/unity/features/worldbuilding/probuilder
# 5/14/2024 9:02:17 AM

mtllib ./apartment-lot_buildings_1.mtl
o apartment-lot_buildings_1

g Sprite (06)
v -14.7041 18.46533 -31.34082
v -14.7041 9.23316 -31.34082
v -14.7041 9.23316 -19.82031
v -14.7041 18.46533 -19.82031
v -7.788632 9.233161 -31.34082
v -7.788635 0.0009771688 -31.34082
v -7.788635 0.0009771688 -19.82031
v -7.788632 9.233161 -19.82031
v -11.83106 18.46534 -19.82031
v -11.83106 9.23316 -19.82031
v -11.83106 9.23316 -8.299805
v -11.83106 18.46534 -8.299805
v -11.83106 0.0009769278 -19.82031
v -11.83106 0.0009769278 -8.299805
v -14.7041 18.46533 -8.299805
v -14.7041 9.23316 -8.299805
v -14.7041 9.23316 3.220703
v -14.7041 18.46533 3.220703
v -14.7041 0.0009765181 -8.299805
v -14.7041 0.0009765181 3.220703
v -11.96289 18.46533 3.220703
v -11.96289 9.233153 3.220703
v -11.96289 9.233153 14.74121
v -11.96289 18.46533 14.74121
v -11.96289 0.0009764431 3.220703
v -11.96289 0.0009764431 14.74121
v -14.70411 27.69751 -31.34082
v -14.70411 27.69751 -19.82031
v -11.83106 36.92969 -19.82031
v -11.83106 27.69752 -19.82031
v -11.83106 27.69752 -8.299805
v -11.83106 36.92969 -8.299805
v -14.70411 36.92969 -8.299805
v -14.70411 27.69751 -8.299805
v -14.70411 27.69751 3.220703
v -14.70411 36.92969 3.220703
v -26.44727 9.233154 3.220703
v -26.44727 0.0009767719 3.220703
v -26.44727 0.0009767719 14.74121
v -26.44727 18.46533 14.74121
v -26.44727 18.46533 3.220703
v -26.44727 9.233154 14.74121
v -26.44727 9.233154 -8.299805
v -26.44727 0.0009767719 -8.299805
v -26.44727 36.92969 3.220703
v -26.44727 36.92969 -8.299805
v -26.44727 18.46533 -8.299805
v -26.44727 27.69751 -8.299805
v -26.44727 27.69751 3.220703
v -26.44727 27.69751 -31.34082
v -26.44727 18.46533 -31.34082
v -26.44727 9.233154 -19.82031
v -26.44727 18.46533 -19.82031
v -26.44727 27.69751 -19.82031
v -26.44727 9.233154 -31.34082
v -26.44727 0.0009767719 -19.82031
v -14.7041 0.0009765181 -19.82031
v -26.44727 0.0009767719 -31.34082
v -14.7041 0.0009765181 -31.34082
v -26.44727 36.92969 -19.82031

vt 15.37533 -22.36682
vt 6.143157 -22.36682
vt 6.143157 -10.84631
vt 15.37533 -10.84631
vt -3.089016 -22.36682
vt -3.089016 -10.84631
vt 6.143158 0.6741962
vt 15.37533 0.6741962
vt -3.089021 0.6741962
vt 6.143157 12.1947
vt 15.37533 12.1947
vt -3.08902 12.1947
vt 6.143153 23.71521
vt 15.37533 23.71521
vt -3.089023 23.71521
vt 24.60751 -22.36682
vt 24.60751 -10.84631
vt 33.83969 -10.84631
vt 24.60752 0.6741962
vt 33.83969 0.6741962
vt 24.60751 12.1947
vt 33.83969 12.1947
vt 6.143154 -0.4872665
vt -3.089023 -0.4872665
vt 6.143153 13.99711
vt -3.089024 13.99711
vt -12.1947 -0.4872663
vt -23.71521 -0.4872663
vt -12.1947 13.99711
vt -23.71521 13.99711
vt 23.71521 -0.4872674
vt 12.1947 -0.4872674
vt 23.71521 13.99711
vt 12.1947 13.99711
vt 3.089023 -0.4872665
vt -6.143154 -0.4872665
vt 3.089024 13.99711
vt -6.143153 13.99711
vt 15.37533 -0.4872664
vt 15.37533 13.99711
vt -15.37533 -0.4872664
vt -15.37533 13.99711
vt 6.143159 11.2559
vt -3.089024 11.2559
vt -0.6741962 -0.4872663
vt -0.6741962 11.2559
vt -12.1947 11.2559
vt 0.6741962 -0.4872662
vt 12.1947 11.2559
vt 0.6741962 11.2559
vt 3.089024 11.2559
vt -6.143159 11.2559
vt 15.37533 11.2559
vt -15.37533 11.2559
vt 24.60751 -0.4872663
vt 24.60751 11.2559
vt -24.60751 -0.4872663
vt -24.60751 11.2559
vt 33.83969 -0.4872662
vt 33.83969 11.2559
vt -33.83969 -0.4872662
vt -33.83969 11.2559
vt -10.84631 -0.4872583
vt -22.36682 -0.4872583
vt -10.84631 11.2559
vt -22.36682 11.2559
vt 22.36682 -0.4872663
vt 10.84631 -0.4872663
vt 22.36682 11.2559
vt 10.84631 11.2559
vt 6.143159 14.12894
vt -3.089024 14.12894
vt 10.84631 14.12894
vt -0.6741962 14.12894
vt 0.6741962 14.12894
vt -10.84631 14.12894
vt 3.089024 14.12894
vt -6.143159 14.12894
vt 15.37533 14.12894
vt -15.37533 14.12894
vt 24.60752 14.12894
vt -24.60752 14.12894
vt 33.83969 14.12894
vt -33.83969 14.12894
vt 6.14316 18.17137
vt -3.089024 18.17136
vt 22.36682 18.17136
vt 10.84631 18.17136
vt -10.84631 18.17137
vt -22.36682 18.17137
vt 3.089024 18.17136
vt -6.14316 18.17137

vn 1 2.662026E-07 5.414578E-24
vn -8.271806E-25 2.220446E-17 -1
vn -2.269734E-08 -1 -2.220446E-17
vn 6.236945E-09 1 2.220446E-17
vn 8.271806E-25 -2.220446E-17 1

usemtl Mat_TestMaterial
f 4/4/1 3/3/1 2/2/1 1/1/1
f 8/3/1 7/6/1 6/5/1 5/2/1
f 12/8/1 11/7/1 10/3/1 9/4/1
f 11/7/1 14/9/1 13/6/1 10/3/1
f 18/11/1 17/10/1 16/7/1 15/8/1
f 17/10/1 20/12/1 19/9/1 16/7/1
f 24/14/1 23/13/1 22/10/1 21/11/1
f 23/13/1 26/15/1 25/12/1 22/10/1
f 28/17/1 4/4/1 1/1/1 27/16/1
f 32/20/1 31/19/1 30/17/1 29/18/1
f 31/19/1 12/8/1 9/4/1 30/17/1
f 36/22/1 35/21/1 34/19/1 33/20/1
f 35/21/1 18/11/1 15/8/1 34/19/1
f 22/25/2 25/26/2 38/24/2 37/23/2
f 25/29/3 26/30/3 39/28/3 38/27/3
f 24/33/4 21/34/4 41/32/4 40/31/4
f 26/37/5 23/38/5 42/36/5 39/35/5
f 21/40/2 22/25/2 37/23/2 41/39/2
f 23/38/5 24/42/5 40/41/5 42/36/5
f 16/43/2 19/44/2 44/24/2 43/23/2
f 19/46/3 20/47/3 38/27/3 44/45/3
f 36/49/4 33/50/4 46/48/4 45/32/4
f 20/51/5 17/52/5 37/36/5 38/35/5
f 15/53/2 16/43/2 43/23/2 47/39/2
f 17/52/5 18/54/5 41/41/5 37/36/5
f 34/56/2 15/53/2 47/39/2 48/55/2
f 18/54/5 35/58/5 49/57/5 41/41/5
f 33/60/2 34/56/2 48/55/2 46/59/2
f 35/58/5 36/62/5 45/61/5 49/57/5
f 27/56/2 1/53/2 51/39/2 50/55/2
f 3/52/5 4/54/5 53/41/5 52/36/5
f 28/65/4 27/66/4 50/64/4 54/63/4
f 4/54/5 28/58/5 54/57/5 53/41/5
f 1/53/2 2/43/2 55/23/2 51/39/2
f 57/51/5 3/52/5 52/36/5 56/35/5
f 2/43/2 59/44/2 58/24/2 55/23/2
f 59/69/3 57/70/3 56/68/3 58/67/3
f 10/71/2 13/72/2 56/24/2 52/23/2
f 13/73/3 14/74/3 44/45/3 56/68/3
f 32/75/4 29/76/4 60/63/4 46/48/4
f 14/77/5 11/78/5 43/36/5 44/35/5
f 9/79/2 10/71/2 52/23/2 53/39/2
f 11/78/5 12/80/5 47/41/5 43/36/5
f 30/81/2 9/79/2 53/39/2 54/55/2
f 12/80/5 31/82/5 48/57/5 47/41/5
f 29/83/2 30/81/2 54/55/2 60/59/2
f 31/82/5 32/84/5 46/61/5 48/57/5
f 5/85/2 6/86/2 59/44/2 2/43/2
f 6/87/3 7/88/3 57/70/3 59/69/3
f 8/89/4 5/90/4 2/66/4 3/65/4
f 7/91/5 8/92/5 3/52/5 57/51/5

