# ProBuilder 5.0.7
# https://unity3d.com/unity/features/worldbuilding/probuilder
# 5/5/2024 10:45:21 AM

mtllib ./stove-oven.mtl
o stove-oven

g Cube (05)
v -6.79706 0.02568748 -9.79257 0.6666667 0.6666667 0.6666667
v -6.79706 0.2308339 -9.792569 0.6666667 0.6666667 0.6666667
v -6.79706 0.02568741 -9.716424 0.6666667 0.6666667 0.6666667
v -6.79706 0.2308338 -9.716424 0.6666667 0.6666667 0.6666667
v -5.542941 0.2308339 -9.792569 0.6666667 0.6666667 0.6666667
v -5.542941 0.2308338 -9.716424 0.6666667 0.6666667 0.6666667
v -5.542941 0.02568748 -9.79257 0.6666667 0.6666667 0.6666667
v -5.542941 0.02568741 -9.716424 0.6666667 0.6666667 0.6666667

vt 0.09067935 -0.03807309
vt -0.114467 -0.03807281
vt 0.09067936 0.03807256
vt -0.114467 0.03807284
vt 0.6270595 -0.03807282
vt -0.6270595 -0.03807282
vt 0.6270595 0.03807283
vt -0.6270595 0.03807283
vt 0.114467 -0.03807281
vt -0.09067935 -0.03807309
vt 0.114467 0.03807284
vt -0.09067936 0.03807256
vt -0.09067931 0.6270595
vt 0.1144671 0.6270595
vt -0.09067931 -0.6270595
vt 0.1144671 -0.6270595
vt 0.09067941 -0.6270595
vt -0.114467 -0.6270595
vt 0.09067941 0.6270595
vt -0.114467 0.6270595

vn -0.5773506 -0.5773492 -0.5773512
vn -0.57735 0.5773513 -0.5773494
vn -0.57735 -0.5773513 0.5773494
vn -0.5773506 0.5773492 0.5773512
vn 0.57735 0.5773513 -0.5773494
vn 0.5773506 0.5773492 0.5773512
vn 0.5773506 -0.5773492 -0.5773512
vn 0.57735 -0.5773513 0.5773494

usemtl Mat_Chrome_Cartoon
f 3/3/3 4/4/4 2/2/2 1/1/1
f 4/7/4 6/8/6 5/6/5 2/5/2
f 6/11/6 8/12/8 7/10/7 5/9/5
f 8/7/8 3/8/3 1/6/1 7/5/7
f 8/15/8 6/16/6 4/14/4 3/13/3
f 1/19/1 2/20/2 5/18/5 7/17/7

g Oven
v -6.807305 1.000099 -10.68512 0.2196078 0.2196078 0.2196078
v -5.532695 1.000099 -10.68512 0.2196078 0.2196078 0.2196078
v -6.807305 1.000099 -9.891644 0.2196078 0.2196078 0.2196078
v -5.532695 1.000099 -9.891644 0.2196078 0.2196078 0.2196078
v -6.92 9.942055E-05 -9.792569 0.2196078 0.2196078 0.2196078
v -5.42 9.942055E-05 -9.792569 0.2196078 0.2196078 0.2196078
v -6.92 9.942055E-05 -11.172 0.2196078 0.2196078 0.2196078
v -5.42 9.942055E-05 -11.172 0.2196078 0.2196078 0.2196078
v -5.42 0.8778632 -11.172 0.2196078 0.2196078 0.2196078
v -6.92 0.8778632 -11.172 0.2196078 0.2196078 0.2196078
v -5.42 0.8778632 -11.172 1 1 1
v -5.42 1.000099 -11.172 1 1 1
v -6.92 1.000099 -11.172 1 1 1
v -6.92 0.8778632 -11.172 1 1 1
v -5.42 0.8778631 -9.792569 0.2196078 0.2196078 0.2196078
v -5.42 0.8778631 -9.792569 1 1 1
v -5.42 1.000099 -9.792569 1 1 1
v -5.636359 0.3486939 -9.738964 0.6666667 0.6666667 0.6666667
v -6.703641 0.3486939 -9.738964 0.6666667 0.6666667 0.6666667
v -6.703641 0.7504041 -9.738964 0.6666667 0.6666667 0.6666667
v -5.636359 0.7504041 -9.738964 0.6666667 0.6666667 0.6666667
v -6.92 0.8778631 -9.731844 0.8041647 0.867541 0.9372549
v -6.92 1.000099 -9.731844 0.8041647 0.867541 0.9372549
v -5.42 1.000099 -9.731844 0.8041647 0.867541 0.9372549
v -5.42 0.8778631 -9.731844 0.8041647 0.867541 0.9372549
v -6.92 0.8778631 -9.792569 0.2196078 0.2196078 0.2196078
v -6.92 1.000099 -9.792569 1 1 1
v -6.92 0.8778631 -9.792569 1 1 1
v -6.92 0.8778631 -9.731844 1 1 1
v -6.92 1.000099 -9.731844 1 1 1
v -6.807305 1.000099 -9.840042 0.2196078 0.2196078 0.2196078
v -5.532695 1.000099 -9.840042 0.2196078 0.2196078 0.2196078
v -5.42 1.000099 -9.731844 1 1 1
v -5.42 0.8778631 -9.731844 1 1 1
v -6.800313 0.2471127 -9.792569 0.2196078 0.2196078 0.2196078
v -6.800313 0.8519853 -9.792569 0.2196078 0.2196078 0.2196078
v -5.539687 0.8519853 -9.792569 0.2196078 0.2196078 0.2196078
v -5.539687 0.2471127 -9.792569 0.2196078 0.2196078 0.2196078
v -6.800313 0.2471127 -9.792569 0.6666667 0.6666667 0.6666667
v -6.800313 0.8519853 -9.792569 0.6666667 0.6666667 0.6666667
v -6.800313 0.2471127 -9.738964 0.6666667 0.6666667 0.6666667
v -6.800313 0.8519853 -9.738964 0.6666667 0.6666667 0.6666667
v -5.539687 0.8519853 -9.792569 0.6666667 0.6666667 0.6666667
v -5.539687 0.8519853 -9.738964 0.6666667 0.6666667 0.6666667
v -5.539687 0.2471127 -9.792569 0.6666667 0.6666667 0.6666667
v -5.539687 0.2471127 -9.738964 0.6666667 0.6666667 0.6666667
v -6.807305 1.000099 -10.68512 1 1 1
v -5.532695 1.000099 -10.68512 1 1 1
v -6.807305 1.000099 -9.891644 1 1 1
v -5.532695 1.000099 -9.891644 1 1 1
v -6.807305 1.000099 -9.840042 1 1 1
v -5.532695 1.000099 -9.840042 1 1 1

vt 5.443732 -0.06109738
vt 11.10169 -0.06109738
vt 5.443732 -5.264272
vt 11.10169 -5.264272
vt 0.75 -0.6294305
vt -0.7500002 -0.6294305
vt 0.75 0.75
vt -0.75 0.75
vt 0.75 -0.4999999
vt -0.75 -0.4999999
vt -0.7500002 0.3777638
vt 0.75 0.3777638
vt -2.82898 1.500643
vt -2.828979 1.961714
vt 2.828979 1.961714
vt 2.828979 1.500643
vt 0.7499999 -0.5
vt -0.6294307 -0.5
vt -0.6294307 0.3777637
vt 0.7499999 0.3777637
vt -2.374195 1.500643
vt -2.374195 1.961715
vt 0.5336409 -0.1514055
vt -0.5336409 -0.1514055
vt -0.5336409 0.2503046
vt 0.5336409 0.2503046
vt 0.6294305 -0.5
vt -0.75 -0.5
vt 0.6294305 0.3777637
vt 2.374195 1.961715
vt 2.374195 1.500643
vt 3.035076 1.500643
vt 3.035076 1.961715
vt 5.443732 -5.925153
vt 11.10169 -5.925153
vt -3.035076 1.961715
vt -3.035076 1.500643
vt -2.82898 -2.298466
vt 2.828979 -2.298466
vt -2.82898 -2.959347
vt 2.828979 -2.959347
vt -0.7499987 -0.5
vt -0.7499987 0.3777637
vt -0.6303117 -0.2529867
vt -0.6303117 0.3518859
vt 0.6303129 0.35188
vt 0.6303117 -0.2529867
vt 0.6294308 -0.2529867
vt 0.6294308 0.3518859
vt 0.6830359 -0.2529867
vt 0.6830359 0.3518859
vt -0.6303129 -0.6294308
vt 0.6303129 -0.6294308
vt -0.6303129 -0.6830359
vt 0.6303129 -0.6830359
vt -0.6294308 0.3518859
vt -0.6294308 -0.2529867
vt -0.6830359 0.3518859
vt -0.6830359 -0.2529867
vt -0.6373048 0.2631164
vt 0.6373048 0.2631164
vt -0.6373048 -0.5303564
vt 0.637305 -0.5303564
vt -0.75 -0.6901565
vt -0.6373048 -0.5819573
vt 0.75 -0.6901565
vt 0.6373048 -0.5819573

vn 1.763004E-07 1 4.080691E-08
vn -0.4082489 -0.4082485 0.8164961
vn 0.4082489 -0.4082485 0.8164961
vn -0.5773503 -0.5773503 -0.5773503
vn 0.5773503 -0.5773503 -0.5773503
vn 0.7071068 3.97157E-07 -0.7071068
vn -0.7071068 1.483911E-07 -0.7071068
vn 0.4082479 0.816497 -0.408248
vn -0.4082481 0.8164967 -0.4082482
vn 0.801784 -0.2672587 0.5345234
vn 0.7071066 0.7071069 1.365185E-06
vn 0 0 1
vn -0.5773503 -0.5773503 0.5773503
vn -0.4082483 0.8164966 0.4082483
vn 0.408248 0.8164961 0.4082496
vn 0.5773495 -0.5773495 0.5773518
vn -0.8017844 -0.2672588 0.5345226
vn -0.7071068 0.7071068 1.52769E-08
vn -0.4082483 0.4082513 0.8164951
vn 0.4082483 0.4082513 0.8164951

usemtl WhiteSeam
f 15/27/12 16/28/13 14/26/11 13/25/10
f 18/32/15 17/31/14 16/30/13 15/29/12
f 17/40/14 23/39/18 14/38/11 16/37/13
f 13/47/10 34/49/25 18/31/15 15/48/12
f 43/64/10 44/65/27 34/63/25 13/62/10
f 44/65/27 45/66/28 23/32/18 34/31/25
f 45/66/28 46/67/11 14/37/11 23/40/18
f 46/67/11 43/64/10 13/30/10 14/29/11

usemtl Mat_Chrome_Cartoon
f 21/35/17 20/34/16 19/33/14 22/36/15
f 20/35/16 25/42/19 24/41/18 19/36/14
f 33/36/24 32/35/23 31/34/22 30/33/21
f 36/51/25 35/50/26 21/34/17 22/33/15
f 37/52/21 38/53/22 35/50/26 36/51/25
f 41/56/23 42/57/24 24/41/18 25/42/19
f 42/60/24 37/61/21 36/59/25 24/58/18
f 55/80/9 56/81/9 20/27/16 21/28/17
f 57/82/9 55/80/9 21/28/17 35/26/26
f 56/81/9 58/83/9 25/25/19 20/27/16
f 59/85/9 57/82/9 35/26/26 38/84/22
f 58/83/9 60/87/9 41/86/23 25/25/19
f 60/87/9 59/85/9 38/84/22 41/86/23

usemtl Mat_Chrome_Cartoon
f 49/70/10 50/71/27 48/69/27 47/68/10
f 50/74/27 52/75/28 51/73/28 48/72/27
f 52/78/28 54/79/11 53/77/11 51/76/28
f 54/74/11 49/75/10 47/73/10 53/72/11
f 27/44/20 28/45/20 50/65/27 49/64/10
f 28/45/20 29/46/20 52/66/28 50/65/27
f 29/46/20 26/43/20 54/67/11 52/66/28
f 26/43/20 27/44/20 49/64/10 54/67/11

usemtl WhiteSeam
f 11/23/9 12/24/9 10/22/9 9/21/9
f 26/43/20 29/46/20 28/45/20 27/44/20
f 39/54/9 40/55/9 12/24/9 11/23/9

g Cube (06)
v -5.419883 1.000098 -10.79391 0.6666667 0.6666667 0.6666667
v -6.919883 1.000099 -10.79391 0.6666667 0.6666667 0.6666667
v -5.419883 1.396506 -11.01396 0.6666667 0.6666667 0.6666667
v -6.919883 1.396507 -11.01396 0.6666667 0.6666667 0.6666667
v -6.919883 1.000099 -11.17237 0.6666667 0.6666667 0.6666667
v -6.919883 1.396507 -11.17237 0.6666667 0.6666667 0.6666667
v -5.419883 1.000098 -11.17237 0.6666667 0.6666667 0.6666667
v -5.419883 1.396506 -11.17237 0.6666667 0.6666667 0.6666667

vt 0.7565431 -0.2600709
vt -0.7434569 -0.2600709
vt 0.7565429 0.1933175
vt -0.7434571 0.1933175
vt 0.1787939 -0.1982037
vt -0.1996698 -0.1982037
vt -0.04125547 0.1982044
vt -0.1996698 0.1982044
vt 0.7434569 -0.198204
vt -0.7565431 -0.1982039
vt 0.7434571 0.198204
vt -0.7565429 0.198204
vt 0.1996698 -0.1982043
vt -0.1787939 -0.1982043
vt 0.1996698 0.1982036
vt 0.04125547 0.1982036
vt -0.7565429 -0.04125547
vt 0.7434571 -0.04125547
vt -0.7565429 -0.1996698
vt 0.7434571 -0.1996698
vt 0.7565431 -0.1996698
vt -0.7434569 -0.1996698
vt 0.7565431 0.1787939
vt -0.7434569 0.1787939

vn 0.7019814 -0.3612789 0.6137587
vn -0.7019815 -0.3612788 0.6137586
vn 0.5018424 0.7454081 0.4387721
vn -0.5018418 0.7454084 0.4387723
vn -0.5773504 -0.5773501 -0.5773502
vn -0.5773501 0.5773503 -0.5773504
vn 0.5773501 -0.5773503 -0.5773504
vn 0.5773505 0.5773501 -0.5773502

usemtl Mat_Chrome_Cartoon_Seam
f 63/90/31 64/91/32 62/89/30 61/88/29
f 64/94/32 66/95/34 65/93/33 62/92/30
f 66/98/34 68/99/36 67/97/35 65/96/33
f 68/102/36 63/103/31 61/101/29 67/100/35
f 68/106/36 66/107/34 64/105/32 63/104/31
f 61/110/29 62/111/30 65/109/33 67/108/35

