# ProBuilder 5.0.7
# https://unity3d.com/unity/features/worldbuilding/probuilder
# 9/21/2023 11:47:06 AM

mtllib ./asdf.mtl
o asdf

g Cube (07)
v -11.6846 0 -3.760688 0 0.455 0.851
v -11.6846 5.551115E-17 -7.57081 0 0.455 0.851
v -11.6846 0.6141255 -3.760688 0 0.455 0.851
v -11.6846 0.6141255 -7.57081 0 0.455 0.851
v -10.0954 5.551115E-17 -7.57081 0 0.455 0.851
v -10.0954 0 -3.760688 0 0.455 0.851
v -10.0954 0.6141255 -7.57081 0 0.455 0.851
v -10.0954 0.6141255 -3.760688 0 0.455 0.851
v -10.89 0 -3.760688 0 0.455 0.851
v -10.89 0.6141255 -3.760688 0 0.455 0.851
v -10.89 5.551115E-17 -7.57081 0 0.455 0.851
v -10.89 0.6141255 -7.57081 0 0.455 0.851
v -10.89 1.404354 -3.760688 0 0.455 0.851
v -11.6846 1.404354 -3.760688 0 0.455 0.851
v -11.6846 1.404354 -7.57081 0 0.455 0.851
v -10.89 1.404354 -7.57081 0 0.455 0.851

vt 0.7917916 -0.3070627
vt -3.01833 -0.3070627
vt 0.7917916 0.3070627
vt -3.01833 0.3070627
vt 3.01833 -0.3070627
vt -0.7917916 -0.3070627
vt 3.01833 0.3070627
vt -0.7917916 0.3070627
vt 0.7946019 -0.3070627
vt 0 -0.3070627
vt 0 0.3070627
vt 0.7946019 0.3070627
vt -0.7946019 -0.3070627
vt -0.7946019 0.3070627
vt -0.7946019 0.7917914
vt 0 0.7917914
vt 0 -3.01833
vt -0.7946014 -3.01833
vt 0.7946014 0.7917914
vt 0.7946014 -3.01833
vt 0.7946014 1.097291
vt 0 1.097291
vt 3.01833 1.097291
vt -0.7917914 1.097291
vt 0.7917916 1.097291
vt -3.01833 1.097291
vt -0.7946014 1.097291

vn -1 2.778891E-24 -1.251501E-07
vn 1 2.778891E-24 -1.251501E-07
vn 0 -2.220446E-17 1
vn 0 2.220446E-17 -1
vn 0 1 2.220446E-17
vn 0 -1 -2.220446E-17

usemtl Mat_TestMaterial
f 3/3/1 4/4/1 2/2/1 1/1/1
f 7/7/2 8/8/2 6/6/2 5/5/2
f 8/12/3 10/11/3 9/10/3 6/9/3
f 10/11/3 3/14/3 1/13/3 9/10/3
f 2/9/4 4/12/4 12/11/4 11/10/4
f 11/10/4 12/11/4 7/14/4 5/13/4
f 10/16/5 8/15/5 7/18/5 12/17/5
f 14/19/5 13/16/5 16/17/5 15/20/5
f 5/20/6 6/19/6 9/16/6 11/17/6
f 11/17/6 9/16/6 1/15/6 2/18/6
f 15/21/4 16/22/4 12/11/4 4/12/4
f 16/23/2 13/24/2 10/8/2 12/7/2
f 14/25/1 15/26/1 4/4/1 3/3/1
f 13/22/3 14/27/3 3/14/3 10/11/3

