# ProBuilder 5.0.7
# https://unity3d.com/unity/features/worldbuilding/probuilder
# 4/9/2024 6:48:31 PM

mtllib ./bin.mtl
o bin

g Cube (55)
v -10.00513 0 5.265954 0.8156863 0.4784314 0.454902
v -10.60183 0 5.265954 0.8156863 0.4784314 0.454902
v -10.00513 1.011343 5.265954 0.8156863 0.4784314 0.454902
v -10.60183 1.011343 5.265954 0.8156863 0.4784314 0.454902
v -10.60183 0 4.387638 0.8156863 0.4784314 0.454902
v -10.60183 1.011343 4.387638 0.8156863 0.4784314 0.454902
v -10.00513 0 4.387638 0.8156863 0.4784314 0.454902
v -10.00513 1.011343 4.387638 0.8156863 0.4784314 0.454902
v -10.0767 0.4268345 5.181032 0.645 0.3783173 0.3628125
v -10.53025 0.4268345 5.181032 0.645 0.3783173 0.3628125
v -10.0767 0.4268345 4.47256 0.645 0.3783173 0.3628125
v -10.53025 0.4268345 4.47256 0.645 0.3783173 0.3628125
v -9.981202 1.044087 5.285304 0.8156863 0.4784314 0.454902
v -10.62575 1.044087 5.285304 0.8156863 0.4784314 0.454902
v -9.981202 1.044087 4.368289 0.8156863 0.4784314 0.454902
v -10.62575 1.044087 4.368289 0.8156863 0.4784314 0.454902
v -9.942964 1.051164 5.339706 0.8156863 0.4784314 0.454902
v -10.66399 1.051164 5.339706 0.8156863 0.4784314 0.454902
v -9.942964 1.051164 4.313886 0.8156863 0.4784314 0.454902
v -10.66399 1.051164 4.313886 0.8156863 0.4784314 0.454902
v -10.0286 1.086469 5.256177 0.8156863 0.4784314 0.454902
v -10.57835 1.086469 5.256177 0.8156863 0.4784314 0.454902
v -10.0286 1.086469 4.397415 0.8156863 0.4784314 0.454902
v -10.57835 1.086469 4.397415 0.8156863 0.4784314 0.454902
v -10.0286 1.086469 5.256177 0.645 0.3783173 0.3628125
v -10.57835 1.086469 5.256177 0.645 0.3783173 0.3628125
v -10.0286 1.086469 4.397415 0.645 0.3783173 0.3628125
v -10.57835 1.086469 4.397415 0.645 0.3783173 0.3628125

vt 0.2265463 -0.6216531
vt -0.3701539 -0.6216531
vt 0.2265463 0.3896902
vt -0.3701534 0.3896902
vt 0.3429546 -0.6216533
vt -0.5353622 -0.6216533
vt 0.3429546 0.38969
vt -0.5353622 0.38969
vt 0.3701538 -0.621653
vt -0.2265463 -0.621653
vt 0.3701534 0.3896902
vt -0.2265463 0.3896902
vt 0.5353622 -0.6216531
vt -0.3429546 -0.6216531
vt 0.5353622 0.3896902
vt -0.3429546 0.3896902
vt -0.1549673 0.2580323
vt 0.2985744 0.2580323
vt -0.1549673 -0.4504399
vt 0.2985744 -0.4504399
vt 0.2265463 -0.5353622
vt -0.3701539 -0.5353622
vt 0.2265463 0.3429546
vt -0.3701539 0.3429546
vt 0.2265463 0.5099663
vt -0.3701534 0.5099663
vt 0.2504702 0.548
vt -0.3940773 0.548
vt 0.5353622 0.4483027
vt -0.3429546 0.4483027
vt 0.5547113 0.4888556
vt -0.3623037 0.4888556
vt 0.3429546 0.5330228
vt -0.5353622 0.5330228
vt 0.3623037 0.5735756
vt -0.5547113 0.5735756
vt 0.3701534 0.6078507
vt -0.2265463 0.6078507
vt 0.3940773 0.6458845
vt -0.2504702 0.6458845
vt 0.2504702 0.4137654
vt -0.3940773 0.4137654
vt 0.2887087 0.468626
vt -0.4323158 0.468626
vt 0.3231573 -0.5547113
vt 0.3231573 0.3623037
vt 0.3620451 -0.6091137
vt 0.3620451 0.4167061
vt -0.4643669 0.3623037
vt -0.4643669 -0.5547113
vt -0.5032547 0.4167061
vt -0.5032547 -0.6091137
vt -0.3940773 -0.6045657
vt 0.2504702 -0.6045657
vt -0.4323158 -0.6594263
vt 0.2887087 -0.6594263
vt -0.2887087 0.2166097
vt 0.4323158 0.2166097
vt -0.2030725 0.1259258
vt 0.3466797 0.1259258
vt -0.1032066 -0.6091137
vt -0.1032066 0.4167061
vt -0.01057822 -0.5255847
vt -0.01057822 0.3331771
vt 0.2359733 0.4167061
vt 0.2359733 -0.6091137
vt 0.1433449 0.3331771
vt 0.1433449 -0.5255847
vt 0.4323158 -0.3938365
vt -0.2887087 -0.3938365
vt 0.3466797 -0.3031527
vt -0.2030725 -0.3031527
vt -0.2030725 0.4995402
vt 0.3466797 0.4995402
vt -0.1549673 -0.1643608
vt 0.2985744 -0.1643608
vt -0.5255847 0.4783551
vt 0.3331771 0.4783551
vt -0.4504399 -0.1830312
vt 0.2580323 -0.1830312
vt -0.3331771 0.4888002
vt 0.5255847 0.4888002
vt -0.2580323 -0.1725861
vt 0.4504399 -0.1725861
vt -0.3466797 0.5213181
vt 0.2030725 0.5213181
vt -0.2985744 -0.1425828
vt 0.1549673 -0.1425828

vn 0.5773502 -0.5773503 0.5773503
vn -0.5773504 -0.5773501 0.5773504
vn 0.6415599 -0.3899802 0.6605424
vn -0.64156 -0.3899801 0.6605424
vn -0.5773504 -0.5773501 -0.5773504
vn -0.64156 -0.3899801 -0.6605424
vn 0.5773503 -0.5773503 -0.5773503
vn 0.64156 -0.3899802 -0.6605424
vn -0.5418223 0.6442647 -0.53977
vn 0.5418223 0.6442647 -0.53977
vn -0.5418223 0.6442647 0.53977
vn 0.5418223 0.6442647 0.53977
vn 0.2929605 -0.9100889 0.2931081
vn -0.2929605 -0.9100889 0.2931081
vn 0.2929605 -0.9100889 -0.2931082
vn -0.2929605 -0.9100889 -0.2931082
vn 0.7254868 -0.1666305 0.6677598
vn -0.7254868 -0.1666305 0.6677598
vn 0.7254868 -0.1666304 -0.6677599
vn -0.7254868 -0.1666304 -0.6677599
vn -0.2791712 0.9203916 -0.2737569
vn 0.2791711 0.9203916 -0.2737569
vn -0.2791711 0.9203916 0.2737569
vn 0.2791712 0.9203916 0.2737569

usemtl Mat_White_Seam_1
f 3/3/3 4/4/4 2/2/2 1/1/1
f 4/7/4 6/8/6 5/6/5 2/5/2
f 6/11/6 8/12/8 7/10/7 5/9/5
f 8/15/8 3/16/3 1/14/1 7/13/7
f 11/19/11 12/20/12 10/18/10 9/17/9
f 1/23/1 2/24/2 5/22/5 7/21/7
f 13/27/13 14/28/14 4/26/4 3/25/3
f 15/31/15 13/32/13 3/30/3 8/29/8
f 14/35/14 16/36/16 6/34/6 4/33/4
f 16/39/16 15/40/15 8/38/8 6/37/6
f 17/43/17 18/44/18 14/42/14 13/41/13
f 19/47/19 17/48/17 13/46/13 15/45/15
f 18/51/18 20/52/20 16/50/16 14/49/14
f 20/55/20 19/56/19 15/54/15 16/53/16
f 21/59/21 22/60/22 18/58/18 17/57/17
f 23/63/23 21/64/21 17/62/17 19/61/19
f 22/67/22 24/68/24 20/66/20 18/65/18
f 24/71/24 23/72/23 19/70/19 20/69/20
f 9/75/9 10/76/10 26/74/22 25/73/21
f 11/79/11 9/80/9 25/78/21 27/77/23
f 10/83/10 12/84/12 28/82/24 26/81/22
f 12/87/12 11/88/11 27/86/23 28/85/24

