# Export of strip-mall-exterior
# from Aaro4130 OBJ Exporter v2.0
mtllib mall-exterior-grass-block.mtl
g Sprite
v 45.46906 5.245209E-06 -30.91009
v 45.46906 -1.075335E-23 16.5
v -80.63184 4.768372E-06 -30.9101
v -80.63184 -1.075335E-23 16.5
v 45.46906 -1.075335E-23 16.5
v -80.63184 -1.075335E-23 16.5
v 45.46906 -15.003 16.5
v -80.63184 -15.003 16.5
vn -2.18319E-09 0.5773503 6.387506E-08
vn -1.091595E-09 0.5773503 6.097164E-08
vn -1.091595E-09 0.5773503 6.097164E-08
vn 0 0.5773503 5.806824E-08
vn 0 -1.281975E-17 0.5773503
vn 0 -1.281975E-17 0.5773503
vn 0 -1.281975E-17 0.5773503
vn 0 -1.281975E-17 0.5773503
vt -45.46906 -30.91009
vt -45.46906 16.5
vt 80.63184 -30.9101
vt 80.63184 16.5
vt 45.46906 3.663736E-16
vt -80.63184 3.663736E-16
vt 45.46906 -15.003
vt -80.63184 -15.003
usemtl Mat_Grassy
f 3/3/3 2/2/2 1/1/1
f 3/3/3 4/4/4 2/2/2
usemtl Mat_Cobblestone
f 5/5/5 6/6/6 7/7/7
f 6/6/6 8/8/8 7/7/7
