# ProBuilder 5.0.7
# https://unity3d.com/unity/features/worldbuilding/probuilder
# 3/17/2024 3:40:10 PM

mtllib ./post_(02).mtl
o post (02)

g post (02)
v -0.3079695 -0.584976 -7.51437E-07 0.7664471 0.8115456 0.9568627
v -0.3079695 0.2701752 -7.51437E-07 0.7664471 0.8115456 0.9568627
v -0.2667089 -0.584976 0.1536324 0.7664471 0.8115456 0.9568627
v -0.2667089 0.2701752 0.1536324 0.7664471 0.8115456 0.9568627
v -0.1539848 -0.584976 0.2660987 0.7664471 0.8115456 0.9568627
v -0.1539848 0.2701752 0.2660987 0.7664471 0.8115456 0.9568627
v -1.278987E-07 -0.584976 0.3072644 0.7664471 0.8115456 0.9568627
v -1.278987E-07 0.2701752 0.3072644 0.7664471 0.8115456 0.9568627
v 0.153984 -0.584976 0.2660987 0.7664471 0.8115456 0.9568627
v 0.153984 0.2701752 0.2660987 0.7664471 0.8115456 0.9568627
v 0.2667092 -0.584976 0.1536324 0.7664471 0.8115456 0.9568627
v 0.2667092 0.2701752 0.1536324 0.7664471 0.8115456 0.9568627
v 0.3079682 -0.584976 -1.296498E-06 0.7664471 0.8115456 0.9568627
v 0.3079682 0.2701752 -1.296498E-06 0.7664471 0.8115456 0.9568627
v 0.2667087 -0.584976 -0.1536344 0.7664471 0.8115456 0.9568627
v 0.2667087 0.2701752 -0.1536344 0.7664471 0.8115456 0.9568627
v 0.153984 -0.584976 -0.2661007 0.7664471 0.8115456 0.9568627
v 0.153984 0.2701752 -0.2661007 0.7664471 0.8115456 0.9568627
v -1.278987E-07 -0.584976 -0.3072665 0.7664471 0.8115456 0.9568627
v -1.278987E-07 0.2701752 -0.3072665 0.7664471 0.8115456 0.9568627
v -0.1539848 -0.584976 -0.2661007 0.7664471 0.8115456 0.9568627
v -0.1539848 0.2701752 -0.2661007 0.7664471 0.8115456 0.9568627
v -0.2667089 -0.584976 -0.1536333 0.7664471 0.8115456 0.9568627
v -0.2667089 0.2701752 -0.1536333 0.7664471 0.8115456 0.9568627
v -1.278987E-07 -0.584976 -7.51437E-07 0.7664471 0.8115456 0.9568627
v -1.278987E-07 0.2701752 -7.51437E-07 0.7664471 0.8115456 0.9568627

vt 1.049745 0.2648972
vt 1.416258 0.9148351
vt 1.097695 0.243912
vt 1.464208 0.8938498
vt 1.145646 0.2229269
vt 1.512158 0.8728647
vt 1.193596 0.2019417
vt 1.560108 0.8518797
vt 1.241546 0.1809566
vt 1.608059 0.8308944
vt 1.289496 0.1599714
vt 1.656009 0.8099092
vt 1.337447 0.1389862
vt 1.703959 0.788924
vt 1.385397 0.118001
vt 1.751909 0.7679389
vt 1.433347 0.09701592
vt 1.79986 0.7469538
vt 1.481297 0.07603073
vt 1.84781 0.7259686
vt 1.529247 0.05504566
vt 1.89576 0.7049835
vt 1.577198 0.03406051
vt 1.94371 0.6839983
vt 1.625148 0.01307526
vt 1.991661 0.6630132
vt -0.3079695 -7.51437E-07
vt -1.278987E-07 -7.51437E-07
vt -0.2667089 0.1536324
vt -0.6801543 2.231864
vt -0.9082752 1.848552
vt -0.7107176 2.231866
vt -0.1539848 0.2660987
vt -0.7942173 2.231868
vt -1.278987E-07 0.3072644
vt -0.9082798 2.231868
vt 0.153984 0.2660987
vt -1.022342 2.231868
vt 0.2667092 0.1536324
vt -1.105842 2.231866
vt 0.3079682 -1.296498E-06
vt -1.136405 2.231864
vt 0.2667087 -0.1536344
vt 0.153984 -0.2661007
vt -1.278987E-07 -0.3072665
vt -0.1539848 -0.2661007
vt -0.2667089 -0.1536333

vn -1 0 -4.165884E-07
vn -0.8655951 0 0.5007446
vn -0.4992566 0 0.8664542
vn 4.164604E-07 0 1
vn 0.4992549 0 0.8664551
vn 0.8655966 0 0.500742
vn 1 0 -2.036649E-06
vn 0.8655961 0 -0.5007428
vn 0.4992559 0 -0.8664545
vn 4.318848E-07 0 -1
vn -0.4992586 0 -0.866453
vn -0.8655961 0 -0.5007429
vn 0 -1 0
vn 0 1 0

usemtl Mat_Stairs_1
f 1/27/13 25/28/13 3/29/13
f 3/29/13 25/28/13 5/33/13
f 5/33/13 25/28/13 7/35/13
f 7/35/13 25/28/13 9/37/13
f 9/37/13 25/28/13 11/39/13
f 11/39/13 25/28/13 13/41/13
f 13/41/13 25/28/13 15/43/13
f 15/43/13 25/28/13 17/44/13
f 17/44/13 25/28/13 19/45/13
f 19/45/13 25/28/13 21/46/13
f 21/46/13 25/28/13 23/47/13
f 23/47/13 25/28/13 1/27/13
f 4/4/2 2/2/1 1/1/1
f 1/1/1 3/3/2 4/4/2
f 6/6/3 4/4/2 3/3/2
f 3/3/2 5/5/3 6/6/3
f 8/8/4 6/6/3 5/5/3
f 5/5/3 7/7/4 8/8/4
f 10/10/5 8/8/4 7/7/4
f 7/7/4 9/9/5 10/10/5
f 12/12/6 10/10/5 9/9/5
f 9/9/5 11/11/6 12/12/6
f 14/14/7 12/12/6 11/11/6
f 11/11/6 13/13/7 14/14/7
f 16/16/8 14/14/7 13/13/7
f 13/13/7 15/15/8 16/16/8
f 18/18/9 16/16/8 15/15/8
f 15/15/8 17/17/9 18/18/9
f 20/20/10 18/18/9 17/17/9
f 17/17/9 19/19/10 20/20/10
f 22/22/11 20/20/10 19/19/10
f 19/19/10 21/21/11 22/22/11
f 24/24/12 22/22/11 21/21/11
f 21/21/11 23/23/12 24/24/12
f 2/26/1 24/24/12 23/23/12
f 23/23/12 1/25/1 2/26/1

usemtl Mat_White_Seam_1
f 4/32/14 26/31/14 2/30/14
f 6/34/14 26/31/14 4/32/14
f 8/36/14 26/31/14 6/34/14
f 10/38/14 26/31/14 8/36/14
f 12/40/14 26/31/14 10/38/14
f 14/42/14 26/31/14 12/40/14
f 16/40/14 26/31/14 14/42/14
f 18/38/14 26/31/14 16/40/14
f 20/36/14 26/31/14 18/38/14
f 22/34/14 26/31/14 20/36/14
f 24/32/14 26/31/14 22/34/14
f 2/30/14 26/31/14 24/32/14

