ply
format ascii 1.0
comment Exported by [ProBuilder](http://www.procore3d.com/probuilder)
comment 4/21/2024 8:27:11 AM
element vertex 259
property float32 x
property float32 y
property float32 z
property float32 nx
property float32 ny
property float32 nz
property uint8 red
property uint8 green
property uint8 blue
property uint8 alpha
element face 74
property list uint8 int32 vertex_index
end_header
7.226997 16.32359 -16.45298 0 -2.220446E-17 1 255 245 186 255
7.226997 6.877583 -16.45298 0 -2.220446E-17 1 255 245 186 255
7.226997 2.486526 -16.45298 0 -2.220446E-17 1 255 245 186 255
4.482421 2.486526 -16.45298 0 -2.220446E-17 1 255 245 186 255
4.482422 16.32359 -16.45298 0 -2.220446E-17 1 255 245 186 255
23.21859 2.486526 -16.45298 0 -2.220446E-17 1 255 245 186 255
7.226997 2.486526 -16.45298 0 -2.220446E-17 1 255 245 186 255
7.226997 6.877583 -16.45298 0 -2.220446E-17 1 255 245 186 255
23.21859 5.290466 -16.45298 0 -2.220446E-17 1 255 245 186 255
29.2506 2.486526 -16.45298 0 -2.220446E-17 1 255 245 186 255
25.22749 2.486526 -16.45298 0 -2.220446E-17 1 255 245 186 255
25.22749 5.290466 -16.45298 0 -2.220446E-17 1 255 245 186 255
29.2506 6.877583 -16.45298 0 -2.220446E-17 1 255 245 186 255
25.22749 2.486526 -17.86629 0 -2.220446E-17 1 255 255 255 255
23.21859 2.486526 -17.86629 0 -2.220446E-17 1 255 255 255 255
23.21859 5.290466 -17.86629 0 -2.220446E-17 1 255 255 255 255
25.22749 5.290466 -17.86629 0 -2.220446E-17 1 255 255 255 255
23.21859 5.290466 -16.45298 0 -2.220446E-17 1 255 245 186 255
7.226997 6.877583 -16.45298 0 -2.220446E-17 1 255 245 186 255
7.226997 16.32359 -16.45298 0 -2.220446E-17 1 255 245 186 255
29.2506 16.32359 -16.45298 0 -2.220446E-17 1 255 245 186 255
29.2506 6.877583 -16.45298 0 -2.220446E-17 1 255 245 186 255
25.22749 5.290466 -16.45298 0 -2.220446E-17 1 255 245 186 255
25.22749 2.486526 -16.45298 0 1 2.220446E-17 205 221 239 255
23.21859 2.486526 -16.45298 0 1 2.220446E-17 205 221 239 255
25.22749 2.486526 -17.21892 0 1 2.220446E-17 205 221 239 255
23.21859 2.486526 -17.21892 0 1 2.220446E-17 205 221 239 255
25.22749 5.290466 -16.45298 -1 0 0 184 149 121 255
25.22749 2.486526 -16.45298 -1 0 0 184 149 121 255
25.22749 5.290466 -17.21892 -1 0 0 184 149 121 255
25.22749 2.486526 -17.21892 -1 0 0 184 149 121 255
23.21859 2.486526 -16.45298 1 0 0 184 149 121 255
23.21859 5.290466 -16.45298 1 0 0 184 149 121 255
23.21859 2.486526 -17.21892 1 0 0 184 149 121 255
23.21859 5.290466 -17.21892 1 0 0 184 149 121 255
23.21859 5.290466 -16.45298 0 -1 -2.220446E-17 184 149 121 255
25.22749 5.290466 -16.45298 0 -1 -2.220446E-17 184 149 121 255
23.21859 5.290466 -17.21892 0 -1 -2.220446E-17 184 149 121 255
25.22749 5.290466 -17.21892 0 -1 -2.220446E-17 184 149 121 255
25.22749 2.486526 -17.21892 0 1 2.220446E-17 205 221 239 255
23.21859 2.486526 -17.21892 0 1 2.220446E-17 205 221 239 255
25.22749 2.486526 -17.86629 0 1 2.220446E-17 205 221 239 255
23.21859 2.486526 -17.86629 0 1 2.220446E-17 205 221 239 255
25.22749 5.290466 -17.21892 -1 0 0 184 149 121 255
25.22749 2.486526 -17.21892 -1 0 0 184 149 121 255
25.22749 5.290466 -17.86629 -1 0 0 184 149 121 255
25.22749 2.486526 -17.86629 -1 0 0 184 149 121 255
23.21859 2.486526 -17.21892 1 0 0 184 149 121 255
23.21859 5.290466 -17.21892 1 0 0 184 149 121 255
23.21859 2.486526 -17.86629 1 0 0 184 149 121 255
23.21859 5.290466 -17.86629 1 0 0 184 149 121 255
23.21859 5.290466 -17.21892 0 -1 -2.220446E-17 184 149 121 255
25.22749 5.290466 -17.21892 0 -1 -2.220446E-17 184 149 121 255
23.21859 5.290466 -17.86629 0 -1 -2.220446E-17 184 149 121 255
25.22749 5.290466 -17.86629 0 -1 -2.220446E-17 184 149 121 255
29.2506 16.32359 -16.45298 -1 0 0 215 250 247 255
29.2506 6.877583 -16.45298 -1 0 0 215 250 247 255
29.2506 16.32359 3.262695 -1 0 0 215 250 247 255
29.2506 6.877583 3.262695 -1 0 0 215 250 247 255
29.2506 6.877583 -16.45298 -1 0 0 215 250 247 255
29.2506 2.486526 -16.45298 -1 0 0 215 250 247 255
29.2506 6.877583 3.262695 -1 0 0 215 250 247 255
29.2506 2.486526 3.262695 -1 0 0 215 250 247 255
4.482421 2.486526 -16.45298 0 -2.220446E-17 1 255 245 186 255
-16.12207 2.486526 -16.45298 0 -2.220446E-17 1 255 245 186 255
-16.12207 10.59961 -16.45298 0 -2.220446E-17 1 255 245 186 255
-16.12207 12.88223 -16.45298 0 -2.220446E-17 1 255 245 186 255
-16.12207 16.32359 -16.45298 0 -2.220446E-17 1 255 245 186 255
4.482422 16.32359 -16.45298 0 -2.220446E-17 1 255 245 186 255
7.226997 2.486526 -16.45298 0 -2.220446E-17 1 255 245 186 255
4.482421 2.486526 -16.45298 0 -2.220446E-17 1 255 245 186 255
7.226997 -41.39551 -16.45298 0 -2.220446E-17 1 255 245 186 255
4.482421 -41.39551 -16.45298 0 -2.220446E-17 1 255 245 186 255
-16.12207 10.59961 3.262695 1 0 0 225 215 169 255
-16.12207 12.88223 3.262695 1 0 0 225 215 169 255
-16.12207 13.44016 -7.521683 1 0 0 225 215 169 255
-16.12207 10.59961 -7.521683 1 0 0 225 215 169 255
-16.12207 16.32359 3.262695 1 6.078643E-07 1.433687E-08 225 215 169 255
-16.12207 16.32359 -16.45298 1 6.257381E-07 -1.483958E-08 225 215 169 255
-16.12207 12.88223 -16.45298 1 5.542426E-07 -4.451875E-08 225 215 169 255
-16.12207 13.44016 -9.50695 1 6.078643E-07 -2.225938E-08 225 215 169 255
-16.12207 13.44016 -7.521683 1 6.257381E-07 9.557916E-09 225 215 169 255
-16.12207 12.88223 3.262695 1 5.542426E-07 2.867375E-08 225 215 169 255
-17.20893 10.59961 -7.521683 1 0 0 225 215 169 255
-17.20893 13.44016 -7.521683 1 0 0 225 215 169 255
-17.20893 13.44016 -9.50695 1 0 0 225 215 169 255
-17.20893 10.59961 -9.50695 1 0 0 225 215 169 255
-16.12207 13.44016 -9.50695 1 0 0 225 215 169 255
-16.12207 12.88223 -16.45298 1 0 0 225 215 169 255
-16.12207 10.59961 -16.45298 1 0 0 225 215 169 255
-16.12207 10.59961 -9.50695 1 0 0 225 215 169 255
-16.12207 10.59961 -7.521683 0 2.220446E-17 -1 184 149 121 255
-16.12207 13.44016 -7.521683 0 2.220446E-17 -1 184 149 121 255
-16.75575 10.59961 -7.521683 0 2.220446E-17 -1 184 149 121 255
-16.75575 13.44016 -7.521683 0 2.220446E-17 -1 184 149 121 255
-16.12207 13.44016 -7.521683 0 -1 -2.220446E-17 184 149 121 255
-16.12207 13.44016 -9.50695 0 -1 -2.220446E-17 184 149 121 255
-16.75575 13.44016 -7.521683 0 -1 -2.220446E-17 184 149 121 255
-16.75575 13.44016 -9.50695 0 -1 -2.220446E-17 184 149 121 255
-16.12207 13.44016 -9.50695 0 -2.220446E-17 1 184 149 121 255
-16.12207 10.59961 -9.50695 0 -2.220446E-17 1 184 149 121 255
-16.75575 13.44016 -9.50695 0 -2.220446E-17 1 184 149 121 255
-16.75575 10.59961 -9.50695 0 -2.220446E-17 1 184 149 121 255
-16.12207 10.59961 -9.50695 0 1 2.220446E-17 205 221 239 255
-16.12207 10.59961 -7.521683 0 1 2.220446E-17 205 221 239 255
-16.75575 10.59961 -9.50695 0 1 2.220446E-17 205 221 239 255
-16.75575 10.59961 -7.521683 0 1 2.220446E-17 205 221 239 255
-16.75575 10.59961 -7.521683 0 2.220446E-17 -1 184 149 121 255
-16.75575 13.44016 -7.521683 0 2.220446E-17 -1 184 149 121 255
-17.20893 10.59961 -7.521683 0 2.220446E-17 -1 184 149 121 255
-17.20893 13.44016 -7.521683 0 2.220446E-17 -1 184 149 121 255
-16.75575 13.44016 -7.521683 0 -1 -2.220446E-17 184 149 121 255
-16.75575 13.44016 -9.50695 0 -1 -2.220446E-17 184 149 121 255
-17.20893 13.44016 -7.521683 0 -1 -2.220446E-17 184 149 121 255
-17.20893 13.44016 -9.50695 0 -1 -2.220446E-17 184 149 121 255
-16.75575 13.44016 -9.50695 0 -2.220446E-17 1 184 149 121 255
-16.75575 10.59961 -9.50695 0 -2.220446E-17 1 184 149 121 255
-17.20893 13.44016 -9.50695 0 -2.220446E-17 1 184 149 121 255
-17.20893 10.59961 -9.50695 0 -2.220446E-17 1 184 149 121 255
-16.75575 10.59961 -9.50695 0 1 2.220446E-17 205 221 239 255
-16.75575 10.59961 -7.521683 0 1 2.220446E-17 205 221 239 255
-17.20893 10.59961 -9.50695 0 1 2.220446E-17 205 221 239 255
-17.20893 10.59961 -7.521683 0 1 2.220446E-17 205 221 239 255
-16.12207 10.59961 6.948624 0 -2.220446E-17 1 255 245 186 255
-16.12207 12.88223 6.948624 0 -2.220446E-17 1 255 245 186 255
-35.4916 10.59961 6.948624 0 -2.220446E-17 1 255 245 186 255
-35.4916 12.88223 6.948624 0 -2.220446E-17 1 255 245 186 255
-16.12207 12.88223 6.948624 0 -2.220446E-17 1 255 245 186 255
-16.12207 16.32359 6.948624 0 -2.220446E-17 1 255 245 186 255
-35.4916 12.88223 6.948624 0 -2.220446E-17 1 255 245 186 255
-35.4916 16.32359 6.948624 0 -2.220446E-17 1 255 245 186 255
-16.12207 10.59961 6.948624 0 -2.220446E-17 1 255 245 186 255
-35.4916 10.59961 6.948624 0 -2.220446E-17 1 255 245 186 255
-16.12207 -41.39551 6.948624 0 -2.220446E-17 1 255 245 186 255
-35.4916 -41.39551 6.948624 0 -2.220446E-17 1 255 245 186 255
-16.12207 16.32359 3.262695 1 5.542426E-07 1.230666E-23 225 215 169 255
-16.12207 12.88223 3.262695 1 5.542426E-07 1.230666E-23 225 215 169 255
-16.12207 16.32359 6.948624 1 5.542426E-07 1.230666E-23 225 215 169 255
-16.12207 12.88223 6.948624 1 5.542426E-07 1.230666E-23 225 215 169 255
-16.12207 12.88223 3.262695 1 0 0 225 215 169 255
-16.12207 10.59961 3.262695 1 0 0 225 215 169 255
-16.12207 12.88223 6.948624 1 0 0 225 215 169 255
-16.12207 10.59961 6.948624 1 0 0 225 215 169 255
-16.12207 10.59961 3.262695 1 0 0 225 215 169 255
-16.12207 -41.39551 3.262695 1 0 0 225 215 169 255
-16.12207 10.59961 6.948624 1 0 0 225 215 169 255
-16.12207 -41.39551 6.948624 1 0 0 225 215 169 255
29.2506 16.32359 16.27913 0 -2.220446E-17 1 215 250 247 255
29.2506 6.877583 16.27913 0 -2.220446E-17 1 215 250 247 255
43.90009 16.32359 16.27913 0 -2.220446E-17 1 215 250 247 255
43.90009 6.877583 16.27913 0 -2.220446E-17 1 215 250 247 255
29.2506 6.877583 16.27913 0 -2.220446E-17 1 215 250 247 255
29.2506 2.486526 16.27913 0 -2.220446E-17 1 215 250 247 255
43.90009 6.877583 16.27913 0 -2.220446E-17 1 215 250 247 255
43.90009 2.486526 16.27913 0 -2.220446E-17 1 215 250 247 255
29.2506 6.877583 3.262695 -1 0 0 215 250 247 255
29.2506 16.32359 3.262695 -1 0 0 215 250 247 255
29.2506 6.877583 16.27913 -1 0 0 215 250 247 255
29.2506 16.32359 16.27913 -1 0 0 215 250 247 255
43.90009 16.32359 3.262695 1 0 0 215 250 247 255
43.90009 6.877583 3.262695 1 0 0 215 250 247 255
43.90009 16.32359 16.27913 1 0 0 215 250 247 255
43.90009 6.877583 16.27913 1 0 0 215 250 247 255
43.90009 6.877583 3.262695 1 0 0 215 250 247 255
43.90009 2.486526 3.262695 1 0 0 215 250 247 255
43.90009 6.877583 16.27913 1 0 0 215 250 247 255
43.90009 2.486526 16.27913 1 0 0 215 250 247 255
29.2506 2.486526 3.262695 -1 0 0 215 250 247 255
29.2506 6.877583 3.262695 -1 0 0 215 250 247 255
29.2506 2.486526 16.27913 -1 0 0 215 250 247 255
29.2506 6.877583 16.27913 -1 0 0 215 250 247 255
29.2506 2.486526 16.27913 -1 0 0 215 250 247 255
29.2506 2.486526 3.262695 -1 0 0 215 250 247 255
29.2506 -41.39551 16.27913 -1 0 0 215 250 247 255
29.2506 -41.39551 3.262695 -1 0 0 215 250 247 255
43.90009 2.486526 16.27913 0 -2.220446E-17 1 215 250 247 255
29.2506 2.486526 16.27913 0 -2.220446E-17 1 215 250 247 255
43.90009 -41.39551 16.27913 0 -2.220446E-17 1 215 250 247 255
29.2506 -41.39551 16.27913 0 -2.220446E-17 1 215 250 247 255
43.90009 2.486526 3.262695 1 0 0 215 250 247 255
43.90009 2.486526 16.27913 1 0 0 215 250 247 255
43.90009 -41.39551 3.262695 1 0 0 215 250 247 255
43.90009 -41.39551 16.27913 1 0 0 215 250 247 255
43.90009 16.32359 16.27913 1 0 0 215 250 247 255
43.90009 16.32359 3.262695 1 -1.729355E-05 5.714822E-06 215 250 247 255
43.90009 20.625 16.27913 1 -1.729355E-05 5.714822E-06 215 250 247 255
43.90024 20.625 3.262695 1 -3.45871E-05 1.142964E-05 215 250 247 255
4.482422 16.32359 -16.45298 0 -2.220446E-17 1 255 245 186 255
7.226997 16.32359 -16.45298 0 -2.220446E-17 1 255 245 186 255
4.482422 20.625 -16.45298 0 -2.220446E-17 1 255 245 186 255
7.226997 20.625 -16.45298 0 -2.220446E-17 1 255 245 186 255
7.226997 16.32359 -16.45298 0 -2.220446E-17 1 255 245 186 255
29.2506 16.32359 -16.45298 0 -2.220446E-17 1 255 245 186 255
7.226997 20.625 -16.45298 0 -2.220446E-17 1 255 245 186 255
29.2506 20.625 -16.45298 0 -2.220446E-17 1 255 245 186 255
29.2506 16.32359 -16.45298 -1 0 0 215 250 247 255
29.2506 16.32359 3.262695 -1 0 0 215 250 247 255
29.2506 20.625 -16.45298 -1 0 0 215 250 247 255
29.2506 20.625 3.262695 -1 0 0 215 250 247 255
-16.12207 16.32359 -16.45298 0 -2.220446E-17 1 255 245 186 255
4.482422 16.32359 -16.45298 0 -2.220446E-17 1 255 245 186 255
-16.12207 20.625 -16.45298 0 -2.220446E-17 1 255 245 186 255
4.482422 20.625 -16.45298 0 -2.220446E-17 1 255 245 186 255
-16.12207 16.32359 3.262695 1 4.434244E-07 9.846E-24 225 215 169 255
-16.12207 16.32359 -16.45298 1 4.434244E-07 9.846E-24 225 215 169 255
-16.12207 20.625 3.262695 1 4.434244E-07 9.846E-24 225 215 169 255
-16.12207 20.625 -16.45298 1 4.434244E-07 9.846E-24 225 215 169 255
-35.4916 16.32359 6.948624 0 -2.220446E-17 1 255 245 186 255
-16.12207 16.32359 6.948624 0 -2.220446E-17 1 255 245 186 255
-35.49141 20.625 6.948624 0 -2.220446E-17 1 255 245 186 255
-16.12207 20.625 6.948624 0 -2.220446E-17 1 255 245 186 255
-16.12207 16.32359 6.948624 1 4.434244E-07 9.846E-24 225 215 169 255
-16.12207 16.32359 3.262695 1 4.434244E-07 9.846E-24 225 215 169 255
-16.12207 20.625 6.948624 1 4.434244E-07 9.846E-24 225 215 169 255
-16.12207 20.625 3.262695 1 4.434244E-07 9.846E-24 225 215 169 255
29.2506 16.32359 16.27913 0 -2.220446E-17 1 215 250 247 255
43.90009 16.32359 16.27913 0 -2.220446E-17 1 215 250 247 255
29.2506 20.625 16.27913 0 -2.220446E-17 1 215 250 247 255
43.90009 20.625 16.27913 0 -2.220446E-17 1 215 250 247 255
29.2506 16.32359 3.262695 -1 0 0 215 250 247 255
29.2506 16.32359 16.27913 -1 0 0 215 250 247 255
29.2506 20.625 3.262695 -1 0 0 215 250 247 255
29.2506 20.625 16.27913 -1 0 0 215 250 247 255
-16.12207 20.625 3.262695 0 1 2.220446E-17 225 215 169 255
-16.12207 20.625 -16.45298 0 1 2.220446E-17 225 215 169 255
-35.49121 20.625 3.262695 0 1 2.220446E-17 225 215 169 255
-35.49121 20.625 -16.45298 0 1 2.220446E-17 225 215 169 255
-16.12207 20.625 6.948624 0 1 2.220446E-17 225 215 169 255
-16.12207 20.625 3.262695 0 1 2.220446E-17 225 215 169 255
-35.49141 20.625 6.948624 0 1 2.220446E-17 225 215 169 255
-35.49121 20.625 3.262695 0 1 2.220446E-17 225 215 169 255
-35.49121 20.625 -16.45298 0 1 2.220446E-17 225 215 169 255
-16.12207 20.625 -16.45298 0 1 2.220446E-17 225 215 169 255
-35.49121 20.625 -28.09726 0 1 2.220446E-17 225 215 169 255
-16.12207 20.625 -28.09726 0 1 2.220446E-17 225 215 169 255
-16.12207 20.625 -16.45298 0 1 2.220446E-17 255 245 186 255
4.482422 20.625 -16.45298 0 1 2.220446E-17 255 245 186 255
-16.12207 20.625 -28.09726 0 1 2.220446E-17 255 245 186 255
4.482422 20.625 -28.09726 0 1 2.220446E-17 255 245 186 255
7.226997 20.625 -16.45298 0 1 2.220446E-17 255 245 186 255
29.2506 20.625 -16.45298 0 1 2.220446E-17 255 245 186 255
7.226997 20.625 -28.09726 0 1 2.220446E-17 255 245 186 255
29.2506 20.625 -28.09726 0 1 2.220446E-17 255 245 186 255
4.482422 20.625 -16.45298 0 1 2.220446E-17 255 245 186 255
7.226997 20.625 -16.45298 0 1 2.220446E-17 255 245 186 255
4.482422 20.625 -28.09726 0 1 2.220446E-17 255 245 186 255
7.226997 20.625 -28.09726 0 1 2.220446E-17 255 245 186 255
29.2506 20.625 3.262695 0 1 2.220446E-17 215 250 247 255
29.2506 20.625 16.27913 0 1 2.220446E-17 215 250 247 255
43.90024 20.625 3.262695 0 1 2.220446E-17 215 250 247 255
43.90009 20.625 16.27913 0 1 2.220446E-17 215 250 247 255
29.2506 20.625 -16.45298 0 1 2.220446E-17 215 250 247 255
29.2506 20.625 3.262695 0 1 2.220446E-17 215 250 247 255
43.90039 20.625 -16.45298 0 1 2.220446E-17 215 250 247 255
43.90024 20.625 3.262695 0 1 2.220446E-17 215 250 247 255
29.2506 20.625 -28.09726 0 1 2.220446E-17 255 245 186 255
29.2506 20.625 -16.45298 0 1 2.220446E-17 255 245 186 255
43.90039 20.625 -28.09726 0 1 2.220446E-17 255 245 186 255
43.90039 20.625 -16.45298 0 1 2.220446E-17 255 245 186 255
3 4 1 0
3 1 3 2
3 1 4 3
4 7 6 5 8
4 12 11 10 9
4 16 15 14 13
3 19 18 17
3 22 21 20
3 17 22 20
3 19 17 20
4 25 26 24 23
4 29 30 28 27
4 33 34 32 31
4 37 38 36 35
4 41 42 40 39
4 45 46 44 43
4 49 50 48 47
4 53 54 52 51
4 58 57 55 56
4 62 61 59 60
3 65 64 63
3 68 65 63
3 68 66 65
3 67 66 68
4 72 71 69 70
4 76 75 74 73
3 81 78 77
3 81 80 78
3 80 79 78
3 77 82 81
4 86 85 84 83
4 89 88 87 90
4 93 94 92 91
4 97 98 96 95
4 101 102 100 99
4 105 106 104 103
4 109 110 108 107
4 113 114 112 111
4 117 118 116 115
4 121 122 120 119
4 126 125 123 124
4 130 129 127 128
4 134 133 131 132
4 137 138 136 135
4 141 142 140 139
4 145 146 144 143
4 150 149 147 148
4 154 153 151 152
4 157 158 156 155
4 161 162 160 159
4 165 166 164 163
4 169 170 168 167
4 174 173 171 172
4 178 177 175 176
4 182 181 179 180
4 186 185 183 184
4 190 189 187 188
4 194 193 191 192
4 198 197 195 196
4 202 201 199 200
4 206 205 203 204
4 210 209 207 208
4 214 213 211 212
4 218 217 215 216
4 222 221 219 220
4 226 225 223 224
4 230 229 227 228
4 234 233 231 232
4 238 237 235 236
4 242 241 239 240
4 246 245 243 244
4 250 249 247 248
4 254 253 251 252
4 258 257 255 256
