# Blender v3.2.2 OBJ File: ''
# www.blender.org
mtllib apartment-lot_apartment-building.mtl
o apartment-lot_apartment-building
v 15.083660 1.676761 -15.979760
v 15.083660 1.676761 -17.949930
v 15.083660 4.637707 -15.979759
v 15.083660 4.637708 -17.949930
v 27.664049 50.125027 15.793879
v 11.101230 50.125027 15.793879
v 27.664049 50.125034 -23.326843
v 11.101230 50.125034 -23.326843
v 27.664049 0.000004 -23.326851
v 11.101230 0.000004 -23.326851
v 27.664049 -0.000003 15.793870
v 11.101230 -0.000003 15.793870
v 11.101230 1.676760 -14.720700
v 11.101230 1.676761 -19.208981
v 11.101230 7.555051 -19.208979
v 11.101230 7.555050 -14.720699
v 11.101230 1.676760 -14.720700
v 11.101230 1.676761 -19.208981
v 13.231450 1.676760 -14.720700
v 13.231450 1.676761 -19.208981
v 13.231450 7.555050 -14.720699
v 13.231450 1.676760 -14.720700
v 13.231450 1.676761 -19.208981
v 13.231450 7.555051 -19.208979
v 13.231450 4.637707 -15.979759
v 13.231450 1.676761 -15.979760
v 13.231450 1.676761 -17.949930
v 13.231450 4.637708 -17.949930
v 13.231450 1.676761 -15.979760
v 13.231450 1.676761 -17.949930
v 15.083660 1.676761 -15.979760
v 15.083660 1.676761 -17.949930
v 11.101230 25.062508 15.793874
v 27.664049 25.062508 15.793874
v 11.101230 25.062513 -23.326847
v 27.664049 25.062513 -23.326847
vt -9.639179 19.263519
vt -9.639179 -5.798992
vt 6.923634 -5.798992
vt 6.923634 19.263519
vt -9.639179 44.326031
vt 6.923634 44.326031
vt -21.742870 1.756055
vt -21.742870 -4.122234
vt 8.771694 -5.798992
vt 8.771694 19.263519
vt -30.349030 -5.798992
vt -26.231159 -4.122234
vt -26.231159 1.756055
vt -30.349030 19.263519
vt -27.924686 19.263515
vt -24.972099 -1.161287
vt -24.972099 -4.122234
vt -23.001930 -4.122234
vt -23.001930 -1.161287
vt 9.639179 -30.349030
vt 9.639179 8.771694
vt -6.923634 8.771694
vt -6.923634 -30.349030
vt -9.639179 8.771694
vt -9.639179 -30.349030
vt 6.923634 -30.349030
vt 6.923634 8.771694
vt -9.193356 19.263515
vt 8.771694 44.326031
vt -30.349030 44.326031
vt 7.508964 -4.122234
vt 9.639179 -4.122234
vt 9.639179 1.756055
vt 7.508964 1.756055
vt -7.508964 1.756055
vt -9.639179 1.756055
vt -9.639179 -4.122234
vt -7.508964 -4.122234
vt -7.508964 -21.742870
vt -9.639179 -21.742870
vt -9.639179 -26.231159
vt -7.508964 -26.231159
vt -23.001930 -4.122234
vt -21.742870 -4.122234
vt -21.742870 1.756055
vt -23.001930 -1.161287
vt -24.972099 -1.161287
vt -26.231159 1.756055
vt -26.231159 -4.122234
vt -24.972099 -4.122234
vt 5.656750 -4.122234
vt 7.508964 -4.122234
vt 7.508964 -1.161287
vt 5.656750 -1.161287
vt -5.656750 -1.161287
vt -7.508964 -1.161287
vt -7.508964 -4.122234
vt -5.656750 -4.122234
vt -5.656750 -23.001930
vt -7.508964 -23.001930
vt -7.508964 -24.972099
vt -5.656750 -24.972099
vt 30.349030 19.263519
vt -8.771694 19.263519
vt -8.771694 -5.798992
vt 30.349030 -5.798992
vt 30.349030 44.326031
vt -8.771694 44.326031
vt 9.639179 19.263519
vt -6.923634 19.263519
vt -6.923634 -5.798992
vt 9.639179 -5.798992
vt 9.639179 44.326031
vt -6.923634 44.326031
vt 7.508964 -21.742870
vt 7.508964 -26.231159
vt 9.639179 -26.231159
vt 9.639179 -21.742870
vt 5.656750 -23.001930
vt 5.656750 -24.972099
vt 7.508964 -24.972099
vt 7.508964 -23.001930
vn 0.0000 -0.0000 1.0000
vn -1.0000 -0.0000 0.0000
vn 0.0000 1.0000 0.0000
vn 0.0000 -1.0000 -0.0000
vn 0.0000 0.0000 -1.0000
vn 1.0000 -0.0000 0.0000
usemtl Mat_White_Seam
s off
f 33/1/1 12/2/1 11/3/1
f 33/1/1 11/3/1 34/4/1
f 6/5/1 33/1/1 34/4/1
f 6/5/1 34/4/1 5/6/1
f 16/7/2 13/8/2 12/9/2
f 16/7/2 12/9/2 33/10/2
f 10/11/2 14/12/2 15/13/2
f 35/14/2 10/11/2 15/13/2
f 35/14/2 15/13/2 33/15/2
f 4/16/2 2/17/2 1/18/2
f 1/18/2 3/19/2 4/16/2
f 8/20/3 6/21/3 5/22/3
f 5/22/3 7/23/3 8/20/3
f 12/24/4 10/25/4 9/26/4
f 9/26/4 11/27/4 12/24/4
f 14/12/2 10/11/2 12/9/2
f 12/9/2 13/8/2 14/12/2
f 33/28/2 6/29/2 8/30/2
f 33/15/2 15/13/2 16/7/2
f 22/31/5 13/32/5 16/33/5
f 16/33/5 21/34/5 22/31/5
f 24/35/1 15/36/1 14/37/1
f 14/37/1 23/38/1 24/35/1
f 21/39/4 16/40/4 15/41/4
f 15/41/4 24/42/4 21/39/4
f 26/43/2 22/44/2 21/45/2
f 21/45/2 25/46/2 26/43/2
f 28/47/2 24/48/2 23/49/2
f 23/49/2 27/50/2 28/47/2
f 25/46/2 21/45/2 24/48/2
f 24/48/2 28/47/2 25/46/2
f 1/51/5 26/52/5 25/53/5
f 25/53/5 3/54/5 1/51/5
f 4/55/1 28/56/1 27/57/1
f 27/57/1 2/58/1 4/55/1
f 3/59/4 25/60/4 28/61/4
f 28/61/4 4/62/4 3/59/4
f 36/63/6 34/64/6 11/65/6
f 11/65/6 9/66/6 36/63/6
f 7/67/6 5/68/6 34/64/6
f 34/64/6 36/63/6 7/67/6
f 35/69/5 36/70/5 9/71/5
f 9/71/5 10/72/5 35/69/5
f 8/73/5 7/74/5 36/70/5
f 36/70/5 35/69/5 8/73/5
f 8/30/2 35/14/2 33/15/2
usemtl Mat_Concrete
f 19/75/3 20/76/3 18/77/3 17/78/3
f 31/79/3 32/80/3 30/81/3 29/82/3
