# ProBuilder 5.0.7
# https://unity3d.com/unity/features/worldbuilding/probuilder
# 2/13/2025 7:23:16 PM

mtllib ./FlowerPlanterPot.mtl
o FlowerPlanterPot

g Pf_FlowerPlanterPot
v 0.5004011 -0.2197095 1.395829 0.645 0.3783173 0.3628125
v -5.960464E-08 -0.1835851 1.283336 0.645 0.3783173 0.3628125
v 0.5004011 0.2197024 1.395829 0.645 0.3783173 0.3628125
v -2.980232E-08 0.1835852 1.283336 0.645 0.3783173 0.3628125
v -5.960464E-08 -0.1835851 -1.283336 0.645 0.3783173 0.3628125
v -2.980232E-08 0.1835852 -1.283336 0.645 0.3783173 0.3628125
v 0.5004011 -0.2197095 -1.395829 0.645 0.3783173 0.3628125
v 0.5004011 0.2197024 -1.395829 0.645 0.3783173 0.3628125
v 0.5004119 -0.1612692 -1.327816 0.816 0.476609 0.45696
v 0.5004119 -0.1612692 1.327816 0.816 0.476609 0.45696
v 0.500411 0.1612825 -1.327816 0.816 0.476609 0.45696
v 0.500411 0.1612825 1.327816 0.816 0.476609 0.45696
v 0.5004011 0.2197024 1.395829 0.816 0.476609 0.45696
v -2.980232E-08 0.1835852 1.283336 0.816 0.476609 0.45696
v 0.5004011 0.2197024 -1.395829 0.816 0.476609 0.45696
v -2.980232E-08 0.1835852 -1.283336 0.816 0.476609 0.45696
v 0.5004011 -0.2197095 -1.395829 0.816 0.476609 0.45696
v -5.960464E-08 -0.1835851 -1.283336 0.816 0.476609 0.45696
v 0.5004011 -0.2197095 1.395829 0.816 0.476609 0.45696
v -5.960464E-08 -0.1835851 1.283336 0.816 0.476609 0.45696

vt -13.61467 2.577908
vt -14.58475 1.087429
vt -14.87524 2.577908
vt -15.63807 1.087404
vt 1.283336 -0.1835851
vt -1.283336 -0.1835851
vt 1.283336 0.1835852
vt -1.283336 0.1835852
vt -24.20446 1.087393
vt -24.31396 2.577914
vt -23.09147 1.087393
vt -22.98199 2.577914
vt 1.327816 -0.1612706
vt -1.327816 -0.1612706
vt 1.327816 0.1612811
vt -1.327816 0.1612811
vt -6.658067 2.577827
vt -8.188795 1.088161
vt -2.186705 2.59981
vt -4.978364 2.59981
vt -2.254718 2.21394
vt -4.910349 2.21394
vt -2.186711 2.610968
vt -2.254724 2.220649
vt -4.978358 2.610968
vt -4.910344 2.220649

vn -0.2193327 0 0.9756501
vn -1 8.116757E-08 0
vn -0.2193327 1.78027E-08 -0.9756501
vn 1 2.771865E-06 0
vn -0.07198928 0.9974054 0
vn -0.07200335 -0.9974044 0

usemtl WhiteSeam
f 3/3/1 4/4/1 2/2/1 1/1/1
f 4/7/2 6/8/2 5/6/2 2/5/2
f 6/11/3 8/12/3 7/10/3 5/9/3
f 15/12/5 16/11/5 14/4/5 13/3/5
f 19/1/6 20/2/6 18/18/6 17/17/6
f 9/21/4 10/22/4 19/20/4 17/19/4
f 11/24/4 9/21/4 17/19/4 15/23/4
f 10/22/4 12/26/4 13/25/4 19/20/4
f 12/26/4 11/24/4 15/23/4 13/25/4

usemtl DirtLarge
f 11/15/4 12/16/4 10/14/4 9/13/4

