<?xml version="1.0" encoding="UTF-8" standalone="no"?>
<!-- Created with Inkscape (http://www.inkscape.org/) -->

<svg
   width="210mm"
   height="297mm"
   viewBox="0 0 210 297"
   version="1.1"
   id="svg1"
   inkscape:version="1.3 (0e150ed6c4, 2023-07-21)"
   sodipodi:docname="chandroid logo.svg"
   xmlns:inkscape="http://www.inkscape.org/namespaces/inkscape"
   xmlns:sodipodi="http://sodipodi.sourceforge.net/DTD/sodipodi-0.dtd"
   xmlns:xlink="http://www.w3.org/1999/xlink"
   xmlns="http://www.w3.org/2000/svg"
   xmlns:svg="http://www.w3.org/2000/svg">
  <sodipodi:namedview
     id="namedview1"
     pagecolor="#ffffff"
     bordercolor="#000000"
     borderopacity="0.25"
     inkscape:showpageshadow="2"
     inkscape:pageopacity="0.0"
     inkscape:pagecheckerboard="0"
     inkscape:deskcolor="#d1d1d1"
     inkscape:document-units="mm"
     inkscape:zoom="2.9611953"
     inkscape:cx="267.45956"
     inkscape:cy="468.89849"
     inkscape:window-width="1920"
     inkscape:window-height="1027"
     inkscape:window-x="1912"
     inkscape:window-y="532"
     inkscape:window-maximized="1"
     inkscape:current-layer="g3" />
  <defs
     id="defs1">
    <linearGradient
       id="linearGradient22"
       inkscape:collect="always">
      <stop
         style="stop-color:#a6a6a6;stop-opacity:1;"
         offset="0"
         id="stop22" />
      <stop
         style="stop-color:#a6a6a6;stop-opacity:1;"
         offset="0.05345211"
         id="stop24" />
      <stop
         style="stop-color:#cccccc;stop-opacity:1;"
         offset="0.05345211"
         id="stop25" />
      <stop
         style="stop-color:#d4d4d4;stop-opacity:1;"
         offset="0.16898665"
         id="stop30" />
      <stop
         style="stop-color:#a6a6a6;stop-opacity:1;"
         offset="0.16898665"
         id="stop29" />
      <stop
         style="stop-color:#a6a6a6;stop-opacity:1;"
         offset="0.58157015"
         id="stop31" />
      <stop
         style="stop-color:#4e4e4e;stop-opacity:1;"
         offset="0.58157015"
         id="stop32" />
      <stop
         style="stop-color:#4e4e4e;stop-opacity:1;"
         offset="0.72160357"
         id="stop26" />
      <stop
         style="stop-color:#7a7a7a;stop-opacity:1;"
         offset="0.72160357"
         id="stop27" />
      <stop
         style="stop-color:#7a7a7a;stop-opacity:1;"
         offset="0.79287308"
         id="stop28" />
      <stop
         style="stop-color:#a6a6a6;stop-opacity:1;"
         offset="0.79287308"
         id="stop23" />
    </linearGradient>
    <inkscape:path-effect
       effect="powerstroke"
       id="path-effect18"
       is_visible="true"
       lpeversion="1.3"
       scale_width="1"
       interpolator_type="CentripetalCatmullRom"
       interpolator_beta="0.2"
       start_linecap_type="zerowidth"
       end_linecap_type="square"
       offset_points="0.45954079,0.38622972 | 1.5,0.3999995 | 2.8,0.3999995"
       linejoin_type="round"
       miter_limit="4"
       not_jump="false"
       sort_points="true"
       message="&lt;b&gt;Ctrl + click&lt;/b&gt; on existing node and move it" />
    <inkscape:path-effect
       effect="powerstroke"
       id="path-effect17"
       is_visible="true"
       lpeversion="1.3"
       scale_width="1"
       interpolator_type="CentripetalCatmullRom"
       interpolator_beta="0.2"
       start_linecap_type="zerowidth"
       end_linecap_type="square"
       offset_points="0.23431238,0.23406322 | 0.81784291,0.3999995 | 1.8,0.3999995"
       linejoin_type="round"
       miter_limit="4"
       not_jump="false"
       sort_points="true"
       message="&lt;b&gt;Ctrl + click&lt;/b&gt; on existing node and move it" />
    <inkscape:path-effect
       effect="powerstroke"
       id="path-effect15"
       is_visible="true"
       lpeversion="1.3"
       scale_width="1"
       interpolator_type="CentripetalCatmullRom"
       interpolator_beta="0.2"
       start_linecap_type="square"
       end_linecap_type="zerowidth"
       offset_points="0.2,0.3999995 | 0.43856578,0.40716323 | 0.71997492,0.27223223"
       linejoin_type="round"
       miter_limit="4"
       not_jump="false"
       sort_points="true"
       message="&lt;b&gt;Ctrl + click&lt;/b&gt; on existing node and move it" />
    <inkscape:path-effect
       effect="powerstroke"
       id="path-effect14"
       is_visible="true"
       lpeversion="1.3"
       scale_width="1"
       interpolator_type="CentripetalCatmullRom"
       interpolator_beta="0.2"
       start_linecap_type="square"
       end_linecap_type="zerowidth"
       offset_points="0.017141783,0.20638871 | 1.7266676,0.41041942 | 3.2642203,0.3999995 | 5.7864462,0.2916297"
       linejoin_type="round"
       miter_limit="4"
       not_jump="false"
       sort_points="true"
       message="&lt;b&gt;Ctrl + click&lt;/b&gt; on existing node and move it" />
    <inkscape:path-effect
       effect="powerstroke"
       id="path-effect13"
       is_visible="true"
       lpeversion="1.3"
       scale_width="1"
       interpolator_type="CentripetalCatmullRom"
       interpolator_beta="0.2"
       start_linecap_type="square"
       end_linecap_type="square"
       offset_points="0,0.22671118 | 0.5,0.3999995 | 0.8,0.3999995"
       linejoin_type="round"
       miter_limit="4"
       not_jump="false"
       sort_points="true"
       message="&lt;b&gt;Ctrl + click&lt;/b&gt; on existing node and move it" />
    <inkscape:path-effect
       effect="powerstroke"
       id="path-effect12"
       is_visible="true"
       lpeversion="1.3"
       scale_width="1"
       interpolator_type="CentripetalCatmullRom"
       interpolator_beta="0.2"
       start_linecap_type="zerowidth"
       end_linecap_type="zerowidth"
       offset_points="0.2,0.3999995 | 2.5,0.3999995 | 4.8,0.3999995"
       linejoin_type="round"
       miter_limit="4"
       not_jump="false"
       sort_points="true"
       message="&lt;b&gt;Ctrl + click&lt;/b&gt; on existing node and move it" />
    <inkscape:path-effect
       effect="powerstroke"
       id="path-effect11"
       is_visible="true"
       lpeversion="1.3"
       scale_width="0.71530758"
       interpolator_type="CentripetalCatmullRom"
       interpolator_beta="0.2"
       start_linecap_type="zerowidth"
       end_linecap_type="zerowidth"
       offset_points="0.32521642,0.47204299 | 3.5,0.3999995 | 5.6427542,0.45545775"
       linejoin_type="round"
       miter_limit="4"
       not_jump="false"
       sort_points="true"
       message="&lt;b&gt;Ctrl + click&lt;/b&gt; on existing node and move it" />
    <inkscape:path-effect
       effect="powerstroke"
       id="path-effect10"
       is_visible="true"
       lpeversion="1.3"
       scale_width="0.9929078"
       interpolator_type="CentripetalCatmullRom"
       interpolator_beta="0.14042553"
       start_linecap_type="zerowidth"
       end_linecap_type="square"
       offset_points="0.4676997,0.4021101 | 5,0.3999995 | 9.8083374,0.35174532 | 9.8984158,0.28467856"
       linejoin_type="round"
       miter_limit="4"
       not_jump="false"
       sort_points="true"
       message="&lt;b&gt;Ctrl + click&lt;/b&gt; on existing node and move it" />
    <linearGradient
       inkscape:collect="always"
       xlink:href="#linearGradient22"
       id="linearGradient23"
       x1="81.386742"
       y1="96.765007"
       x2="81.386742"
       y2="113.2965"
       gradientUnits="userSpaceOnUse" />
  </defs>
  <g
     inkscape:label="Layer 1"
     inkscape:groupmode="layer"
     id="layer1">
    <path
       d="m 57.363748,93.859386 q -2.532451,0 -3.903227,-0.85964 -1.347543,-0.859639 -1.85868,-2.555685 -0.511137,-1.719279 -0.511137,-4.576999 0,-3.345624 0.580837,-5.11137 0.604071,-1.765746 1.85868,-2.439518 1.254609,-0.673771 3.485025,-0.673771 2.276883,0 4.971969,0.697005 l -0.116168,3.25269 q -2.183949,-0.302036 -3.531492,-0.302036 -1.231375,0 -1.881913,0.39497 -0.650538,0.371736 -0.906106,1.208142 -0.232335,0.813172 -0.232335,2.32335 0,0.766705 0.02323,1.184908 0.0697,1.719279 0.278802,2.485985 0.209102,0.766705 0.743472,1.045507 0.53437,0.278802 1.719279,0.278802 1.603111,0 3.78706,-0.255568 l 0.0697,3.345624 q -2.509218,0.557604 -4.577,0.557604 z m 6.691244,-16.286684 h 4.042629 v 4.855802 q 0.766705,-0.441437 1.324309,-0.604071 0.557604,-0.185868 1.301076,-0.185868 2.091015,0 3.020355,1.417243 0.952574,1.417244 0.952574,4.089096 v 6.412446 h -4.019396 v -6.319512 q 0,-0.975807 -0.302035,-1.486944 -0.278802,-0.511137 -1.022274,-0.511137 -0.511137,0 -1.045508,0.116168 l -0.209101,0.04647 v 8.154958 h -4.042629 z m 16.147264,16.286684 q -1.92838,0 -2.880954,-0.975807 -0.92934,-0.999041 -0.92934,-3.020355 0,-1.928381 1.022274,-2.695086 1.045508,-0.789939 3.368858,-0.906107 l 1.719279,-0.09293 v -0.53437 q 0,-0.39497 -0.209102,-0.487904 -0.185868,-0.116167 -0.813172,-0.116167 l -2.091015,0.04647 q -1.998081,0.09293 -2.137482,0.04647 l -0.09293,-2.71832 q 2.509218,-0.766705 4.879035,-0.766705 2.39305,0 3.438557,0.952573 1.045508,0.92934 1.045508,3.043589 v 4.089096 q 0.02323,0.255568 0.04647,0.580837 0.02323,0.302036 0.09293,0.418203 0.0697,0.09293 0.255568,0.139401 l -0.116167,2.997122 q -1.440477,0 -2.160716,-0.139401 -0.697005,-0.116168 -1.53341,-0.580838 -1.440477,0.720239 -2.904188,0.720239 z m 0.92934,-3.229457 q 0.371736,0 1.138442,-0.116167 l 0.232335,-0.02323 v -1.603111 l -1.231376,0.09293 q -0.394969,0.04647 -0.627304,0.278802 -0.232335,0.232335 -0.232335,0.650538 0,0.720238 0.720238,0.720238 z M 89.19361,81.9406 h 4.019396 v 0.534371 q 0.743472,-0.46467 1.324309,-0.650538 0.580838,-0.185868 1.254609,-0.185868 2.137482,0 3.090056,1.440477 0.952573,1.417243 0.952573,4.065862 v 6.412446 h -4.042629 v -6.273045 q 0,-1.068741 -0.325269,-1.556644 -0.302035,-0.487904 -1.138441,-0.487904 -0.04647,0 -0.255569,0 -0.209101,0 -0.673771,0.116168 H 93.236239 V 93.55735 H 89.19361 Z"
       id="path2"
       style="font-size:23.2335px;font-family:'Cairo Black';-inkscape-font-specification:'Cairo Black, Normal';text-align:center;text-anchor:middle;stroke-width:2.19529;display:none;fill:#a6a6a6;fill-opacity:1" />
    <path
       d="m 49.929598,99.839566 q 2.986391,0 4.456256,0.536624 1.493196,0.53661 2.146469,2.1698 0.653273,1.60985 0.653273,4.96954 0,3.03306 -0.513286,4.68957 -0.489955,1.65652 -2.053144,2.49644 -1.539858,0.81658 -4.689568,0.81658 H 44.86673 V 99.839566 Z m -0.02333,12.062224 q 1.329878,0 1.95982,-0.51328 0.629942,-0.53662 0.816591,-1.51653 0.186649,-0.97991 0.186649,-2.77641 0,-1.44654 -0.20998,-2.19313 -0.20998,-0.76993 -0.839923,-1.09656 -0.629941,-0.34997 -1.913157,-0.34997 h -0.886585 v 8.44588 z m 9.729091,-12.062224 h 6.276089 q 2.939729,0 4.409595,1.376544 1.493195,1.37655 1.493195,4.05963 0,2.68308 -1.913157,4.50291 l 1.703176,5.73947 h -4.549579 l -1.143228,-4.73623 h -2.123138 v 4.73623 h -4.152955 z m 6.346083,7.395994 q 0.746598,0 1.143228,-0.55995 0.419961,-0.58328 0.419961,-1.39987 0,-0.79326 -0.466624,-1.3532 -0.443292,-0.55996 -1.166559,-0.55996 h -2.123136 v 3.87298 z m 14.162011,8.58587 q -3.569671,0 -5.156191,-1.93648 -1.56319,-1.93649 -1.56319,-6.1361 0,-4.24628 1.56319,-6.22944 1.563189,-1.983144 5.156191,-1.983144 3.593003,0 5.156192,1.983144 1.56319,1.98316 1.56319,6.20611 0,4.03629 -1.539858,6.06611 -1.539859,2.0298 -5.179524,2.0298 z m 0,-3.593 q 0.909916,0 1.423202,-0.44329 0.536618,-0.46663 0.76993,-1.4232 0.233312,-0.97992 0.233312,-2.63642 0,-2.47312 -0.536618,-3.52301 -0.536617,-1.07324 -1.889826,-1.07324 -1.329878,0 -1.889826,1.07324 -0.536617,1.07323 -0.536617,3.54634 0,2.19313 0.466624,3.33635 0.466623,1.14323 1.959819,1.14323 z m 9.122479,-12.388864 h 4.152951 v 15.678554 h -4.152951 z m 12.365518,0 q 2.98639,0 4.45626,0.536624 1.49319,0.53661 2.14647,2.1698 0.65327,1.60985 0.65327,4.96954 0,3.03306 -0.51329,4.68957 -0.48995,1.65652 -2.05314,2.49644 -1.53986,0.81658 -4.68957,0.81658 H 96.568586 V 99.839566 Z m -0.0233,12.062224 q 1.32988,0 1.95982,-0.51328 0.62994,-0.53662 0.81659,-1.51653 0.18665,-0.97991 0.18665,-2.77641 0,-1.44654 -0.20998,-2.19313 -0.20998,-0.76993 -0.83993,-1.09656 -0.62993,-0.34997 -1.91315,-0.34997 h -0.88658 v 8.44588 z"
       id="path3"
       style="font-size:23.2335px;font-family:'Cairo Black';-inkscape-font-specification:'Cairo Black, Normal';text-align:center;text-anchor:middle;display:none;fill:#a6a6a6;fill-opacity:1;stroke-width:2.20452"
       inkscape:transform-center-x="-0.53610108"
       inkscape:transform-center-y="-0.089350181" />
    <g
       id="text1"
       style="font-size:23.2335px;font-family:'Cairo Black';-inkscape-font-specification:'Cairo Black, Normal';text-align:center;text-anchor:middle;stroke-width:2.19529"
       aria-label="Chan&#10;DROID">
      <g
         id="g3"
         inkscape:label="g3">
        <path
           style="fill:#000000;fill-opacity:1;fill-rule:nonzero;stroke:none;stroke-width:0.799999;stroke-opacity:1"
           d="m 55.304587,84.520394 c 0.0012,0.316823 0.0056,0.859485 0.39843,1.496687 0.211432,0.342966 0.53255,0.698727 0.993516,1.007348 0.0579,0.03876 0.118598,0.07725 0.182132,0.115224 0.409259,0.24462 0.936678,0.467362 1.55486,0.596013 0.49298,0.102595 1.050002,0.145331 1.599346,0.07423 0.502467,-0.06532 1.025623,-0.245367 1.536414,-0.533304 0.464824,-0.262026 0.920054,-0.614275 1.322831,-1.041809 0.375396,-0.398471 0.710066,-0.868084 0.949323,-1.384768 0.226939,-0.49008 0.373223,-1.034806 0.369381,-1.596627 -0.0043,-0.746912 -0.204544,-1.48334 -0.548739,-2.176603 -0.333801,-0.672325 -0.803441,-1.304988 -1.361433,-1.868087 -0.54613,-0.55113 -1.179607,-1.038208 -1.854367,-1.427679 -0.66429,-0.383428 -1.373616,-0.675007 -2.078952,-0.834715 -0.58167,-0.130872 -1.181617,-0.143017 -1.773957,-0.06433 -0.590575,0.07845 -1.175649,0.247402 -1.732594,0.481252 -1.12174,0.470997 -2.140992,1.209568 -2.890078,2.036981 -0.892514,0.98383 -1.457007,2.214597 -1.778294,3.458004 -0.342566,1.325756 -0.415366,2.684926 -0.314308,3.882527 0.08467,1.002052 0.354431,2.10526 0.855323,3.175855 0.453883,0.970118 1.096211,1.908669 1.938843,2.658101 0.718777,0.639531 1.599376,1.061367 2.541888,1.343673 0.920418,0.275688 1.891034,0.415721 2.805125,0.499847 0.727643,0.06743 1.485681,0.07521 2.226558,-0.01676 0.766856,-0.0952 1.502882,-0.295734 2.165943,-0.636403 0.547102,-0.280843 1.099359,-0.632031 1.551525,-1.056234 0.244334,-0.229224 0.456353,-0.476821 0.624002,-0.743367 0.182296,-0.289833 0.307761,-0.59521 0.368844,-0.913875 0.0062,-0.03666 0.01861,-0.114022 0.02769,-0.225119 0.0097,-0.118871 0.01481,-0.26698 0.0067,-0.436711 -0.01947,-0.40527 -0.110306,-0.851517 -0.31115,-1.293923 C 64.388612,88.455403 63.944225,87.9897 63.5054,87.662482 63.342237,87.540816 63.188136,87.444477 63.059658,87.371874 62.723871,87.182119 62.400593,87.086513 62.214006,87.016059 61.879935,86.889919 61.278143,86.696251 61.064162,86.643767 l -0.274523,-0.06733 -0.134666,0.549046 0.274523,0.06733 c 0.29034,0.07121 0.703946,0.177733 1.067047,0.345067 0.170518,0.07858 0.419057,0.239182 0.695884,0.428171 0.105541,0.07205 0.23073,0.16226 0.361744,0.271453 0.353498,0.29462 0.687267,0.676257 0.898074,1.177683 0.145566,0.346242 0.207972,0.693016 0.215824,1.005866 0.0033,0.130691 -0.0034,0.242525 -0.01273,0.32808 -0.0086,0.07857 -0.0193,0.130529 -0.02215,0.139802 -0.04253,0.205681 -0.127764,0.413287 -0.261868,0.623142 -0.124207,0.194365 -0.287805,0.386604 -0.489833,0.575253 -0.37721,0.352229 -0.855838,0.661578 -1.359119,0.922014 -0.556223,0.287629 -1.191763,0.46777 -1.882196,0.556966 -0.667326,0.08621 -1.363338,0.0845 -2.046803,0.02545 -0.888415,-0.07744 -1.79905,-0.206563 -2.646722,-0.456061 -0.866883,-0.255153 -1.632878,-0.626164 -2.241003,-1.162752 -0.748928,-0.661267 -1.334757,-1.506153 -1.752134,-2.394017 -0.461143,-0.980965 -0.708315,-1.992144 -0.783848,-2.904432 -0.09283,-1.119204 -0.01489,-2.389562 0.312441,-3.608387 0.30862,-1.149151 0.834943,-2.238712 1.622986,-3.082613 0.677328,-0.723843 1.600676,-1.36983 2.604245,-1.770928 0.495787,-0.198152 1.003141,-0.333213 1.501068,-0.390209 0.499087,-0.05713 0.982796,-0.03522 1.434909,0.0752 0.594323,0.143662 1.207953,0.402831 1.793768,0.750623 0.594212,0.352778 1.150583,0.791162 1.626378,1.281757 0.486729,0.501868 0.880913,1.049621 1.152899,1.610466 0.279165,0.575648 0.425241,1.156905 0.424726,1.716083 -0.0011,0.373301 -0.101527,0.761492 -0.278136,1.139709 -0.185814,0.397929 -0.450789,0.773877 -0.757478,1.10244 -0.328374,0.351795 -0.696792,0.641504 -1.065779,0.857355 -0.405654,0.237302 -0.800237,0.379232 -1.156544,0.438927 -0.416096,0.06955 -0.863899,0.0592 -1.282791,-0.0014 -0.520986,-0.07541 -0.976918,-0.224 -1.341471,-0.384275 -0.05658,-0.02487 -0.11099,-0.05003 -0.163281,-0.07527 -0.413055,-0.199367 -0.740919,-0.421828 -0.995378,-0.645479 -0.477621,-0.419792 -0.708912,-0.857499 -0.797631,-1.168066 z"
           id="path4"
           sodipodi:nodetypes="caaaaaaaaac"
           inkscape:original-d="m 55.304587,84.520394 c 0.28991,2.041072 2.865774,3.04235 4.654418,2.782012 1.812871,-0.263864 3.72324,-2.215507 3.717943,-4.047473 -0.0077,-2.654276 -2.835817,-5.229698 -5.420631,-5.833003 -2.072789,-0.483797 -4.527772,0.703064 -5.968425,2.269919 -1.646779,1.791037 -2.216925,4.5912 -2.014015,7.015766 0.171557,2.049942 1.125647,4.201706 2.665075,5.566203 1.347587,1.194454 3.323808,1.570389 5.117369,1.731166 1.396521,0.125185 2.914376,0.02447 4.160749,-0.617787 0.994254,-0.512343 2.110738,-1.319672 2.327596,-2.416946 0.03404,-0.172254 0.538256,-3.049751 -3.547837,-4.051961"
           inkscape:path-effect="#path-effect10" />
        <path
           style="font-size:23.2335px;font-family:'Cairo Black';-inkscape-font-specification:'Cairo Black, Normal';text-align:center;text-anchor:middle;fill:#000000;fill-opacity:1;fill-rule:nonzero;stroke:none;stroke-width:0.799999;stroke-opacity:1"
           d="m 69.217441,90.733322 c 0,0 0.0652,-0.331406 0,0 -0.06273,0.31889 -0.176988,0.776626 -0.38367,1.209906 -0.146447,0.307004 -0.321547,0.565262 -0.525216,0.769464 -0.1926,0.193104 -0.396207,0.323386 -0.601261,0.410011 -0.233289,0.09855 -0.462655,0.138079 -0.664471,0.15299 -0.245081,0.01811 -0.496139,0.0022 -0.742841,-0.0373 -0.272117,-0.04359 -0.544231,-0.116774 -0.804087,-0.209608 -0.110906,-0.03962 -0.220221,-0.08305 -0.327181,-0.129715 -0.549542,-0.239769 -1.003132,-0.531645 -1.257876,-0.706652 l -0.329694,-0.226497 -0.452995,0.659389 0.329695,0.226498 c 0.275512,0.189275 0.776053,0.512224 1.39095,0.780508 0.120521,0.05258 0.244347,0.103309 0.370839,0.150648 0.29509,0.110434 0.61534,0.206445 0.94864,0.261746 0.302308,0.05016 0.627771,0.06885 0.957994,0.02662 0.272522,-0.03485 0.589366,-0.117151 0.905906,-0.289883 0.279192,-0.152351 0.535949,-0.362871 0.760089,-0.639028 0.234225,-0.288584 0.412761,-0.623963 0.548536,-0.985108 0.190179,-0.505852 0.277703,-1.0147 0.323917,-1.349569 0.04892,-0.35447 0,0 0,0 l 0.03721,-0.223637 -0.447274,-0.07442 z"
           id="path6"
           sodipodi:nodetypes="cc"
           inkscape:original-d="m 69.441078,90.770531 c -0.66442,3.993398 -3.700756,3.164021 -5.756737,1.751579"
           inkscape:path-effect="#path-effect13" />
        <path
           style="font-size:23.2335px;font-family:'Cairo Black';-inkscape-font-specification:'Cairo Black, Normal';text-align:center;text-anchor:middle;fill:#000000;fill-opacity:1;fill-rule:nonzero;stroke:none;stroke-width:0.799999;stroke-opacity:1"
           d="m 66.581604,83.843918 c 0.192116,-0.116267 0.587207,-0.291923 1.170197,-0.60196 0.115104,-0.06121 0.226876,-0.121311 0.355781,-0.19072 0.220771,-0.118875 0.510867,-0.273818 0.825299,-0.412037 0.345436,-0.151849 0.745921,-0.295389 1.159291,-0.358524 0.347421,-0.05306 0.705604,-0.04979 1.053697,0.05468 0.421184,0.126204 0.811634,0.356908 1.176912,0.69741 0.343273,0.319989 0.655116,0.728466 0.940899,1.213464 0.549285,0.932184 0.943202,2.042004 1.282825,3.102824 0.299283,0.93052 0.571338,1.96171 0.640524,2.951967 0.03514,0.502903 0.0169,0.981786 -0.06951,1.424764 -0.08946,0.45862 -0.250469,0.871174 -0.493299,1.231792 -0.08273,0.129626 -0.193902,0.23814 -0.324121,0.328271 -0.142512,0.09864 -0.304944,0.17322 -0.470425,0.227872 -0.345218,0.114014 -0.744151,0.154277 -1.116751,0.141676 -0.352781,-0.01248 -0.71493,-0.08949 -1.0382,-0.221688 -0.348641,-0.142573 -0.619364,-0.334911 -0.812092,-0.549145 -0.343417,-0.369511 -0.602243,-0.768846 -0.793268,-1.183781 -0.224038,-0.486642 -0.351881,-0.988095 -0.41881,-1.480632 -0.04727,-0.34783 -0.06334,-0.684976 -0.06367,-1.000727 -0.0013,-1.283383 0.235403,-2.502992 0.41674,-3.114267 -0.275694,0.548999 -0.911198,1.699973 -1.067213,3.076198 -0.0388,0.342215 -0.05203,0.719322 -0.02172,1.115502 0.04298,0.561828 0.172852,1.152554 0.431986,1.73159 0.221455,0.494843 0.531338,0.967533 0.942305,1.397439 0.302022,0.310064 0.70011,0.536504 1.14668,0.677843 0.4147,0.131252 0.858948,0.185147 1.279134,0.170472 0.42086,-0.01485 0.878126,-0.07921 1.294618,-0.217195 0.199935,-0.06624 0.412971,-0.156908 0.612508,-0.284513 0.183808,-0.117546 0.360618,-0.269 0.504769,-0.467469 0.304149,-0.430368 0.506623,-0.91756 0.624698,-1.445973 0.113601,-0.508397 0.147252,-1.04654 0.124234,-1.596068 -0.0451,-1.0767 -0.307169,-2.179907 -0.586357,-3.141029 -0.312919,-1.072773 -0.706073,-2.271322 -1.289354,-3.300735 -0.306638,-0.541174 -0.66134,-1.027427 -1.077907,-1.423921 -0.4477,-0.426127 -0.954598,-0.736586 -1.524435,-0.905925 -0.50978,-0.151369 -1.006219,-0.141529 -1.449788,-0.06012 -0.521347,0.09568 -0.992704,0.295947 -1.364684,0.496642 -0.346277,0.186827 -0.636487,0.390079 -0.850383,0.561633 -0.119953,0.09621 -0.227749,0.192588 -0.323841,0.285871 -0.48164,0.467561 -0.719731,0.91226 -0.827269,1.06852 z"
           id="path5"
           sodipodi:nodetypes="caaaaac"
           inkscape:label="h"
           inkscape:original-d="m 66.581604,83.843918 c 1.170328,-1.103754 3.069993,-2.413717 4.690115,-1.930552 2.060755,0.614574 3.017393,3.265673 3.646166,5.322139 0.574644,1.879429 1.075341,4.279301 -0.04243,5.895797 -0.439211,0.635177 -1.389356,0.831158 -2.161594,0.833498 -0.762061,0.0023 -1.615037,-0.255322 -2.138055,-0.809574 -1.424792,-1.509881 -1.832974,-3.864686 -0.57218,-7.050068"
           inkscape:path-effect="#path-effect11" />
        <path
           style="fill:none;fill-opacity:1;fill-rule:nonzero;stroke:#000000;stroke-width:0.799999;stroke-opacity:1"
           d="m 63.617329,88.009927 c 0,0 -0.177977,-2.80338 0.09477,-4.077201 0.601541,-2.809416 -1.343738,-4.046257 -0.375904,-5.6773 0.453474,-0.764217 1.533269,-1.050702 2.41919,-1.120051 0.83575,-0.06542 1.91671,0.01732 2.418803,0.688631 0.981151,1.311828 -1.337217,3.907838 -0.04467,4.91426"
           id="path7"
           sodipodi:nodetypes="csaaac"
           inkscape:label="h" />
        <path
           style="fill:#000000;fill-opacity:1;fill-rule:nonzero;stroke:none;stroke-width:0.799999;stroke-opacity:1"
           d="m 75.331386,87.025606 c 0.264203,-0.411458 0.679075,-0.970192 1.2984,-1.526466 0.558596,-0.501726 1.2205,-0.915607 1.924496,-1.260189 0.171385,-0.08389 0.34729,-0.163301 0.527598,-0.237449 0.633156,-0.260372 1.287022,-0.44193 1.945906,-0.534262 0.08592,-0.01204 0.175533,-0.02342 0.268874,-0.03353 0.968749,-0.104923 1.71614,0.006 2.227455,0.153587 -0.448337,-0.242628 -1.197585,-0.578407 -2.235198,-0.651035 -0.101091,-0.0071 -0.19907,-0.01112 -0.293176,-0.01254 -0.722219,-0.0109 -1.465443,0.108259 -2.183691,0.346655 -0.204645,0.06792 -0.404377,0.14457 -0.598321,0.228879 -0.796776,0.346366 -1.504048,0.849575 -2.119422,1.405528 -0.683525,0.617524 -1.142242,1.230945 -1.436091,1.688574 l -0.216125,0.336585 0.67317,0.43225 z"
           id="path8"
           sodipodi:nodetypes="cc"
           inkscape:original-d="m 74.994801,86.809481 c 1.945123,-3.029256 5.750875,-4.359462 8.529314,-3.222186"
           inkscape:path-effect="#path-effect15" />
        <path
           style="fill:#000000;fill-opacity:1;fill-rule:nonzero;stroke:none;stroke-width:0.799999;stroke-opacity:1"
           d="m 77.327144,84.340308 c 1.09e-4,-3.8e-5 6.74e-4,4.22e-4 -3.59e-4,1.25e-4 -0.0041,-0.0012 -0.09468,0.0318 -0.681043,0.108939 -0.18381,0.02418 -0.404817,0.04493 -0.633158,0.04317 -0.215713,-0.0017 -0.429009,-0.02349 -0.618699,-0.07685 -0.110077,-0.03533 -0.212884,-0.09255 -0.305129,-0.164005 -0.09717,-0.07527 -0.178827,-0.163356 -0.243322,-0.252066 -0.06611,-0.09093 -0.11078,-0.177592 -0.139793,-0.250169 -0.0033,-0.0082 -0.0063,-0.01622 -0.0093,-0.02415 -0.03282,-0.08961 -0.04072,-0.157241 -0.03842,-0.198831 0.0029,-0.341437 0.08979,-0.652069 0.243762,-0.936333 0.156667,-0.289242 0.387175,-0.558885 0.682876,-0.805181 0.296936,-0.247324 0.656568,-0.468494 1.064465,-0.659241 0.406285,-0.189993 0.857511,-0.348412 1.336354,-0.47188 0.940265,-0.242444 1.984906,-0.349166 2.978555,-0.29451 0.482108,0.02652 0.950572,0.09105 1.384099,0.196007 0.422809,0.10236 0.809269,0.242445 1.139427,0.420438 0.793825,0.428692 1.547606,1.090879 2.194941,1.952033 0.03547,0.04719 0.07061,0.09496 0.105403,0.143305 0.53282,0.740374 1.012624,1.659291 1.336299,2.713494 0.304991,0.993352 0.465446,2.092674 0.387626,3.198201 -0.0726,1.031341 -0.352545,2.057596 -0.906588,2.977224 -0.263324,0.43375 -0.538724,0.777218 -0.82463,1.046234 -0.282367,0.265686 -0.573943,0.457836 -0.874541,0.594842 -0.305279,0.13914 -0.624496,0.223476 -0.958308,0.267649 -0.348683,0.04614 -0.712562,0.04828 -1.086824,0.02297 -0.153973,-0.0102 -0.2964,-0.05112 -0.425382,-0.114518 -0.136266,-0.06697 -0.259283,-0.159899 -0.365877,-0.271246 -0.242101,-0.252896 -0.386102,-0.584144 -0.437811,-0.915653 -0.07035,-0.451006 0.03009,-0.860659 0.180363,-1.193872 0.03006,-0.06664 0.06161,-0.129368 0.09338,-0.188261 0.309407,-0.573498 0.756877,-1.026192 1.006843,-1.207828 -0.253591,0.08595 -0.964627,0.26442 -1.484113,0.87256 -0.05397,0.06318 -0.108236,0.133503 -0.160868,0.211 -0.262235,0.38612 -0.472512,0.93961 -0.418048,1.59469 0.03968,0.477279 0.224031,0.989229 0.593953,1.402587 0.164176,0.183455 0.364776,0.346244 0.599875,0.467992 0.223837,0.115915 0.477634,0.193777 0.75418,0.214925 0.415916,0.0322 0.843013,0.03243 1.267272,-0.02532 0.408639,-0.05563 0.813677,-0.164855 1.207,-0.350034 0.388159,-0.182747 0.754381,-0.434492 1.097504,-0.767091 0.34557,-0.334971 0.660709,-0.745121 0.949676,-1.234808 0.625622,-1.052812 0.929211,-2.210906 1.003441,-3.349193 0.07949,-1.218912 -0.102647,-2.416593 -0.434472,-3.48852 -0.351593,-1.135786 -0.871504,-2.13414 -1.449697,-2.944034 -0.03781,-0.05296 -0.07603,-0.105337 -0.11464,-0.157123 -0.702806,-0.942537 -1.538441,-1.691572 -2.446846,-2.188098 -0.403223,-0.220615 -0.85758,-0.385566 -1.332708,-0.503338 -0.488429,-0.121069 -1.007205,-0.194404 -1.532295,-0.225789 -1.079386,-0.06452 -2.210745,0.04626 -3.235187,0.306935 -0.523111,0.133109 -1.02499,0.306882 -1.485088,0.520908 -0.461079,0.214483 -0.88599,0.472088 -1.249416,0.774623 -0.36213,0.301457 -0.668813,0.652278 -0.88549,1.054532 -0.215488,0.400048 -0.339419,0.846679 -0.341136,1.334 9.33e-4,0.17934 0.04778,0.358658 0.122745,0.52434 0.0069,0.01529 0.01411,0.03054 0.02156,0.04572 0.06577,0.134033 0.159005,0.275744 0.28239,0.411796 0.120299,0.132647 0.269426,0.259863 0.444382,0.3628 0.166967,0.09824 0.355915,0.173333 0.560163,0.208249 0.269102,0.04944 0.544089,0.04946 0.792389,0.02797 0.266056,-0.02303 0.51302,-0.07179 0.708976,-0.120274 0.63282,-0.156562 0.708802,-0.247473 0.714542,-0.252078 l 0.194689,-0.0685 -0.135305,-0.389971 z"
           id="path9"
           sodipodi:nodetypes="cssassc"
           inkscape:original-d="m 77.395643,84.534998 c 0,0 -1.171705,0.412251 -2.07543,0.21018 -0.623362,-0.139379 -1.086104,-0.76976 -1.083576,-1.221063 0.01846,-3.294095 6.551179,-4.47941 9.445429,-2.906286 3.517955,1.91213 5.58583,7.700114 3.279947,11.555613 -1.115962,1.865919 -2.501546,2.273221 -4.132877,2.154473 -1.686588,-0.12277 -2.577272,-2.950602 0.08327,-4.327566"
           inkscape:path-effect="#path-effect14" />
        <path
           style="fill:none;fill-opacity:1;stroke:#000000;stroke-width:0.799999;stroke-opacity:1"
           d="m 81.723482,93.885656 c 0,0 -1.735855,0.363598 -3.605113,0.0079 -1.950999,-0.37123 -2.870849,-1.650605 -2.870849,-1.650605"
           id="path10"
           sodipodi:nodetypes="csc" />
        <path
           style="fill:none;fill-opacity:1;stroke:#000000;stroke-width:0.799999;stroke-opacity:1"
           d="m 79.41741,87.836159 c -0.02824,-0.742744 1.175096,-1.563469 1.848017,-1.247807 0.335328,0.157299 0.198668,0.745894 0.110565,1.105652 -0.08684,0.354596 -0.245294,0.830592 -0.600211,0.916112 -0.506629,0.122076 -1.338573,-0.253204 -1.358371,-0.773957 z"
           id="path14"
           sodipodi:nodetypes="aaaaa" />
        <path
           style="fill:none;fill-opacity:1;stroke:#000000;stroke-width:0.799999;stroke-opacity:1"
           d="m 91.63132,91.620945 c 0,0 0.920755,1.301455 1.560916,1.749994 0.948459,0.664553 2.068718,1.311144 3.226598,1.288376 2.800788,-0.05508 4.063776,-1.313428 4.600686,-3.899432 -1.035878,0.235746 -3.997451,0.06032 -4.007562,-1.320354 -0.01065,-1.453712 2.289631,-3.115638 2.278429,-4.333485 -0.01561,-1.697646 -1.357477,-3.250175 -3.462319,-3.842055 -0.731261,-0.20563 -1.546474,-0.158471 -2.27843,0.04467 -0.662093,0.183752 -1.787004,1.027525 -1.787004,1.027525"
           id="path16"
           sodipodi:nodetypes="cascssaac" />
        <path
           style="font-size:23.2335px;font-family:'Cairo Black';-inkscape-font-specification:'Cairo Black, Normal';text-align:center;text-anchor:middle;fill:#000000;fill-opacity:1;fill-rule:nonzero;stroke:none;stroke-width:0.799999;stroke-opacity:1"
           d="m 91.248877,84.815652 c 0.103587,-0.157073 0.336747,-0.438166 0.556106,-0.741721 0.134594,-0.186255 0.263164,-0.384384 0.351421,-0.589783 0.01646,-0.03831 0.03213,-0.07781 0.04681,-0.118382 0.08055,-0.222631 0.134545,-0.486013 0.121183,-0.772822 -0.01211,-0.260039 -0.07878,-0.527347 -0.217031,-0.800708 -0.122652,-0.241701 -0.294343,-0.461073 -0.493523,-0.65247 -0.198664,-0.190899 -0.42478,-0.35436 -0.660506,-0.488654 -0.21949,-0.125045 -0.477686,-0.23632 -0.761505,-0.305333 -0.258182,-0.06278 -0.534983,-0.08974 -0.811761,-0.05909 -0.278306,0.03081 -0.536838,0.101046 -0.77504,0.19886 -0.24142,0.09913 -0.459498,0.225571 -0.654587,0.365061 -0.414295,0.296223 -0.73334,0.657455 -0.960957,0.96193 -0.347083,0.46428 -0.557469,0.900971 -0.61859,1.029789 -0.11223,0.236534 -0.119543,0.273138 -0.121136,0.27734 l -0.141813,0.374017 0.748034,0.283626 0.141813,-0.374017 0,0 c -0.0016,0.0042 -5.67e-4,-0.01478 0.09587,-0.218026 0.0532,-0.112117 0.237075,-0.492232 0.537152,-0.892872 0.197687,-0.263937 0.460379,-0.556904 0.785875,-0.78934 0.15188,-0.108456 0.316167,-0.202835 0.492956,-0.275352 0.173857,-0.07131 0.359751,-0.121482 0.558688,-0.143488 0.168714,-0.01865 0.350666,-0.0034 0.53449,0.04098 0.201734,0.04873 0.391058,0.12893 0.555902,0.221818 0.177077,0.09978 0.338387,0.227652 0.471953,0.371554 0.134332,0.144727 0.233348,0.297613 0.29788,0.446766 0.0759,0.173193 0.106339,0.329432 0.116815,0.476579 0.01208,0.169667 -0.0015,0.342684 -0.02173,0.532211 -0.0036,0.03389 -0.0074,0.06786 -0.0112,0.102172 -0.01206,0.10846 -0.04843,0.474055 -0.06349,0.621971 -0.0319,0.313407 -0.07836,0.779014 -0.100065,0.917385 z"
           id="path15"
           sodipodi:nodetypes="casc"
           inkscape:original-d="m 91.248877,84.815652 c 0.465917,-1.203788 0.883181,-1.972475 0.469083,-2.836867 -0.379227,-0.791603 -1.421335,-1.38988 -2.29376,-1.293328 -1.903572,0.210669 -2.800424,2.576029 -2.800424,2.576029"
           inkscape:path-effect="#path-effect18" />
        <path
           style="fill:#000000;fill-opacity:1;fill-rule:nonzero;stroke:none;stroke-width:0.799999;stroke-opacity:1"
           d="m 91.561599,87.80889 c -0.0014,0.01906 -0.0046,0.04696 -0.0084,0.08775 -0.0029,0.0307 -0.0059,0.06762 -0.009,0.114248 -0.0051,0.07804 -0.0096,0.174948 -0.01308,0.302715 -0.0053,0.192279 -0.0081,0.445216 -0.0084,0.728262 -3.8e-5,0.0392 -1.1e-4,0.07971 -2.52e-4,0.121226 -0.0018,0.536703 -0.01357,1.383887 -0.153941,2.218617 -0.06232,0.370606 -0.150554,0.743518 -0.275573,1.089999 -0.119925,0.332364 -0.270986,0.632798 -0.459119,0.881776 -0.09968,0.131914 -0.208905,0.248216 -0.328168,0.347086 -0.09565,0.07929 -0.202287,0.15168 -0.321986,0.212786 -0.23366,0.119284 -0.531546,0.203059 -0.920307,0.198562 -0.39228,-0.006 -0.714334,-0.08953 -0.980862,-0.218352 -0.264922,-0.128047 -0.465653,-0.296533 -0.614619,-0.456611 -0.175306,-0.188381 -0.283335,-0.370324 -0.333714,-0.46417 -0.01464,-0.02727 -0.0264,-0.05083 -0.03544,-0.06997 -0.05545,-0.117398 -0.05346,-0.127646 -0.05129,-0.12102 l -0.124569,-0.380108 -0.760216,0.249138 0.124569,0.380108 c 0.0022,0.0066 0.0095,0.0471 0.08815,0.213564 0.01275,0.027 0.02883,0.0604 0.04807,0.09822 0.06581,0.129341 0.203365,0.380498 0.436732,0.643905 0.19929,0.224944 0.478154,0.470133 0.855683,0.656393 0.382762,0.188843 0.830279,0.298889 1.341663,0.299206 0.522842,0.0019 0.954257,-0.118868 1.306597,-0.30967 0.176863,-0.09578 0.330944,-0.207657 0.464828,-0.326861 0.166623,-0.148354 0.311425,-0.315682 0.436893,-0.494976 0.234984,-0.335792 0.404389,-0.716522 0.52644,-1.104 0.127642,-0.405232 0.206399,-0.827103 0.252382,-1.23044 0.104853,-0.919699 0.0464,-1.787739 -0.03599,-2.34861 -0.0063,-0.04281 -0.01278,-0.08438 -0.01945,-0.124661 -0.0486,-0.293867 -0.114678,-0.543615 -0.181782,-0.733826 -0.04377,-0.124078 -0.08648,-0.218881 -0.124696,-0.289497 -0.02308,-0.04264 -0.04416,-0.07581 -0.06269,-0.101679 -0.0249,-0.03475 -0.04476,-0.05571 -0.05845,-0.06911 z"
           id="path17"
           sodipodi:nodetypes="csc"
           inkscape:original-d="m 91.561599,87.80889 c 0.253963,0.671622 0.966377,6.742593 -2.501165,6.718181 -1.866283,-0.01314 -2.393114,-1.620706 -2.393114,-1.620706"
           inkscape:path-effect="#path-effect17" />
      </g>
    </g>
    <path
       d="m 51.559735,96.635021 c 7.564546,0 7.564546,0 7.564546,8.002369 0,8.34291 0,8.34289 -7.564546,8.34289 H 46.281579 V 96.635021 Z m -0.02432,12.575149 c 3.089059,0 3.063447,-0.19243 3.089059,-5.0106 0.0195,-3.66907 0,-3.79444 -3.089059,-3.79444 h -0.924286 v 8.80504 z m 9.200277,-12.575149 h 6.542968 c 6.153794,0 6.153794,0 6.153794,5.667329 0,5.05539 -0.568621,5.74032 -1.552249,5.74032 l 1.552249,4.89293 -4.961953,0.0447 -1.191841,-4.93763 h -2.213421 v 4.93763 h -4.329547 z m 6.615937,7.710489 c 0.518897,0 0.916178,-0.19459 1.191842,-0.58376 0.29188,-0.40539 0.43782,-0.89185 0.43782,-1.4594 0,-0.55133 -0.162155,-1.02158 -0.486466,-1.41075 -0.308095,-0.38917 -0.713484,-0.58376 -1.216165,-0.58376 h -2.213421 v 4.03767 z m 13.821699,8.95097 c -6.434321,0 -7.00511,0 -7.00511,-8.41586 0,-8.41586 -10e-7,-8.561802 7.00511,-8.561802 7.005111,0 7.005111,0 7.005111,8.537482 0,8.53748 -0.57079,8.44018 -7.005111,8.44018 z m 0,-3.74579 c 2.529624,0 2.529624,0.0973 2.529624,-4.69439 0,-4.79169 0,-4.7943 -2.529624,-4.79169 -2.529624,0.003 -2.529623,0 -2.529623,4.81601 0,4.81601 0,4.67007 2.529623,4.67007 z m 10.552626,-9.48608 h 4.329547 v 9.48608 h -4.329547 z m 13.180666,-3.429589 c 7.56455,0 7.56455,0 7.56455,8.002369 0,8.34291 0,8.34289 -7.56455,8.34289 H 99.628465 V 96.635021 Z m -0.0243,12.575149 c 3.08906,0 3.06345,-0.19243 3.08906,-5.0106 0.0195,-3.66907 0,-3.79444 -3.08906,-3.79444 h -0.92429 v 8.80504 z m -15.750452,-12.598956 9.462027,0.02381 v 2.01037 1.443026 l -9.462027,-0.0238 v -1.443026 z m 0.08532,12.939476 h 9.376708 v 2.58076 0.84883 h -9.376709 l -10e-7,-0.84883 z"
       id="path32"
       style="-inkscape-font-specification:'Cairo Black, Normal';fill:#bfbfbf;fill-opacity:1;stroke-width:2.29825"
       aria-label="DROID"
       sodipodi:nodetypes="sssccssssccscssccccccccscscsccszzzzzszzzscccccsssccssssccscccccccccccccc" />
    <path
       d="m 51.559735,96.635021 c 7.564546,0 7.564546,0 7.564546,8.002369 0,8.34291 0,8.34289 -7.564546,8.34289 H 46.281579 V 96.635021 Z m -0.02432,12.575149 c 3.089059,0 3.063447,-0.19243 3.089059,-5.0106 0.0195,-3.66907 0,-3.79444 -3.089059,-3.79444 h -0.924286 v 8.80504 z m 9.200277,-12.575149 h 6.542968 c 6.153794,0 6.153794,0 6.153794,5.667329 0,5.05539 -0.568621,5.74032 -1.552249,5.74032 l 1.552249,4.89293 -4.961953,0.0447 -1.191841,-4.93763 h -2.213421 v 4.93763 h -4.329547 z m 6.615937,7.710489 c 0.518897,0 0.916178,-0.19459 1.191842,-0.58376 0.29188,-0.40539 0.43782,-0.89185 0.43782,-1.4594 0,-0.55133 -0.162155,-1.02158 -0.486466,-1.41075 -0.308095,-0.38917 -0.713484,-0.58376 -1.216165,-0.58376 h -2.213421 v 4.03767 z m 13.821699,8.95097 c -6.434321,0 -7.00511,0 -7.00511,-8.41586 0,-8.41586 -10e-7,-8.561802 7.00511,-8.561802 7.005111,0 7.005111,0 7.005111,8.537482 0,8.53748 -0.57079,8.44018 -7.005111,8.44018 z m 0,-3.74579 c 2.529624,0 2.529624,0.0973 2.529624,-4.69439 0,-4.79169 0,-4.7943 -2.529624,-4.79169 -2.529624,0.003 -2.529623,0 -2.529623,4.81601 0,4.81601 0,4.67007 2.529623,4.67007 z m 10.552626,-9.48608 h 4.329547 v 9.48608 h -4.329547 z m 13.180666,-3.429589 c 7.56455,0 7.56455,0 7.56455,8.002369 0,8.34291 0,8.34289 -7.56455,8.34289 H 99.628465 V 96.635021 Z m -0.0243,12.575149 c 3.08906,0 3.06345,-0.19243 3.08906,-5.0106 0.0195,-3.66907 0,-3.79444 -3.08906,-3.79444 h -0.92429 v 8.80504 z m -15.750452,-12.598956 9.462027,0.02381 v 2.01037 1.443026 l -9.462027,-0.0238 v -1.443026 z m 0.08532,12.939476 h 9.376708 v 2.58076 0.84883 h -9.376709 l -10e-7,-0.84883 z"
       id="text18"
       style="-inkscape-font-specification:'Cairo Black, Normal';fill:url(#linearGradient23);fill-opacity:1;stroke-width:2.29825"
       aria-label="DROID"
       sodipodi:nodetypes="sssccssssccscssccccccccscscsccszzzzzszzzscccccsssccssssccscccccccccccccc" />
  </g>
</svg>
